<svg width="21" height="20" viewBox="0 0 21 20" fill="none" xmlns="http://www.w3.org/2000/svg">
<path fill-rule="evenodd" clip-rule="evenodd" d="M4.01641 6.42313C4.03766 6.23923 3.95761 6.05782 3.80178 5.93439L2.21511 4.25123V4H7.1437L10.9531 11.3529L14.3021 4H19.0005V4.25123L17.6433 5.3964C17.5264 5.47495 17.4684 5.60399 17.4924 5.73178V14.1463C17.4684 14.2735 17.5264 14.4026 17.6433 14.4811L18.9686 15.6263V15.8775H12.3018V15.6263L13.6752 14.453C13.8098 14.3346 13.8098 14.2997 13.8098 14.1183V7.31707L9.99261 15.8501H9.47695L5.03216 7.31707V13.0361C4.99532 13.2761 5.08599 13.5186 5.27795 13.6919L7.06365 15.5982V15.8501H2.00049V15.5982L3.7862 13.6919C3.97745 13.518 4.06245 13.2742 4.01641 13.0361V6.42313Z" fill="#0E2A3C"/>
</svg>
