<svg width="21" height="20" viewBox="0 0 21 20" fill="none" xmlns="http://www.w3.org/2000/svg">
<path fill-rule="evenodd" clip-rule="evenodd" d="M16.6255 1.66675C18.0752 1.66675 19.2505 2.78604 19.2505 4.16675V15.8334C19.2505 17.2141 18.0752 18.3334 16.6255 18.3334H4.37549C2.92574 18.3334 1.75049 17.2141 1.75049 15.8334V4.16675C1.75049 2.78604 2.92574 1.66675 4.37549 1.66675H16.6255ZM3.50049 14.1667V15.8334C3.50049 16.2937 3.89224 16.6667 4.37549 16.6667H5.25049V14.1667H3.50049ZM14.0005 10.8334H7.00049V16.6667H14.0005V10.8334ZM17.5005 14.1667H15.7505V16.6667H16.6255C17.1087 16.6667 17.5005 16.2937 17.5005 15.8334V14.1667ZM17.5005 7.50008H15.7505V12.5001H17.5005V7.50008ZM14.0005 3.33341H7.00049V9.16675H14.0005V3.33341ZM16.6255 3.33341H15.7505V5.83341H17.5005V4.16675C17.5005 3.70651 17.1087 3.33341 16.6255 3.33341ZM5.25049 3.33341H4.37549C3.89224 3.33341 3.50049 3.70651 3.50049 4.16675V5.83341H5.25049V3.33341ZM3.50049 12.5001H5.25049V7.50008H3.50049V12.5001Z" fill="#0E2A3C"/>
</svg>
