<svg width="21" height="20" viewBox="0 0 21 20" fill="none" xmlns="http://www.w3.org/2000/svg">
<path fill-rule="evenodd" clip-rule="evenodd" d="M4.37549 18.3334C2.92574 18.3334 1.75049 17.2141 1.75049 15.8334V5.83342C1.75049 4.4527 2.92574 3.33341 4.37549 3.33341H5.25049V2.50008C5.25049 2.03984 5.64224 1.66675 6.12549 1.66675C6.60874 1.66675 7.00049 2.03984 7.00049 2.50008V3.33341H14.0005V2.50008C14.0005 2.03984 14.3922 1.66675 14.8755 1.66675C15.3587 1.66675 15.7505 2.03984 15.7505 2.50008V3.33341H16.6255C18.0752 3.33341 19.2505 4.4527 19.2505 5.83342V15.8334C19.2505 17.2141 18.0752 18.3334 16.6255 18.3334H4.37549ZM7.00049 14.1667H3.50049V15.8334C3.50049 16.2937 3.89224 16.6667 4.37549 16.6667H7.00049V14.1667ZM12.2505 14.1667H8.75049V16.6667H12.2505V14.1667ZM17.5005 14.1667H14.0005V16.6667H16.6255C17.1087 16.6667 17.5005 16.2937 17.5005 15.8334V14.1667ZM7.00049 10.0001H3.50049V12.5001H7.00049V10.0001ZM12.2505 10.0001H8.75049V12.5001H12.2505V10.0001ZM17.5005 10.0001H14.0005V12.5001H17.5005V10.0001ZM5.25049 5.00008H4.37549C3.89224 5.00008 3.50049 5.37318 3.50049 5.83341V8.33341H17.5005V5.83341C17.5005 5.37318 17.1087 5.00008 16.6255 5.00008H15.7505V5.83341C15.7505 6.29365 15.3587 6.66675 14.8755 6.66675C14.3922 6.66675 14.0005 6.29365 14.0005 5.83341V5.00008H7.00049V5.83341C7.00049 6.29365 6.60874 6.66675 6.12549 6.66675C5.64224 6.66675 5.25049 6.29365 5.25049 5.83341V5.00008Z" fill="#0E2A3C"/>
</svg>
