<svg width="20" height="20" viewBox="0 0 20 20" fill="none" xmlns="http://www.w3.org/2000/svg">
<path fill-rule="evenodd" clip-rule="evenodd" d="M2.50045 3.33325H8.33378C8.76114 3.33325 9.11337 3.65495 9.16151 4.0694L9.16711 4.16659V10.8333C9.16711 10.893 9.1607 10.9524 9.14803 11.0106L9.12435 11.0968L7.45768 16.0968C7.35457 16.4061 7.08201 16.6239 6.76382 16.661L6.66711 16.6666H3.33378C2.79844 16.6666 2.41117 16.173 2.51742 15.665L2.54321 15.5697L3.84426 11.6666H2.50045C2.07308 11.6666 1.72086 11.3449 1.67272 10.9304L1.66711 10.8333V4.16659C1.66711 3.73922 1.98881 3.387 2.40326 3.33886L2.50045 3.33325H8.33378H2.50045ZM11.6671 3.33325H17.5004C17.9278 3.33325 18.28 3.65495 18.3282 4.0694L18.3338 4.16659V10.8333C18.3338 10.893 18.3274 10.9524 18.3147 11.0106L18.291 11.0968L16.6244 16.0968C16.5212 16.4061 16.2487 16.6239 15.9305 16.661L15.8338 16.6666H12.5004C11.9651 16.6666 11.5778 16.173 11.6841 15.665L11.7099 15.5697L13.0109 11.6666H11.6671C11.2398 11.6666 10.8875 11.3449 10.8394 10.9304L10.8338 10.8333V4.16659C10.8338 3.73922 11.1555 3.387 11.5699 3.33886L11.6671 3.33325H17.5004H11.6671ZM7.50045 4.99992H3.33378V9.99992H5.00045C5.53579 9.99992 5.92306 10.4935 5.81681 11.0015L5.79102 11.0968L4.48997 14.9999H6.06648L7.50045 10.698V4.99992ZM16.6671 4.99992H12.5004V9.99992H14.1671C14.7025 9.99992 15.0897 10.4935 14.9835 11.0015L14.9577 11.0968L13.6566 14.9999H15.2331L16.6671 10.698V4.99992Z" fill="#0E2A3C"/>
</svg>
