<svg width="21" height="20" viewBox="0 0 21 20" fill="none" xmlns="http://www.w3.org/2000/svg">
<path fill-rule="evenodd" clip-rule="evenodd" d="M9.62549 1.66675H11.3755C12.7735 1.66675 13.9162 2.70751 13.996 4.01985L14.0005 4.16675V5.00008H16.6255C18.0752 5.00008 19.2505 6.11937 19.2505 7.50008V15.8334C19.2505 17.2141 18.0752 18.3334 16.6255 18.3334H4.37549C2.92574 18.3334 1.75049 17.2141 1.75049 15.8334V7.50008C1.75049 6.11937 2.92574 5.00008 4.37549 5.00008H7.00049V4.16675C7.00049 2.83535 8.09329 1.74703 9.47125 1.67099L9.62549 1.66675H11.3755H9.62549ZM17.5005 13.3334H3.50049V15.8334C3.50049 16.2937 3.89224 16.6667 4.37549 16.6667H16.6255C17.1087 16.6667 17.5005 16.2937 17.5005 15.8334V13.3334ZM16.6255 6.66675H4.37549C3.89224 6.66675 3.50049 7.03984 3.50049 7.50008V11.6667H17.5005V7.50008C17.5005 7.03984 17.1087 6.66675 16.6255 6.66675ZM11.3755 3.33341H9.62549C9.17676 3.33341 8.80692 3.65511 8.75637 4.06956L8.75049 4.16675V5.00008H12.2505V4.16675C12.2505 3.73938 11.9127 3.38716 11.4775 3.33902L11.3755 3.33341Z" fill="#0E2A3C"/>
</svg>
