<svg width="100" height="100" viewBox="0 0 100 100" fill="none" xmlns="http://www.w3.org/2000/svg">
<mask id="mask0_1095_2215" style="mask-type:alpha" maskUnits="userSpaceOnUse" x="0" y="0" width="100" height="100">
<rect width="100" height="100" fill="#D9D9D9"/>
</mask>
<g mask="url(#mask0_1095_2215)">
<path d="M50 67.9167C50.5903 67.9167 51.0851 67.717 51.4844 67.3177C51.8837 66.9184 52.0833 66.4236 52.0833 65.8333C52.0833 65.2431 51.8837 64.7483 51.4844 64.349C51.0851 63.9497 50.5903 63.75 50 63.75C49.4097 63.75 48.9149 63.9497 48.5156 64.349C48.1163 64.7483 47.9167 65.2431 47.9167 65.8333C47.9167 66.4236 48.1163 66.9184 48.5156 67.3177C48.9149 67.717 49.4097 67.9167 50 67.9167ZM48.5417 55H51.4583V30H48.5417V55ZM50.0181 86.25C45.006 86.25 40.2931 85.2989 35.8794 83.3968C31.4656 81.4946 27.6261 78.913 24.3611 75.6522C21.0962 72.3913 18.5115 68.5567 16.6069 64.1485C14.7023 59.7403 13.75 55.0302 13.75 50.0181C13.75 45.006 14.7011 40.2931 16.6032 35.8794C18.5055 31.4656 21.087 27.6262 24.3478 24.3612C27.6087 21.0962 31.4433 18.5115 35.8515 16.6069C40.2597 14.7023 44.9698 13.75 49.9819 13.75C54.994 13.75 59.7069 14.7011 64.1206 16.6032C68.5345 18.5055 72.3738 21.087 75.6388 24.3478C78.9038 27.6087 81.4885 31.4433 83.3931 35.8515C85.2977 40.2597 86.25 44.9698 86.25 49.9819C86.25 54.994 85.2989 59.7069 83.3968 64.1206C81.4946 68.5345 78.913 72.3739 75.6522 75.6389C72.3913 78.9038 68.5567 81.4885 64.1485 83.3931C59.7403 85.2977 55.0302 86.25 50.0181 86.25ZM50 83.3333C59.3056 83.3333 67.1875 80.1042 73.6458 73.6458C80.1042 67.1875 83.3333 59.3056 83.3333 50C83.3333 40.6944 80.1042 32.8125 73.6458 26.3542C67.1875 19.8958 59.3056 16.6667 50 16.6667C40.6944 16.6667 32.8125 19.8958 26.3542 26.3542C19.8958 32.8125 16.6667 40.6944 16.6667 50C16.6667 59.3056 19.8958 67.1875 26.3542 73.6458C32.8125 80.1042 40.6944 83.3333 50 83.3333Z" fill="#F26C5D"/>
</g>
</svg>
