<svg width="11" height="6" viewBox="0 0 11 6" fill="none" xmlns="http://www.w3.org/2000/svg">
<g clip-path="url(#clip0_1816_5)">
<mask id="path-1-inside-1_1816_5" fill="white">
<path fill-rule="evenodd" clip-rule="evenodd" d="M10.413 4.97256L5.61914 0L0.825256 4.97256H-222V96.9726H38V4.97256H10.413Z"/>
</mask>
<path fill-rule="evenodd" clip-rule="evenodd" d="M10.413 4.97256L5.61914 0L0.825256 4.97256H-222V96.9726H38V4.97256H10.413Z" fill="white"/>
<path d="M5.61914 0L6.33906 -0.694055L5.61914 -1.44081L4.89922 -0.694055L5.61914 0ZM10.413 4.97256L9.6931 5.66661L9.98805 5.97256H10.413V4.97256ZM0.825256 4.97256V5.97256H1.25023L1.54518 5.66661L0.825256 4.97256ZM-222 4.97256V3.97256H-223V4.97256H-222ZM-222 96.9726H-223V97.9726H-222V96.9726ZM38 96.9726V97.9726H39V96.9726H38ZM38 4.97256H39V3.97256H38V4.97256ZM4.89922 0.694055L9.6931 5.66661L11.1329 4.2785L6.33906 -0.694055L4.89922 0.694055ZM1.54518 5.66661L6.33906 0.694055L4.89922 -0.694055L0.105334 4.2785L1.54518 5.66661ZM-222 5.97256H0.825256V3.97256H-222V5.97256ZM-221 96.9726V4.97256H-223V96.9726H-221ZM38 95.9726H-222V97.9726H38V95.9726ZM37 4.97256V96.9726H39V4.97256H37ZM10.413 5.97256H38V3.97256H10.413V5.97256Z" fill="#E3E7F2" mask="url(#path-1-inside-1_1816_5)"/>
</g>
<defs>
<clipPath id="clip0_1816_5">
<rect width="11" height="6" fill="white"/>
</clipPath>
</defs>
</svg>
