<svg width="13" height="8" viewBox="0 0 13 8" fill="none" xmlns="http://www.w3.org/2000/svg">
<g clip-path="url(#clip0_1906_6)">
<mask id="path-1-inside-1_1906_6" fill="white">
<path fill-rule="evenodd" clip-rule="evenodd" d="M102 -64H-91V1H-0.33506L6.33398 7.66904L13.003 1H102V-64Z"/>
</mask>
<path fill-rule="evenodd" clip-rule="evenodd" d="M102 -64H-91V1H-0.33506L6.33398 7.66904L13.003 1H102V-64Z" fill="white"/>
<path d="M-91 -64V-65H-92V-64H-91ZM102 -64H103V-65H102V-64ZM-91 1H-92V2H-91V1ZM-0.33506 1L0.372047 0.292893L0.0791534 0H-0.33506V1ZM6.33398 7.66904L5.62688 8.37615L6.33398 9.08326L7.04109 8.37615L6.33398 7.66904ZM13.003 1V0H12.5888L12.2959 0.292893L13.003 1ZM102 1V2H103V1H102ZM-91 -63H102V-65H-91V-63ZM-90 1V-64H-92V1H-90ZM-0.33506 0H-91V2H-0.33506V0ZM7.04109 6.96194L0.372047 0.292893L-1.04217 1.70711L5.62688 8.37615L7.04109 6.96194ZM12.2959 0.292893L5.62688 6.96194L7.04109 8.37615L13.7101 1.70711L12.2959 0.292893ZM102 0H13.003V2H102V0ZM101 -64V1H103V-64H101Z" fill="#D2DBEA" mask="url(#path-1-inside-1_1906_6)"/>
</g>
<defs>
<clipPath id="clip0_1906_6">
<rect width="13" height="8" fill="white"/>
</clipPath>
</defs>
</svg>
