<svg width="17" height="20" viewBox="0 0 17 20" fill="none" xmlns="http://www.w3.org/2000/svg">
<path d="M11.1923 16.0577C10.55 16.0577 10.0048 15.8337 9.55673 15.3856C9.10866 14.9375 8.88463 14.3924 8.88463 13.7501C8.88463 13.1078 9.10866 12.5626 9.55673 12.1145C10.0048 11.6664 10.55 11.4424 11.1923 11.4424C11.8346 11.4424 12.3798 11.6664 12.8279 12.1145C13.2759 12.5626 13.5 13.1078 13.5 13.7501C13.5 14.3924 13.2759 14.9375 12.8279 15.3856C12.3798 15.8337 11.8346 16.0577 11.1923 16.0577ZM1.8077 19.5577C1.30257 19.5577 0.875 19.3827 0.525 19.0327C0.175 18.6827 0 18.2551 0 17.75V4.36546C0 3.86033 0.175 3.43276 0.525 3.08276C0.875 2.73276 1.30257 2.55776 1.8077 2.55776H3.19233V0.442383H4.73075V2.55776H12.3077V0.442383H13.8076V2.55776H15.1923C15.6974 2.55776 16.125 2.73276 16.475 3.08276C16.825 3.43276 17 3.86033 17 4.36546V17.75C17 18.2551 16.825 18.6827 16.475 19.0327C16.125 19.3827 15.6974 19.5577 15.1923 19.5577H1.8077ZM1.8077 18.0577H15.1923C15.2692 18.0577 15.3397 18.0257 15.4038 17.9616C15.4679 17.8975 15.5 17.8269 15.5 17.75V8.36546H1.49997V17.75C1.49997 17.8269 1.53202 17.8975 1.59612 17.9616C1.66024 18.0257 1.73077 18.0577 1.8077 18.0577ZM1.49997 6.86548H15.5V4.36546C15.5 4.28853 15.4679 4.218 15.4038 4.15388C15.3397 4.08978 15.2692 4.05773 15.1923 4.05773H1.8077C1.73077 4.05773 1.66024 4.08978 1.59612 4.15388C1.53202 4.218 1.49997 4.28853 1.49997 4.36546V6.86548Z" fill="#0E2A3C"/>
</svg>
