<svg width="19" height="17" viewBox="0 0 19 17" fill="none" xmlns="http://www.w3.org/2000/svg">
<path fill-rule="evenodd" clip-rule="evenodd" d="M16.15 1.7H15.3V0.85C15.3 0.624566 15.2104 0.408365 15.051 0.248959C14.8916 0.0895533 14.6754 0 14.45 0C14.2246 0 14.0084 0.0895533 13.849 0.248959C13.6896 0.408365 13.6 0.624566 13.6 0.85V1.7H5.1V0.85C5.1 0.624566 5.01045 0.408365 4.85104 0.248959C4.69163 0.0895533 4.47543 0 4.25 0C4.02457 0 3.80837 0.0895533 3.64896 0.248959C3.48955 0.408365 3.4 0.624566 3.4 0.85V1.7H2.55C1.8737 1.7 1.2251 1.96866 0.746878 2.44688C0.26866 2.9251 0 3.5737 0 4.25V14.45C0 15.1263 0.26866 15.7749 0.746878 16.2531C1.2251 16.7313 1.8737 17 2.55 17H16.15C16.8263 17 17.4749 16.7313 17.9531 16.2531C18.4313 15.7749 18.7 15.1263 18.7 14.45V4.25C18.7 3.5737 18.4313 2.9251 17.9531 2.44688C17.4749 1.96866 16.8263 1.7 16.15 1.7ZM1.7 4.25C1.7 4.02457 1.78955 3.80837 1.94896 3.64896C2.10837 3.48955 2.32457 3.4 2.55 3.4H16.15C16.3754 3.4 16.5916 3.48955 16.751 3.64896C16.9104 3.80837 17 4.02457 17 4.25V5.1H1.7V4.25ZM17 14.45C17 14.6754 16.9104 14.8916 16.751 15.051C16.5916 15.2104 16.3754 15.3 16.15 15.3H2.55C2.32457 15.3 2.10837 15.2104 1.94896 15.051C1.78955 14.8916 1.7 14.6754 1.7 14.45V6.8H17V14.45Z" fill="#878787"/>
<path d="M5.26844 8.5H4.07844C3.70288 8.5 3.39844 8.80445 3.39844 9.18V10.37C3.39844 10.7456 3.70288 11.05 4.07844 11.05H5.26844C5.64399 11.05 5.94844 10.7456 5.94844 10.37V9.18C5.94844 8.80445 5.64399 8.5 5.26844 8.5Z" fill="#878787"/>
<path d="M9.51844 8.5H8.32844C7.95288 8.5 7.64844 8.80445 7.64844 9.18V10.37C7.64844 10.7456 7.95288 11.05 8.32844 11.05H9.51844C9.89399 11.05 10.1984 10.7456 10.1984 10.37V9.18C10.1984 8.80445 9.89399 8.5 9.51844 8.5Z" fill="#878787"/>
</svg>
