<svg width="1280" height="702" viewBox="0 0 1280 702" fill="none" xmlns="http://www.w3.org/2000/svg">
<g opacity="0.7">
<path d="M1434 745.286L1415.1 738.595L1396.19 731.766L1377.29 724.949L1358.38 718.306L1339.48 711.997L1320.57 706.174L1301.67 700.968L1282.76 696.488L1263.86 692.82L1244.95 689.971L1226.05 688.001L1207.14 686.921L1188.24 686.746L1169.33 687.472L1150.43 689.071L1131.52 691.481L1112.62 694.594L1093.71 698.277L1074.81 702.394L1055.9 706.809L1037 711.387L1018.1 715.995L999.19 720.507L980.286 724.814L961.381 728.83L942.476 732.496L923.571 736.197L904.667 739.624L885.762 743.177L866.857 746.932L847.952 750.92L829.048 755.13L810.143 759.504L791.238 763.94L772.333 768.294L753.429 772.395L734.524 776.034L715.619 779.008L696.714 781.113L677.81 782.205L658.905 782.224L640 781.171L621.095 779.094L602.191 776.09L583.286 772.325L564.381 768.089L545.476 763.758L526.571 759.728L507.667 756.36L488.762 753.945L469.857 752.683L450.952 752.664L432.048 753.871L413.143 756.18L394.238 759.378L375.333 763.173L356.429 767.226L337.524 771.169L318.619 774.638L299.714 777.319L280.81 778.976L261.905 779.441L243 778.658L224.095 776.646L205.191 773.492L186.286 769.338L167.381 764.37L148.476 758.815L129.571 752.964L110.667 747.163L91.762 741.78L72.8572 737.163L53.9524 733.609L35.0477 731.339L16.1429 730.478L-2.76185 731.048L-21.6666 732.267L-40.5714 734.552L-59.4761 737.225L-78.3809 740.012L-97.2857 742.654L-116.19 744.929L-135.095 746.662" stroke="#D1EDF7" stroke-miterlimit="10"/>
<path d="M1434 724.973L1415.1 718.43L1396.19 711.712L1377.29 704.977L1358.38 698.394L1339.48 692.135L1320.57 686.361L1301.67 681.215L1282.76 676.814L1263.86 673.251L1244.95 670.578L1226.05 668.836L1207.14 668.035L1188.24 668.189L1169.33 669.285L1150.43 671.277L1131.52 674.084L1112.62 677.579L1093.71 681.609L1074.81 686.017L1055.9 690.649L1037 695.354L1018.1 699.988L999.19 704.418L980.286 708.532L961.381 712.247L942.476 715.515L923.571 718.757L904.667 721.654L885.762 724.641L866.857 727.817L847.952 731.241L829.048 734.925L810.143 738.831L791.238 742.906L772.333 746.935L753.429 750.813L734.524 754.322L715.619 757.232L696.714 759.333L677.81 760.468L658.905 760.569L640 759.634L621.095 757.709L602.191 754.884L583.286 751.307L564.381 747.238L545.476 743.035L526.571 739.085L507.667 735.751L488.762 733.334L469.857 732.043L450.952 731.982L432.048 733.147L413.143 735.428L394.238 738.621L375.333 742.446L356.429 746.566L337.524 750.62L318.619 754.245L299.714 757.121L280.81 759.001L261.905 759.715L243 759.195L224.095 757.446L205.191 754.543L186.286 750.617L167.381 745.846L148.476 740.461L129.571 734.769L110.667 729.132L91.762 723.928L72.8572 719.512L53.9524 716.188L35.0477 714.182L16.1429 713.623L-2.76185 714.531L-21.6666 716.309L-40.5714 719.339L-59.4761 722.788L-78.3809 726.363L-97.2856 729.786L-116.19 732.813L-135.095 735.25" stroke="#D1EDF7" stroke-miterlimit="10"/>
<path d="M1434 704.494L1415.1 698.142L1396.19 691.587L1377.29 684.991L1358.38 678.53L1339.48 672.383L1320.57 666.719L1301.67 661.69L1282.76 657.423L1263.86 654.015L1244.95 651.535L1226.05 650.023L1207.14 649.497L1188.24 649.963L1169.33 651.399L1150.43 653.748L1131.52 656.907L1112.62 660.735L1093.71 665.062L1074.81 669.712L1055.9 674.514L1037 679.302L1018.1 683.923L999.19 688.237L980.286 692.133L961.381 695.531L942.476 698.392L923.571 701.165L904.667 703.534L885.762 705.96L866.857 708.567L847.952 711.605L829.048 714.706L810.143 718.114L791.238 721.751L772.333 725.483L753.429 729.131L734.524 732.482L715.619 735.306L696.714 737.386L677.81 738.556L658.905 738.737L640 737.921L621.095 736.151L602.191 733.513L583.286 730.143L564.381 726.272L545.476 722.232L526.571 718.403L507.667 715.146L488.762 712.768L469.857 711.489L450.952 711.425L432.048 712.586L413.143 714.873L394.238 718.094L375.333 721.978L356.429 726.196L337.524 730.391L318.619 734.2L299.714 737.298L280.81 739.43L261.905 740.421L243 740.187L224.095 738.721L205.191 736.084L186.286 732.396L167.381 727.828L148.476 722.616L129.571 717.082L110.667 711.599L91.762 706.552L72.8572 702.301L53.9524 699.158L35.0477 697.352L16.1429 697.018L-2.76185 698.18L-21.6666 700.752L-40.5714 703.915L-59.4761 708.055L-78.3809 712.338L-97.2856 716.468L-116.19 720.184L-135.095 723.274" stroke="#D1EDF7" stroke-miterlimit="10"/>
<path d="M1434 683.886L1415.1 677.771L1396.19 671.43L1377.29 665.029L1358.38 658.749L1339.48 652.774L1320.57 647.28L1301.67 642.425L1282.76 638.343L1263.86 635.135L1244.95 632.875L1226.05 631.609L1207.14 631.356L1188.24 632.117L1169.33 633.866L1150.43 636.531L1131.52 639.997L1112.62 644.109L1093.71 648.682L1074.81 653.523L1055.9 658.447L1037 663.275L1018.1 667.844L999.19 672.012L980.286 675.667L961.381 678.735L942.476 681.187L923.571 683.482L904.667 685.629L885.762 687.451L866.857 689.457L847.952 691.753L829.048 694.391L810.143 697.365L791.238 700.613L772.333 704.014L753.429 707.4L734.524 710.564L715.619 713.278L696.714 715.321L677.81 716.515L658.905 716.769L640 716.073L621.095 714.46L602.191 712.013L583.286 708.862L564.381 705.211L545.476 701.368L526.571 697.696L507.667 694.556L488.762 692.256L469.857 691.027L450.952 690.997L432.048 692.186L413.143 694.512L394.238 697.792L375.333 701.764L356.429 706.108L337.524 710.47L318.619 714.49L299.714 717.838L280.81 720.251L261.905 721.545L243 721.622L224.095 720.46L205.191 718.108L186.286 714.672L167.381 710.315L148.476 705.285L129.571 699.911L110.667 694.573L91.762 689.66L72.8572 685.539L53.9524 682.522L35.0477 680.849L16.1429 680.658L-2.76185 681.984L-21.6666 684.743L-40.5714 688.748L-59.4761 692.968L-78.3809 697.862L-97.2856 702.611L-116.19 706.94L-135.095 710.633" stroke="#D1EDF7" stroke-miterlimit="10"/>
<path d="M1434 663.186L1415.1 657.35L1396.19 651.274L1377.29 645.124L1358.38 639.082L1339.48 633.336L1320.57 628.067L1301.67 623.438L1282.76 619.586L1263.86 616.619L1244.95 614.613L1226.05 613.613L1207.14 613.638L1188.24 614.684L1169.33 616.72L1150.43 619.666L1131.52 623.395L1112.62 627.741L1093.71 632.509L1074.81 637.493L1055.9 642.491L1037 647.317L1018.1 651.799L999.19 655.793L980.286 659.188L961.381 661.916L942.476 664.218L923.571 666.048L904.667 667.403L885.762 668.756L866.857 670.27L847.952 672.064L829.048 674.209L810.143 676.718L791.238 679.544L772.333 682.582L753.429 685.675L734.524 688.623L715.619 691.201L696.714 693.185L677.81 694.388L658.905 694.709L640 694.128L621.095 692.672L602.191 690.416L583.286 687.488L564.381 684.074L545.476 680.452L526.571 676.97L507.667 673.98L488.762 671.795L469.857 670.65L450.952 670.687L432.048 671.937L413.143 674.33L394.238 677.696L375.333 681.783L356.429 686.278L337.524 690.833L318.619 695.089L299.714 698.714L280.81 701.435L261.905 703.058L243 703.472L224.095 702.638L205.191 700.59L186.286 697.421L167.381 693.291L148.476 688.452L129.571 683.242L110.667 678.042L91.762 673.243L72.8572 669.212L53.9524 666.27L35.0477 664.659L16.1429 664.528L-2.76185 665.921L-21.6666 668.765L-40.5714 672.879L-59.4761 677.482L-78.3809 682.88L-97.2856 688.147L-116.19 692.999L-135.095 697.217" stroke="#D1EDF7" stroke-miterlimit="10"/>
<path d="M1434 642.421L1415.1 636.908L1396.19 631.145L1377.29 625.296L1358.38 619.546L1339.48 614.083L1320.57 609.09L1301.67 604.733L1282.76 601.153L1263.86 598.463L1244.95 596.739L1226.05 596.027L1207.14 596.341L1188.24 597.671L1169.33 599.976L1150.43 603.173L1131.52 607.126L1112.62 611.662L1093.71 616.577L1074.81 621.655L1055.9 626.684L1037 631.467L1018.1 635.828L999.19 639.741L980.286 642.913L961.381 645.366L942.476 647.085L923.571 648.509L904.667 649.428L885.762 650.301L866.857 651.305L847.952 652.577L829.048 654.204L810.143 656.219L791.238 658.593L772.333 661.236L753.429 664.004L734.524 666.706L715.619 669.122L696.714 671.024L677.81 672.22L658.905 672.595L640 672.121L621.095 670.815L602.191 668.746L583.286 666.039L564.381 662.87L545.476 659.488L526.571 656.22L507.667 653.411L488.762 651.37L469.857 650.341L450.952 650.474L432.048 651.813L413.143 654.3L394.238 657.776L375.333 662.001L356.429 666.67L337.524 671.439L318.619 675.955L299.714 679.881L280.81 682.936L261.905 684.916L243 685.691L224.095 685.209L205.191 683.486L186.286 680.603L167.381 676.716L148.476 672.084L129.571 667.043L110.667 661.974L91.762 657.267L72.8572 653.292L53.9524 650.371L35.0477 648.753L16.1429 648.599L-2.76184 649.962L-21.6666 652.785L-40.5714 656.899L-59.4761 662.034L-78.3809 667.35L-97.2856 673.009L-116.19 678.313L-135.095 682.953" stroke="#D1EDF7" stroke-miterlimit="10"/>
<path d="M1434 621.615L1415.1 616.464L1396.19 611.058L1377.29 605.559L1358.38 600.15L1339.48 595.017L1320.57 590.346L1301.67 586.303L1282.76 583.032L1263.86 580.647L1244.95 579.228L1226.05 578.82L1207.14 579.434L1188.24 581.052L1169.33 583.62L1150.43 587.048L1131.52 591.194L1112.62 595.882L1093.71 600.902L1074.81 606.03L1055.9 611.057L1037 615.783L1018.1 620.045L999.19 623.702L980.286 626.652L961.381 628.831L942.476 630.227L923.571 631.242L904.667 631.725L885.762 632.112L866.857 632.595L847.952 633.327L829.048 634.415L810.143 635.911L791.238 637.805L772.333 640.023L753.429 642.436L734.524 644.863L715.619 647.088L696.714 648.884L677.81 650.051L658.905 650.465L640 650.082L621.095 648.913L602.191 647.021L583.286 644.527L564.381 641.602L545.476 638.472L526.571 635.435L507.667 632.828L488.762 630.958L469.857 630.071L450.952 630.325L432.048 631.777L413.143 634.38L394.238 637.989L375.333 642.372L356.429 647.235L337.524 652.239L318.619 657.034L299.714 661.283L280.81 664.697L261.905 667.058L243 668.219L224.095 668.112L205.191 666.738L186.286 664.162L167.381 660.538L148.476 656.127L129.571 651.262L110.667 646.32L91.762 641.687L72.8572 637.732L53.9524 634.781L35.0477 633.09L16.1429 632.83L-2.76184 634.07L-21.6666 636.768L-40.5714 640.772L-59.4761 645.828L-78.3809 651.599L-97.2856 657.218L-116.19 662.825L-135.095 667.794" stroke="#D1EDF7" stroke-miterlimit="10"/>
<path d="M1434 600.782L1415.1 596.031L1396.19 591.023L1377.29 585.916L1358.38 580.89L1339.48 576.131L1320.57 571.821L1301.67 568.128L1282.76 565.197L1263.86 563.143L1244.95 562.047L1226.05 561.955L1207.14 562.875L1188.24 564.78L1169.33 567.606L1150.43 571.252L1131.52 575.572L1112.62 580.383L1093.71 585.472L1074.81 590.618L1055.9 595.61L1037 600.262L1018.1 604.407L999.19 607.902L980.286 610.64L961.381 612.558L942.476 613.643L923.571 614.255L904.667 614.306L885.762 614.207L866.857 614.162L847.952 614.342L829.048 614.875L810.143 615.831L791.238 617.219L772.333 618.986L753.429 621.015L734.524 623.137L715.619 625.142L696.714 626.804L677.81 627.92L658.905 628.349L640 628.036L621.095 626.985L602.191 625.254L583.286 622.958L564.381 620.266L545.476 617.385L526.571 614.597L507.667 612.208L488.762 610.527L469.857 609.802L450.952 610.199L432.048 611.784L413.143 614.522L394.238 618.281L375.333 622.84L356.429 627.913L337.524 633.169L318.619 638.261L299.714 642.853L280.81 646.648L261.905 649.412L243 650.984L224.095 651.276L205.191 650.272L186.286 648.026L167.381 644.688L148.476 640.515L129.571 635.834L110.667 631.014L91.762 626.437L72.8572 622.471L53.9524 619.442L35.0477 617.615L16.1429 617.172L-2.76184 618.198L-21.6666 620.671L-40.5714 624.459L-59.4761 629.328L-78.3809 634.949L-97.2856 640.72L-116.19 646.522L-135.095 651.721" stroke="#D1EDF7" stroke-miterlimit="10"/>
<path d="M1434 579.932L1415.1 575.612L1396.19 571.038L1377.29 566.361L1358.38 561.757L1339.48 557.408L1320.57 553.494L1301.67 550.181L1282.76 547.615L1263.86 545.911L1244.95 545.153L1226.05 545.385L1207.14 546.613L1188.24 548.802L1169.33 551.877L1150.43 555.728L1131.52 560.202L1112.62 565.112L1093.71 570.246L1074.81 575.393L1055.9 580.352L1037 584.935L1018.1 588.972L999.19 592.318L980.286 594.862L961.381 596.535L942.476 597.326L923.571 597.548L904.667 597.177L885.762 596.596L866.857 596.021L847.952 595.644L829.048 595.609L810.143 596.008L791.238 596.87L772.333 598.161L753.429 599.779L734.524 601.567L715.619 603.322L696.714 604.822L677.81 605.858L658.905 606.274L640 606.004L621.095 605.045L602.191 603.45L583.286 601.332L564.381 598.854L545.476 596.221L526.571 593.683L507.667 591.518L488.762 590.038L469.857 589.491L450.952 590.046L432.048 591.78L413.143 594.669L394.238 598.591L375.333 603.34L356.429 608.638L337.524 614.161L318.619 619.565L299.714 624.516L280.81 628.71L261.905 631.898L243 633.902L224.095 634.616L205.191 634.007L186.286 632.114L167.381 629.084L148.476 625.166L129.571 620.677L110.667 615.977L91.762 611.442L72.8572 607.436L53.9524 604.287L35.0477 602.266L16.1429 601.569L-2.76184 602.297L-21.6666 604.451L-40.5714 607.922L-59.4761 612.479L-78.3809 617.898L-97.2856 623.74L-116.19 629.41L-135.095 634.739" stroke="#D1EDF7" stroke-miterlimit="10"/>
<path d="M1434 559.063L1415.1 555.205L1396.19 551.094L1377.29 546.88L1358.38 542.73L1339.48 538.821L1320.57 535.331L1301.67 532.424L1282.76 530.243L1263.86 528.907L1244.95 528.497L1226.05 529.059L1207.14 530.594L1188.24 533.058L1169.33 536.369L1150.43 540.408L1131.52 545.015L1112.62 550.001L1093.71 555.166L1074.81 560.311L1055.9 565.241L1037 569.766L1018.1 573.712L999.19 576.927L980.286 579.294L961.381 580.744L942.476 581.263L923.571 581.114L904.667 580.335L885.762 579.281L866.857 578.182L847.952 577.244L829.048 576.634L810.143 576.464L791.238 576.784L772.333 577.577L753.429 578.759L734.524 580.186L715.619 581.662L696.714 582.97L677.81 583.894L658.905 584.264L640 584.003L621.095 583.103L602.191 581.615L583.286 579.647L564.381 577.358L545.476 574.948L526.571 572.644L507.667 570.723L488.762 569.449L469.857 569.087L450.952 569.811L432.048 571.705L413.143 574.756L394.238 578.855L375.333 583.804L356.429 589.337L337.524 595.139L318.619 600.869L299.714 606.191L280.81 610.798L261.905 614.429L243 616.884L224.095 618.042L205.191 617.849L186.286 616.334L167.381 613.635L148.476 609.989L129.571 605.701L110.667 601.122L91.762 596.616L72.8572 592.545L53.9524 589.238L35.0477 586.973L16.1429 585.957L-2.76184 586.312L-21.6666 588.061L-40.5714 591.123L-59.4761 595.317L-78.3809 600.385L-97.2856 605.947L-116.19 611.622L-135.095 616.878" stroke="#D1EDF7" stroke-miterlimit="10"/>
<path d="M1434 538.169L1415.1 534.796L1396.19 531.177L1377.29 527.451L1358.38 523.781L1339.48 520.339L1320.57 517.296L1301.67 514.814L1282.76 513.037L1263.86 512.081L1244.95 512.029L1226.05 512.922L1207.14 514.758L1188.24 517.486L1169.33 521.017L1150.43 525.223L1131.52 529.941L1112.62 534.986L1093.71 540.177L1074.81 545.324L1055.9 550.236L1037 554.719L1018.1 558.592L999.19 561.696L980.286 563.91L961.381 565.16L942.476 565.429L923.571 564.935L904.667 563.767L885.762 562.255L866.857 560.64L847.952 559.147L829.048 557.961L810.143 557.215L791.238 556.98L772.333 557.258L753.429 557.982L734.524 559.021L715.619 560.19L696.714 561.276L677.81 562.051L658.905 562.335L640 562.044L621.095 561.166L602.191 559.748L583.286 557.896L564.381 555.764L545.476 553.548L526.571 551.471L507.667 549.76L488.762 548.714L469.857 548.539L450.952 549.437L432.048 551.498L413.143 554.718L394.238 559L375.333 564.158L356.429 569.936L337.524 576.024L318.619 582.089L299.714 587.794L280.81 592.826L261.905 596.911L243 599.835L224.095 601.456L205.191 601.702L186.286 600.587L167.381 598.24L148.476 594.884L129.571 590.808L110.667 586.35L91.762 581.866L72.8572 577.71L53.9524 574.213L35.0477 571.659L16.1429 570.271L-2.76184 570.187L-21.6666 571.457L-40.5714 574.021L-59.4761 577.762L-78.3809 582.394L-97.2856 587.596L-116.19 593.001L-135.095 598.184" stroke="#D1EDF7" stroke-miterlimit="10"/>
<path d="M1434 517.236L1415.1 514.371L1396.19 511.264L1377.29 508.049L1358.38 504.881L1339.48 501.925L1320.57 499.348L1301.67 497.31L1282.76 495.95L1263.86 495.386L1244.95 495.697L1226.05 496.919L1207.14 499.045L1188.24 502.021L1169.33 505.751L1150.43 510.102L1131.52 514.91L1112.62 520.008L1093.71 525.228L1074.81 530.388L1055.9 535.296L1037 539.754L1018.1 543.574L999.19 546.591L980.286 548.675L961.381 549.749L942.476 549.796L923.571 548.986L904.667 547.453L885.762 545.501L866.857 543.387L847.952 541.348L829.048 539.59L810.143 538.266L791.238 537.468L772.333 537.218L753.429 537.466L734.524 538.094L715.619 538.928L696.714 539.761L677.81 540.345L658.905 540.5L640 540.135L621.095 539.236L602.191 537.848L583.286 536.072L564.381 534.06L545.476 532.004L526.571 530.119L507.667 528.63L488.762 527.789L469.857 527.794L450.952 528.864L432.048 531.094L413.143 534.487L394.238 538.957L375.333 544.329L356.429 550.356L337.524 556.739L318.619 563.145L299.714 569.24L280.81 574.703L261.905 579.251L243 582.657L224.095 584.758L205.191 585.462L186.286 584.771L167.381 582.797L148.476 579.747L129.571 575.894L110.667 571.561L91.762 567.093L72.8572 562.838L53.9524 559.126L35.0477 556.25L16.1429 554.443L-2.76184 553.866L-21.6666 554.582L-40.5714 556.611L-59.4761 559.794L-78.3809 563.918L-97.2856 568.687L-116.19 573.753L-135.095 578.749" stroke="#D1EDF7" stroke-miterlimit="10"/>
<path d="M1434 496.249L1415.1 493.908L1396.19 491.332L1377.29 488.646L1358.38 485.997L1339.48 483.549L1320.57 481.455L1301.67 479.873L1282.76 478.944L1263.86 478.778L1244.95 479.449L1226.05 480.991L1207.14 483.393L1188.24 486.597L1169.33 490.504L1150.43 494.976L1131.52 499.861L1112.62 505.012L1093.71 510.27L1074.81 515.457L1055.9 520.378L1037 524.831L1018.1 528.62L999.19 531.571L980.286 533.551L961.381 534.475L942.476 534.326L923.571 533.234L904.667 531.363L885.762 528.998L866.857 526.403L847.952 523.835L829.048 521.515L810.143 519.617L791.238 518.254L772.333 517.467L753.429 517.223L734.524 517.419L715.619 517.892L696.714 518.405L677.81 518.789L658.905 518.77L640 518.284L621.095 517.317L602.191 515.912L583.286 514.169L564.381 512.235L545.476 510.298L526.571 508.567L507.667 507.263L488.762 506.598L469.857 506.805L450.952 508.039L432.048 510.433L413.143 513.999L394.238 518.658L375.333 524.245L356.429 530.525L337.524 537.204L318.619 543.955L299.714 550.443L280.81 556.341L261.905 561.359L243 565.255L224.095 567.849L205.191 569.029L186.286 568.781L167.381 567.199L148.476 564.472L129.571 560.855L110.667 556.653L91.762 552.2L72.8572 547.837L53.9524 543.894L35.0477 540.669L16.1429 538.409L-2.76184 537.296L-21.6666 537.433L-40.5714 538.835L-59.4761 541.402L-78.3809 544.954L-97.2856 549.227L-116.19 553.895L-135.095 558.6" stroke="#D1EDF7" stroke-miterlimit="10"/>
<path d="M1434 475.189L1415.1 473.388L1396.19 471.37L1377.29 469.239L1358.38 467.129L1339.48 465.196L1320.57 463.598L1301.67 462.484L1282.76 461.989L1263.86 462.217L1244.95 463.239L1226.05 465.086L1207.14 467.743L1188.24 471.151L1169.33 475.209L1150.43 479.782L1131.52 484.739L1112.62 489.948L1093.71 495.257L1074.81 500.487L1055.9 505.44L1037 509.908L1018.1 513.687L999.19 516.596L980.286 518.495L961.381 519.296L942.476 518.978L923.571 517.641L904.667 515.462L885.762 512.712L866.857 509.664L847.952 506.587L829.048 503.722L810.143 501.26L791.238 499.335L772.333 498.007L753.429 497.259L734.524 497.005L715.619 497.092L696.714 497.279L677.81 497.389L658.905 497.148L640 496.493L621.095 495.409L602.191 493.939L583.286 492.181L564.381 490.279L545.476 488.417L526.571 486.799L507.667 485.639L488.762 485.145L469.857 485.501L450.952 486.911L432.048 489.46L413.143 493.192L394.238 498.036L375.333 503.838L356.429 510.37L337.524 517.345L318.619 524.442L299.714 531.322L280.81 537.657L261.905 543.147L243 547.538L224.095 550.634L205.191 552.304L186.286 552.515L167.381 551.344L148.476 548.956L129.571 545.587L110.667 541.525L91.762 537.09L72.8572 532.617L53.9524 528.433L35.0477 524.842L16.1429 522.106L-2.76184 520.427L-21.6666 519.94L-40.5714 520.676L-59.4761 522.582L-78.3809 525.513L-97.2856 529.237L-116.19 533.454L-135.095 537.816" stroke="#D1EDF7" stroke-miterlimit="10"/>
<path d="M1434 454.073L1415.1 452.85L1396.19 451.399L1377.29 449.829L1358.38 448.271L1339.48 446.871L1320.57 445.777L1301.67 445.133L1282.76 445.065L1263.86 445.674L1244.95 447.029L1226.05 449.156L1207.14 452.041L1188.24 455.625L1169.33 459.805L1150.43 464.465L1131.52 469.494L1112.62 474.77L1093.71 480.144L1074.81 485.434L1055.9 490.439L1037 494.94L1018.1 498.73L999.19 501.62L980.286 503.462L961.381 504.166L942.476 503.708L923.571 502.164L904.667 499.711L885.762 496.609L866.857 493.139L847.952 489.58L829.048 486.19L810.143 483.181L791.238 480.701L772.333 478.832L753.429 477.574L734.524 476.854L715.619 476.533L696.714 476.358L677.81 476.15L658.905 475.64L640 474.765L621.095 473.514L602.191 471.928L583.286 470.105L564.381 468.188L545.476 466.354L526.571 464.803L507.667 463.744L488.762 463.377L469.857 463.887L450.952 465.439L432.048 468.126L413.143 472.013L394.238 477.035L375.333 483.046L356.429 489.826L337.524 497.094L318.619 504.532L299.714 511.801L280.81 518.57L261.905 524.531L243 529.42L224.095 533.024L205.191 535.193L186.286 535.878L167.381 535.132L148.476 533.098L129.571 529.991L110.667 526.08L91.762 521.672L72.8572 517.091L53.9524 512.665L35.0477 508.703L16.1429 505.479L-2.76184 503.221L-21.6666 502.078L-40.5714 502.122L-59.4761 503.335L-78.3809 505.608L-97.2856 508.743L-116.19 512.464L-135.095 516.437" stroke="#D1EDF7" stroke-miterlimit="10"/>
<path d="M1434 432.924L1415.1 432.287L1396.19 431.428L1377.29 430.442L1358.38 429.45L1339.48 428.589L1320.57 427.999L1301.67 427.815L1282.76 428.158L1263.86 429.127L1244.95 430.785L1226.05 433.162L1207.14 436.241L1188.24 439.965L1169.33 444.241L1150.43 448.977L1131.52 454.08L1112.62 459.433L1093.71 464.887L1074.81 470.256L1055.9 475.33L1037 479.886L1018.1 483.706L999.19 486.597L980.286 488.406L961.381 489.039L942.476 488.468L923.571 486.753L904.667 484.063L885.762 480.648L866.857 476.79L847.952 472.783L829.048 468.896L810.143 465.358L791.238 462.339L772.333 459.934L753.429 458.161L734.524 456.963L715.619 456.214L696.714 455.642L677.81 455.072L658.905 454.246L640 453.103L621.095 451.634L602.191 449.882L583.286 447.944L564.381 445.961L545.476 444.106L526.571 442.576L507.667 441.571L488.762 441.289L469.857 441.907L450.952 443.571L432.048 446.395L413.143 450.42L394.238 455.608L375.333 461.818L356.429 468.836L337.524 476.389L318.619 484.16L299.714 491.811L280.81 499.008L261.905 505.437L243 510.823L224.095 514.936L205.191 517.612L186.286 518.78L167.381 518.472L148.476 516.806L129.571 513.976L110.667 510.23L91.762 505.86L72.8572 501.182L53.9524 496.521L35.0477 492.192L16.1429 488.483L-2.76184 485.636L-21.6666 483.83L-40.5714 483.17L-59.4761 483.672L-78.3809 485.264L-97.2856 487.779L-116.19 490.967L-135.095 494.508" stroke="#D1EDF7" stroke-miterlimit="10"/>
<path d="M1434 411.78L1415.1 411.758L1396.19 411.511L1377.29 411.122L1358.38 410.702L1339.48 410.376L1320.57 410.277L1301.67 410.533L1282.76 411.262L1263.86 412.557L1244.95 414.483L1226.05 417.07L1207.14 420.303L1188.24 424.128L1169.33 428.475L1150.43 433.279L1131.52 438.458L1112.62 443.899L1093.71 449.447L1074.81 454.911L1055.9 460.072L1037 464.701L1018.1 468.571L999.19 471.484L980.286 473.282L961.381 473.868L942.476 473.211L923.571 471.362L904.667 468.473L885.762 464.783L866.857 460.579L847.952 456.16L829.048 451.808L810.143 447.769L791.238 444.227L772.333 441.295L753.429 439.009L734.524 437.324L715.619 436.131L696.714 435.125L677.81 434.153L658.905 432.966L640 431.509L621.095 429.773L602.191 427.805L583.286 425.702L564.381 423.603L545.476 421.679L526.571 420.12L507.667 419.124L488.762 418.88L469.857 419.562L450.952 421.315L432.048 424.237L413.143 428.383L394.238 433.717L375.333 440.111L356.429 447.355L337.524 455.179L318.619 463.27L299.714 471.293L280.81 478.908L261.905 485.799L243 491.677L224.095 496.3L205.191 499.485L186.286 501.143L167.381 501.283L148.476 499.999L129.571 497.461L110.667 493.896L91.762 489.58L72.8572 484.822L53.9524 479.942L35.0477 475.26L16.1429 471.075L-2.76184 467.649L-21.6666 465.187L-40.5714 463.824L-59.4761 463.611L-78.3809 464.509L-97.2857 466.384L-116.19 469.01L-135.095 472.083" stroke="#D1EDF7" stroke-miterlimit="10"/>
<path d="M1434 390.717L1415.1 391.331L1396.19 391.708L1377.29 391.919L1358.38 392.065L1339.48 392.259L1320.57 392.628L1301.67 393.295L1282.76 394.373L1263.86 395.954L1244.95 398.104L1226.05 400.854L1207.14 404.195L1188.24 408.075L1169.33 412.477L1150.43 417.339L1131.52 422.595L1112.62 428.13L1093.71 433.785L1074.81 439.359L1055.9 444.625L1037 449.343L1018.1 453.282L999.19 456.236L980.286 458.046L961.381 458.608L942.476 457.892L923.571 455.942L904.667 452.893L885.762 448.972L866.857 444.464L847.952 439.673L829.048 434.894L810.143 430.384L791.238 426.342L772.333 422.899L753.429 420.103L734.524 417.927L715.619 416.275L696.714 414.8L677.81 413.388L658.905 411.801L640 409.985L621.095 407.937L602.191 405.706L583.286 403.39L564.381 401.127L545.476 399.085L526.571 397.451L507.667 396.415L488.762 396.164L469.857 396.866L450.952 398.662L432.048 401.654L413.143 405.889L394.238 411.342L375.333 417.897L356.429 425.347L337.524 433.424L318.619 441.819L299.714 450.197L280.81 458.219L261.905 465.56L243 471.924L224.095 477.054L205.191 480.749L186.286 482.903L167.381 483.499L148.476 482.609L129.571 480.376L110.667 477.01L91.762 472.771L72.8572 467.954L53.9524 462.879L35.0477 457.867L16.1429 453.231L-2.76184 449.248L-21.6666 446.149L-40.5714 444.097L-59.4761 443.176L-78.3809 443.379L-97.2857 444.603L-116.19 446.645L-135.095 449.22" stroke="#D1EDF7" stroke-miterlimit="10"/>
<path d="M1434 369.814L1415.1 371.074L1396.19 372.077L1377.29 372.882L1358.38 373.577L1339.48 374.267L1320.57 375.072L1301.67 376.11L1282.76 377.491L1263.86 379.309L1244.95 381.631L1226.05 384.493L1207.14 387.89L1188.24 391.805L1169.33 396.221L1150.43 401.13L1131.52 406.461L1112.62 412.096L1093.71 417.867L1074.81 423.565L1055.9 428.95L1037 433.775L1018.1 437.8L999.19 440.815L980.286 442.655L961.381 443.218L942.476 442.468L923.571 440.448L904.667 437.277L885.762 433.169L866.857 428.403L847.952 423.286L829.048 418.12L810.143 413.174L791.238 408.66L772.333 404.722L753.429 401.424L734.524 398.754L715.619 396.486L696.714 394.658L677.81 392.774L658.905 390.751L640 388.538L621.095 386.137L602.191 383.6L583.286 381.026L564.381 378.553L545.476 376.347L526.571 374.591L507.667 373.47L488.762 373.166L469.857 373.844L450.952 375.64L432.048 378.656L413.143 382.942L394.238 388.482L375.333 395.166L356.429 402.794L337.524 411.099L318.619 419.776L299.714 428.49L280.81 436.901L261.905 444.679L243 451.519L224.095 457.149L205.191 461.354L186.286 464.006L167.381 465.066L148.476 464.581L129.571 462.672L110.667 459.525L91.762 455.386L72.8572 450.539L53.9524 445.299L35.0477 439.992L16.1429 434.937L-2.76184 430.43L-21.6666 426.723L-40.5714 424.008L-59.4761 422.397L-78.3809 421.915L-97.2857 422.484L-116.19 423.929L-135.095 425.988" stroke="#D1EDF7" stroke-miterlimit="10"/>
<path d="M1434 349.147L1415.1 351.055L1396.19 352.676L1377.29 354.058L1358.38 355.276L1339.48 356.428L1320.57 357.627L1301.67 358.988L1282.76 360.62L1263.86 362.619L1244.95 365.056L1226.05 367.972L1207.14 371.37L1188.24 375.274L1169.33 379.69L1150.43 384.633L1131.52 390.034L1112.62 395.77L1093.71 401.664L1074.81 407.494L1055.9 413.012L1037 417.958L1018.1 422.087L999.19 425.181L980.286 427.073L961.381 427.658L942.476 426.901L923.571 424.839L904.667 421.583L885.762 417.332L866.857 412.355L847.952 406.96L829.048 401.451L810.143 396.106L791.238 391.15L772.333 386.739L753.429 382.951L734.524 379.789L715.619 377.038L696.714 374.687L677.81 372.306L658.905 369.817L640 367.175L621.095 364.386L602.191 361.504L583.286 358.632L564.381 355.907L545.476 353.494L526.571 351.572L507.667 350.323L488.762 349.923L469.857 350.532L450.952 352.283L432.048 355.278L413.143 359.571L394.238 365.152L375.333 371.924L356.429 379.693L337.524 388.195L318.619 397.125L299.714 406.151L280.81 414.931L261.905 423.129L243 430.431L224.095 436.552L205.191 441.261L186.286 444.412L167.381 445.943L148.476 445.875L129.571 444.306L110.667 441.403L91.762 437.392L72.8572 432.549L53.9524 427.182L35.0477 421.62L16.1429 416.189L-2.76184 411.2L-21.6666 406.926L-40.5714 403.582L-59.4761 401.309L-78.3809 400.157L-97.2857 400.078L-116.19 400.925L-135.095 402.457" stroke="#D1EDF7" stroke-miterlimit="10"/>
<path d="M1434 328.787L1415.1 331.335L1396.19 333.558L1377.29 335.49L1358.38 337.196L1339.48 338.768L1320.57 340.311L1301.67 341.939L1282.76 343.763L1263.86 345.881L1244.95 348.371L1226.05 351.28L1207.14 354.621L1188.24 358.482L1169.33 362.874L1150.43 367.833L1131.52 373.294L1112.62 379.128L1093.71 385.147L1074.81 391.118L1055.9 396.778L1037 401.86L1018.1 406.108L999.19 409.301L980.286 411.266L961.381 411.896L942.476 411.155L923.571 409.078L904.667 405.774L885.762 401.422L866.857 396.283L847.952 390.657L829.048 384.851L810.143 379.149L791.238 373.784L772.333 368.924L753.429 364.66L734.524 361.01L715.619 357.765L696.714 354.875L677.81 351.979L658.905 349.002L640 345.905L621.095 342.699L602.191 339.442L583.286 336.237L564.381 333.225L545.476 330.566L526.571 328.439L507.667 327.02L488.762 326.482L469.857 326.979L450.952 328.642L432.048 331.572L413.143 335.822L394.238 341.392L375.333 348.199L356.429 356.063L337.524 364.722L318.619 373.872L299.714 383.18L280.81 392.302L261.905 400.899L243 408.644L224.095 415.243L205.191 420.45L186.286 424.099L167.381 426.105L148.476 426.466L129.571 425.255L110.667 422.62L91.762 418.77L72.8572 413.969L53.9524 408.52L35.0477 402.749L16.1429 396.992L-2.76184 391.572L-21.6666 386.778L-40.5714 382.848L-59.4761 379.947L-78.3809 378.152L-97.2857 377.443L-116.19 377.699L-135.095 378.705" stroke="#D1EDF7" stroke-miterlimit="10"/>
<path d="M1434 308.8L1415.1 311.97L1396.19 314.769L1377.29 317.216L1358.38 319.368L1339.48 321.307L1320.57 323.138L1301.67 324.972L1282.76 326.924L1263.86 329.096L1244.95 331.572L1226.05 334.412L1207.14 337.635L1188.24 341.425L1169.33 345.764L1150.43 350.721L1131.52 356.229L1112.62 362.154L1093.71 368.297L1074.81 374.412L1055.9 380.224L1037 385.452L1018.1 389.835L999.19 393.144L980.286 395.204L961.381 395.903L942.476 395.204L923.571 393.14L904.667 389.818L885.762 385.408L866.857 380.152L847.952 374.344L829.048 368.289L810.143 362.272L791.238 356.534L772.333 351.251L753.429 346.527L734.524 342.396L715.619 338.649L696.714 335.214L677.81 331.791L658.905 328.311L640 324.742L621.095 321.098L602.191 317.441L583.286 313.878L564.381 310.546L545.476 307.61L526.571 305.241L507.667 303.615L488.762 302.899L469.857 303.244L450.952 304.777L432.048 307.595L413.143 311.755L394.238 317.259L375.333 324.043L356.429 331.946L337.524 340.714L318.619 350.041L299.714 359.594L280.81 369.028L261.905 377.995L243 386.162L224.095 393.221L205.191 398.916L186.286 403.058L167.381 405.543L148.476 406.343L129.571 405.51L110.667 403.17L91.762 399.516L72.8572 394.799L53.9524 389.314L35.0477 383.389L16.1429 377.363L-2.76184 371.567L-21.6666 366.308L-40.5714 361.842L-59.4761 358.355L-78.3809 355.952L-97.2857 354.639L-116.19 354.322L-135.095 354.811" stroke="#D1EDF7" stroke-miterlimit="10"/>
<path d="M1434 289.24L1415.1 293.006L1396.19 296.345L1377.29 299.265L1358.38 301.812L1339.48 304.063L1320.57 306.12L1301.67 308.095L1282.76 310.106L1263.86 312.263L1244.95 314.659L1226.05 317.364L1207.14 320.409L1188.24 324.104L1169.33 328.361L1150.43 333.293L1131.52 338.832L1112.62 344.836L1093.71 351.097L1074.81 357.356L1055.9 363.324L1037 368.71L1018.1 373.241L999.19 376.685L980.286 378.861L961.381 379.655L942.476 379.024L923.571 377.002L904.667 373.692L885.762 369.26L866.857 363.934L847.952 357.992L829.048 351.734L810.143 345.445L791.238 339.369L772.333 333.692L753.429 328.528L734.524 323.927L715.619 319.673L696.714 315.692L677.81 311.74L658.905 307.752L640 303.702L621.095 299.607L602.191 295.535L583.286 291.593L564.381 287.92L545.476 284.678L526.571 282.038L507.667 280.172L488.762 279.242L469.857 279.396L450.952 280.756L432.048 283.417L413.143 287.436L394.238 292.822L375.333 299.526L356.429 307.408L337.524 316.226L318.619 325.68L299.714 335.435L280.81 345.141L261.905 354.446L243 363.007L224.095 370.506L205.191 376.672L186.286 381.301L167.381 384.265L148.476 385.514L129.571 385.077L110.667 383.06L91.762 379.638L72.8572 375.05L53.9524 369.582L35.0477 363.56L16.1429 357.324L-2.76184 351.214L-21.6666 345.549L-40.5714 340.602L-59.4761 336.581L-78.3809 333.614L-97.2857 331.733L-116.19 330.869L-135.095 330.856" stroke="#D1EDF7" stroke-miterlimit="10"/>
<path d="M1434 270.152L1415.1 274.478L1396.19 278.315L1377.29 281.658L1358.38 284.544L1339.48 287.046L1320.57 289.262L1301.67 291.31L1282.76 293.31L1263.86 295.383L1244.95 297.632L1226.05 300.138L1207.14 302.947L1188.24 306.521L1169.33 310.668L1150.43 315.549L1131.52 321.098L1112.62 327.167L1093.71 333.537L1074.81 339.936L1055.9 346.064L1037 351.616L1018.1 356.309L999.19 359.904L980.286 362.218L961.381 363.131L942.476 362.598L923.571 360.647L904.667 357.38L885.762 352.961L866.857 347.604L847.952 341.574L829.048 335.158L810.143 328.64L791.238 322.263L772.333 316.221L753.429 310.638L734.524 305.578L715.619 300.819L696.714 296.302L677.81 291.826L658.905 287.334L640 282.803L621.095 278.255L602.191 273.761L583.286 269.428L564.381 265.398L545.476 261.83L526.571 258.895L507.667 256.759L488.762 255.583L469.857 255.508L450.952 256.653L432.048 259.111L413.143 262.939L394.238 268.156L375.333 274.725L356.429 282.527L337.524 291.338L318.619 300.862L299.714 310.767L280.81 320.701L261.905 330.303L243 339.224L224.095 347.135L205.191 353.754L186.286 358.858L167.381 362.298L148.476 364.003L129.571 363.979L110.667 362.312L91.762 359.16L72.8572 354.746L53.9524 349.349L35.0477 343.288L16.1429 336.906L-2.76184 330.547L-21.6666 324.54L-40.5714 319.174L-59.4761 314.676L-78.3809 311.196L-97.2857 308.789L-116.19 307.412L-135.095 306.923" stroke="#D1EDF7" stroke-miterlimit="10"/>
<path d="M1434 251.57L1415.1 256.411L1396.19 260.696L1377.29 264.406L1358.38 267.571L1339.48 270.257L1320.57 272.566L1301.67 274.615L1282.76 276.535L1263.86 278.454L1244.95 280.49L1226.05 282.736L1207.14 285.465L1188.24 288.685L1169.33 292.689L1150.43 297.493L1131.52 303.029L1112.62 309.144L1093.71 315.61L1074.81 322.143L1055.9 328.43L1037 334.154L1018.1 339.022L999.19 342.786L980.286 345.259L961.381 346.317L942.476 345.911L923.571 344.064L904.667 340.872L885.762 336.495L866.857 331.145L847.952 325.067L829.048 318.538L810.143 311.83L791.238 305.189L772.333 298.811L753.429 292.83L734.524 287.228L715.619 282.072L696.714 277.035L677.81 272.051L658.905 267.067L640 262.065L621.095 257.071L602.191 252.156L583.286 247.431L564.381 243.035L545.476 239.129L526.571 235.879L507.667 233.45L488.762 231.997L469.857 231.657L450.952 232.545L432.048 234.754L413.143 238.345L394.238 243.343L375.333 249.724L356.429 257.389L337.524 266.135L318.619 275.674L299.714 285.675L280.81 295.785L261.905 305.639L243 314.879L224.095 323.17L205.191 330.215L186.286 335.778L167.381 339.688L148.476 341.852L129.571 342.257L110.667 340.965L91.762 338.118L72.8572 333.923L53.9524 328.65L35.0477 322.611L16.1429 316.146L-2.76184 309.605L-21.6666 303.325L-40.5714 297.606L-59.4761 292.694L-78.3809 288.757L-97.2857 285.874L-116.19 284.025L-135.095 283.091" stroke="#D1EDF7" stroke-miterlimit="10"/>
<path d="M1434 233.519L1415.1 238.819L1396.19 243.495L1377.29 247.511L1358.38 250.889L1339.48 253.693L1320.57 256.024L1301.67 258.005L1282.76 259.776L1263.86 261.476L1244.95 263.236L1226.05 265.164L1207.14 267.62L1188.24 270.605L1169.33 274.436L1150.43 279.134L1131.52 284.632L1112.62 290.772L1093.71 297.319L1074.81 303.976L1055.9 310.42L1037 316.321L1018.1 321.374L999.19 325.324L980.286 327.976L961.381 329.205L942.476 328.954L923.571 327.242L904.667 324.158L885.762 319.857L866.857 314.544L847.952 308.456L829.048 301.851L810.143 294.993L791.238 288.122L772.333 281.436L753.429 275.082L734.524 269.074L715.619 263.418L696.714 257.886L677.81 252.417L658.905 246.964L640 241.51L621.095 236.084L602.191 230.76L583.286 225.648L564.381 220.888L545.476 216.636L526.571 213.059L507.667 210.316L488.762 208.558L469.857 207.919L450.952 208.513L432.048 210.431L413.143 213.74L394.238 218.472L375.333 224.615L356.429 232.089L337.524 240.714L318.619 250.212L299.714 260.255L280.81 270.488L261.905 280.543L243 290.058L224.095 298.689L205.191 306.131L186.286 312.129L167.381 316.498L148.476 319.121L129.571 319.964L110.667 319.069L91.762 316.559L72.8572 312.627L53.9524 307.529L35.0477 301.57L16.1429 295.089L-2.76185 288.435L-21.6666 281.951L-40.5714 275.95L-59.4761 270.69L-78.3809 266.359L-97.2857 263.055L-116.19 260.78L-135.095 259.437" stroke="#D1EDF7" stroke-miterlimit="10"/>
<path d="M1434 216.009L1415.1 221.707L1396.19 226.706L1377.29 230.953L1358.38 234.454L1339.48 237.265L1320.57 239.492L1301.67 241.272L1282.76 242.762L1263.86 244.126L1244.95 245.517L1226.05 247.065L1207.14 249.233L1188.24 251.99L1169.33 255.673L1150.43 260.3L1131.52 265.796L1112.62 271.991L1093.71 278.637L1074.81 285.428L1055.9 292.032L1037 298.113L1018.1 303.362L999.19 307.514L980.286 310.366L961.381 311.788L942.476 311.721L923.571 310.174L904.667 307.231L885.762 303.039L866.857 297.793L847.952 291.724L829.048 285.078L810.143 278.103L791.238 271.033L772.333 264.067L753.429 257.358L734.524 250.953L715.619 244.826L696.714 238.83L677.81 232.909L658.905 227.019L640 221.145L621.095 215.317L602.191 209.607L583.286 204.125L564.381 199.008L545.476 194.412L526.571 190.499L507.667 187.425L488.762 185.339L469.857 184.371L450.952 184.636L432.048 186.226L413.143 189.212L394.238 193.634L375.333 199.493L356.429 206.725L337.524 215.175L318.619 224.577L299.714 234.605L280.81 244.907L261.905 255.113L243 264.855L224.095 273.784L205.191 281.585L186.286 287.993L167.381 292.801L148.476 295.877L129.571 297.163L110.667 296.683L91.762 294.539L72.8572 290.909L53.9524 286.036L35.0477 280.216L16.1429 273.781L-2.76185 267.083L-21.6666 260.468L-40.5714 254.255L-59.4761 248.718L-78.3809 244.059L-97.2857 240.394L-116.19 237.744L-135.095 236.034" stroke="#D1EDF7" stroke-miterlimit="10"/>
<path d="M1434 199.045L1415.1 205.066L1396.19 210.312L1377.29 214.714L1358.38 218.269L1339.48 221.034L1320.57 223.118L1301.67 224.666L1282.76 225.851L1263.86 226.85L1244.95 227.836L1226.05 228.958L1207.14 230.789L1188.24 233.258L1169.33 236.725L1150.43 241.215L1131.52 246.652L1112.62 252.86L1093.71 259.582L1074.81 266.499L1055.9 273.266L1037 279.538L1018.1 284.993L999.19 289.361L980.286 292.433L961.381 294.071L942.476 294.211L923.571 292.859L904.667 290.087L885.762 286.033L866.857 280.885L847.952 274.862L829.048 268.2L810.143 261.135L791.238 253.889L772.333 246.663L753.429 239.62L734.524 232.83L715.619 226.268L696.714 219.847L677.81 213.516L658.905 207.23L640 200.977L621.095 194.785L602.191 188.723L583.286 182.898L564.381 177.442L545.476 172.509L526.571 168.257L507.667 164.842L488.762 162.409L469.857 161.089L450.952 160.996L432.048 162.225L413.143 164.851L394.238 168.924L375.333 174.455L356.429 181.4L337.524 189.624L318.619 198.875L299.714 208.835L280.81 219.151L261.905 229.452L243 239.37L224.095 248.55L205.191 256.671L186.286 263.455L167.381 268.682L148.476 272.199L129.571 273.928L110.667 273.874L91.762 272.121L72.8572 268.828L53.9524 264.224L35.0477 258.594L16.1429 252.267L-2.76185 245.589L-21.6666 238.912L-40.5714 232.562L-59.4761 226.821L-78.3809 221.905L-97.2857 217.945L-116.19 214.98L-135.095 212.951" stroke="#D1EDF7" stroke-miterlimit="10"/>
<path d="M1434 182.613L1415.1 188.876L1396.19 194.275L1377.29 198.734L1358.38 202.246L1339.48 204.869L1320.57 206.718L1301.67 207.952L1282.76 208.756L1263.86 209.328L1244.95 209.857L1226.05 210.512L1207.14 211.985L1188.24 214.148L1169.33 217.386L1150.43 221.73L1131.52 227.103L1112.62 233.324L1093.71 240.125L1074.81 247.178L1055.9 254.122L1037 260.598L1018.1 266.276L999.19 270.875L980.286 274.183L961.381 276.058L942.476 276.429L923.571 275.296L904.667 272.721L885.762 268.834L866.857 263.808L847.952 257.854L829.048 251.196L810.143 244.062L791.238 236.665L772.333 229.202L753.429 221.848L734.524 214.697L715.619 207.744L696.714 200.944L677.81 194.247L658.905 187.612L640 181.024L621.095 174.509L602.191 168.132L583.286 161.994L564.381 156.223L545.476 150.968L526.571 146.383L507.667 142.623L488.762 139.834L469.857 138.144L450.952 137.671L432.048 138.511L413.143 140.747L394.238 144.435L375.333 149.601L356.429 156.216L337.524 164.166L318.619 173.215L299.714 183.052L280.81 193.326L261.905 203.669L243 213.711L224.095 223.093L205.191 231.488L186.286 238.612L167.381 244.228L148.476 248.168L129.571 250.336L110.667 250.715L91.762 249.369L72.8572 246.44L53.9524 242.14L35.0477 236.747L16.1429 230.58L-2.76185 223.986L-21.6666 217.315L-40.5714 210.901L-59.4761 205.032L-78.3809 199.935L-97.2857 195.754L-116.19 192.54L-135.095 190.25" stroke="#D1EDF7" stroke-miterlimit="10"/>
<path d="M1434 166.684L1415.1 173.095L1396.19 178.55L1377.29 182.966L1358.38 186.336L1339.48 188.722L1320.57 190.249L1301.67 191.09L1282.76 191.447L1263.86 191.535L1244.95 191.564L1226.05 191.719L1207.14 192.819L1188.24 194.661L1169.33 197.658L1150.43 201.847L1131.52 207.151L1112.62 213.384L1093.71 220.269L1074.81 227.466L1055.9 234.601L1037 241.3L1018.1 247.22L999.19 252.07L980.286 255.63L961.381 257.758L942.476 258.38L923.571 257.487L904.667 255.133L885.762 251.434L866.857 246.552L847.952 240.685L829.048 234.047L810.143 226.855L791.238 219.322L772.333 211.642L753.429 204L734.524 196.517L715.619 189.222L696.714 182.092L677.81 175.082L658.905 168.149L640 161.278L621.095 154.488L602.191 147.84L583.286 141.429L564.381 135.376L545.476 129.823L526.571 124.921L507.667 120.823L488.762 117.673L469.857 115.605L450.952 114.735L432.048 115.167L413.143 116.986L394.238 120.262L375.333 125.03L356.429 131.277L337.524 138.908L318.619 147.706L299.714 157.367L280.81 167.545L261.905 177.874L243 187.984L224.095 197.516L205.191 206.139L186.286 213.56L167.381 219.533L148.476 223.874L129.571 226.468L110.667 227.278L91.762 226.345L72.8572 223.796L53.9524 219.829L35.0477 214.71L16.1429 208.753L-2.76185 202.301L-21.6666 195.705L-40.5714 189.301L-59.4761 183.384L-78.3809 178.186L-97.2857 173.86L-116.19 170.47L-135.095 167.984" stroke="#D1EDF7" stroke-miterlimit="10"/>
<path d="M1434 151.205L1415.1 157.668L1396.19 163.08L1377.29 167.354L1358.38 170.485L1339.48 172.546L1320.57 173.671L1301.67 174.049L1282.76 173.899L1263.86 173.455L1244.95 172.948L1226.05 172.868L1207.14 173.294L1188.24 174.803L1169.33 177.55L1150.43 181.576L1131.52 186.806L1112.62 193.05L1093.71 200.022L1074.81 207.372L1055.9 214.711L1037 221.651L1018.1 227.833L999.19 232.955L980.286 236.787L961.381 239.184L942.476 240.071L923.571 239.435L904.667 237.32L885.762 233.827L866.857 229.105L847.952 223.338L829.048 216.729L810.143 209.489L791.238 201.827L772.333 193.944L753.429 186.033L734.524 178.257L715.619 170.668L696.714 163.263L677.81 155.996L658.905 148.823L640 141.725L621.095 134.716L602.191 127.849L583.286 121.211L564.381 114.917L545.476 109.1L526.571 103.907L507.667 99.4851L488.762 95.9822L469.857 93.5334L450.952 92.2592L432.048 92.2677L413.143 93.6533L394.238 96.493L375.333 100.835L356.429 106.682L337.524 113.954L318.619 122.454L299.714 131.888L280.81 141.916L261.905 152.176L243 162.301L224.095 171.929L205.191 180.728L186.286 188.4L167.381 194.692L148.476 199.405L129.571 202.403L110.667 203.629L91.762 203.107L72.8572 200.945L53.9524 197.33L35.0477 192.518L16.1429 186.815L-2.76185 180.562L-21.6666 174.108L-40.5714 167.79L-59.4761 161.903L-78.3809 156.687L-97.2857 152.299L-116.19 148.81L-135.095 146.197" stroke="#D1EDF7" stroke-miterlimit="10"/>
<path d="M1434 136.113L1415.1 142.531L1396.19 147.801L1377.29 151.838L1358.38 154.642L1339.48 156.296L1320.57 156.948L1301.67 156.802L1282.76 156.096L1263.86 155.085L1244.95 154.017L1226.05 153.418L1207.14 153.432L1188.24 154.6L1169.33 157.087L1150.43 160.943L1131.52 166.094L1112.62 172.346L1093.71 179.407L1074.81 186.915L1055.9 194.468L1037 201.664L1018.1 208.127L999.19 213.542L980.286 217.666L961.381 220.348L942.476 221.512L923.571 221.144L904.667 219.28L885.762 216.005L866.857 211.453L847.952 205.795L829.048 199.223L810.143 191.94L791.238 184.156L772.333 176.079L753.429 167.926L734.524 159.889L715.619 152.058L696.714 144.432L677.81 136.967L658.905 129.616L640 122.353L621.095 115.185L602.191 108.157L583.286 101.347L564.381 94.8588L545.476 88.8194L526.571 83.3675L507.667 78.6485L488.762 74.8078L469.857 71.9851L450.952 70.307L432.048 69.8869L413.143 70.8273L394.238 73.2144L375.333 77.1085L356.429 82.5246L337.524 89.402L318.619 97.5622L299.714 106.721L280.81 116.547L261.905 126.684L243 136.767L224.095 146.437L205.191 155.358L186.286 163.234L167.381 169.801L148.476 174.847L129.571 178.216L110.667 179.834L91.762 179.709L72.8572 177.934L53.9524 174.685L35.0477 170.206L16.1429 164.799L-2.76185 158.799L-21.6666 152.552L-40.5714 146.393L-59.4761 140.619L-78.3809 135.467L-97.2857 131.1L-116.19 127.592L-135.095 124.926" stroke="#D1EDF7" stroke-miterlimit="10"/>
<path d="M1434 121.331L1415.1 127.609L1396.19 132.644L1377.29 136.356L1358.38 138.753L1339.48 139.929L1320.57 140.047L1301.67 139.328L1282.76 138.03L1263.86 136.426L1244.95 134.785L1226.05 133.664L1207.14 133.261L1188.24 134.081L1169.33 136.303L1150.43 139.984L1131.52 145.049L1112.62 151.305L1093.71 158.453L1074.81 166.12L1055.9 173.895L1037 181.357L1018.1 188.117L999.19 193.842L980.286 198.278L961.381 201.259L942.476 202.71L923.571 202.617L904.667 201.009L885.762 197.957L866.857 193.58L847.952 188.034L829.048 181.501L810.143 174.18L791.238 166.281L772.333 158.024L753.429 149.651L734.524 141.395L715.619 133.369L696.714 125.578L677.81 117.975L658.905 110.508L640 103.145L621.095 95.8842L602.191 88.7582L583.286 81.8344L564.381 75.2076L545.476 68.9943L526.571 63.3259L507.667 58.3431L488.762 54.1902L469.857 51.0098L450.952 48.9361L432.048 48.0895L413.143 48.5799L394.238 50.5032L375.333 53.9312L356.429 58.8928L337.524 65.3442L318.619 73.1254L299.714 81.9647L280.81 91.5395L261.905 101.501L243 111.487L224.095 121.143L205.191 130.134L186.286 138.159L167.381 144.951L148.476 150.28L129.571 153.979L110.667 155.957L91.762 156.208L72.8572 154.813L53.9524 151.935L35.0477 147.813L16.1429 142.738L-2.76185 137.042L-21.6666 131.066L-40.5714 125.139L-59.4761 119.556L-78.3809 114.553L-97.2857 110.291L-116.19 106.844L-135.095 104.199" stroke="#D1EDF7" stroke-miterlimit="10"/>
<path d="M1434 106.775L1415.1 112.823L1396.19 117.539L1377.29 120.847L1358.38 122.768L1339.48 123.406L1320.57 122.943L1301.67 121.615L1282.76 119.701L1263.86 117.493L1244.95 115.277L1226.05 113.64L1207.14 112.82L1188.24 113.291L1169.33 115.244L1150.43 118.742L1131.52 123.716L1112.62 129.97L1093.71 137.199L1074.81 145.025L1055.9 153.021L1037 160.755L1018.1 167.821L999.19 173.869L980.286 178.629L961.381 181.925L942.476 183.669L923.571 183.852L904.667 182.5L885.762 179.671L866.857 175.468L847.952 170.033L829.048 163.54L810.143 156.183L791.238 148.178L772.333 139.76L753.429 131.2L734.524 122.767L715.619 114.593L696.714 106.689L677.81 99.0059L658.905 91.4875L640 84.0908L621.095 76.803L602.191 69.6453L583.286 62.672L564.381 55.9662L545.476 49.6338L526.571 43.7975L507.667 38.5926L488.762 34.161L469.857 30.6475L450.952 28.1935L432.048 26.9281L413.143 26.9694L394.238 28.4233L375.333 31.3733L356.429 35.8622L337.524 41.8622L318.619 49.2311L299.714 57.7103L280.81 66.9875L261.905 76.7216L243 86.558L224.095 96.145L205.191 105.15L186.286 113.268L167.381 120.225L148.476 125.782L129.571 129.76L110.667 132.059L91.762 132.658L72.8572 131.627L53.9524 129.123L35.0477 125.374L16.1429 120.666L-2.76185 115.321L-21.6666 109.676L-40.5714 104.052L-59.4761 98.7383L-78.3809 93.9649L-97.2857 89.8892L-116.19 86.5837L-135.095 84.0344" stroke="#D1EDF7" stroke-miterlimit="10"/>
<path d="M1434 92.3539L1415.1 98.0913L1396.19 102.412L1377.29 105.251L1358.38 106.638L1339.48 106.693L1320.57 105.614L1301.67 103.658L1282.76 101.118L1263.86 98.3073L1244.95 95.5261L1226.05 93.3876L1207.14 92.1557L1188.24 92.2801L1169.33 93.9621L1150.43 97.2735L1131.52 102.148L1112.62 108.39L1093.71 115.693L1074.81 123.669L1055.9 131.882L1037 139.887L1018.1 147.261L999.19 153.638L980.286 158.731L961.381 162.347L942.476 164.392L923.571 164.847L904.667 163.743L885.762 161.13L866.857 157.095L847.952 151.768L829.048 145.313L810.143 137.925L791.238 129.826L772.333 121.273L753.429 112.568L734.524 104.003L715.619 95.7285L696.714 87.7615L677.81 80.0556L658.905 72.5465L640 65.1815L621.095 57.9347L602.191 50.8133L583.286 43.8572L564.381 37.1363L545.476 30.7443L526.571 24.7939L507.667 19.4127L488.762 14.7399L469.857 10.9223L450.952 8.10802L432.048 6.43697L413.143 6.03646L394.238 7.02239L375.333 9.48996L356.429 13.4955L337.524 19.0262L318.619 25.956L299.714 34.0403L280.81 42.9777L261.905 52.4368L243 62.0712L224.095 71.5349L205.191 80.4964L186.286 88.6453L167.381 95.7021L148.476 101.425L129.571 105.628L110.667 108.2L91.762 109.112L72.8572 108.428L53.9524 106.293L35.0477 102.93L16.1429 98.6176L-2.76185 93.669L-21.6666 88.4105L-40.5714 83.1565L-59.4761 78.1858L-78.3809 73.7208L-97.2857 69.9115L-116.19 66.825L-135.095 64.4447" stroke="#D1EDF7" stroke-miterlimit="10"/>
</g>
</svg>
