<svg width="160" height="160" viewBox="0 0 160 160" fill="none" xmlns="http://www.w3.org/2000/svg">
<circle cx="80" cy="80" r="80" fill="#EAEAEA"/>
<path d="M80 67.9381C76.7 67.9381 73.875 66.7631 71.525 64.4131C69.175 62.0631 68 59.2381 68 55.9381C68 52.638 69.175 49.813 71.525 47.463C73.875 45.113 76.7 43.938 80 43.938C83.3 43.938 86.125 45.113 88.475 47.463C90.825 49.813 92 52.638 92 55.9381C92 59.2381 90.825 62.0631 88.475 64.4131C86.125 66.7631 83.3 67.9381 80 67.9381ZM52 96.8612V90.2765C52 88.6252 52.4808 87.0804 53.4423 85.6419C54.4038 84.2034 55.6974 83.0868 57.3231 82.2919C61.0974 80.4816 64.8743 79.1239 68.6538 78.2188C72.4333 77.3137 76.2154 76.8611 80 76.8611C83.7846 76.8611 87.5667 77.3137 91.3462 78.2188C95.1257 79.1239 98.9026 80.4816 102.677 82.2919C104.303 83.0868 105.596 84.2034 106.558 85.6419C107.519 87.0804 108 88.6252 108 90.2765V96.8612H52ZM56 92.8611H104V90.2765C104 89.3894 103.714 88.556 103.142 87.7765C102.57 86.997 101.779 86.3381 100.769 85.7996C97.4769 84.2047 94.0824 82.9829 90.5856 82.1342C87.0889 81.2855 83.5603 80.8611 80 80.8611C76.4397 80.8611 72.9111 81.2855 69.4144 82.1342C65.9176 82.9829 62.5231 84.2047 59.2308 85.7996C58.2205 86.3381 57.4295 86.997 56.8577 87.7765C56.2859 88.556 56 89.3894 56 90.2765V92.8611ZM80 63.9381C82.2 63.9381 84.0833 63.1548 85.65 61.5881C87.2167 60.0214 88 58.1381 88 55.9381C88 53.7381 87.2167 51.8548 85.65 50.2881C84.0833 48.7214 82.2 47.9381 80 47.9381C77.8 47.9381 75.9167 48.7214 74.35 50.2881C72.7833 51.8548 72 53.7381 72 55.9381C72 58.1381 72.7833 60.0214 74.35 61.5881C75.9167 63.1548 77.8 63.9381 80 63.9381Z" fill="#BCBCBC"/>
</svg>
