<svg width="24" height="24" viewBox="0 0 24 24" fill="none" xmlns="http://www.w3.org/2000/svg">
<mask id="mask0_644_12803" style="mask-type:alpha" maskUnits="userSpaceOnUse" x="0" y="0" width="24" height="24">
<rect width="24" height="24" fill="#D9D9D9"/>
</mask>
<g mask="url(#mask0_644_12803)">
<path d="M8.8103 21.8655L7.0257 18.8578L3.63725 18.1155L3.96802 14.627L1.67188 12.0001L3.96802 9.37322L3.63725 5.88477L7.0257 5.14247L8.8103 2.13477L11.9988 3.48862L15.1872 2.13477L16.9718 5.14247L20.3603 5.88477L20.0295 9.37322L22.3256 12.0001L20.0295 14.627L20.3603 18.1155L16.9718 18.8578L15.1872 21.8654L11.9988 20.5116L8.8103 21.8655ZM9.44875 19.9501L11.9988 18.8693L14.5795 19.9501L15.9988 17.5501L18.7488 16.9193L18.4988 14.1001L20.3488 12.0001L18.4988 9.86934L18.7488 7.05012L15.9988 6.45012L14.5488 4.05012L11.9988 5.13089L9.41797 4.05012L7.99875 6.45012L5.24875 7.05012L5.49875 9.86934L3.64875 12.0001L5.49875 14.1001L5.24875 16.9501L7.99875 17.5501L9.44875 19.9501ZM10.9488 15.2039L16.2526 9.90012L15.1988 8.81552L10.9488 13.0655L8.79875 10.9463L7.74492 12.0001L10.9488 15.2039Z" fill="#F26C5D"/>
</g>
</svg>
