<svg width="30" height="31" viewBox="0 0 30 31" fill="none" xmlns="http://www.w3.org/2000/svg">
<mask id="mask0_644_12738" style="mask-type:alpha" maskUnits="userSpaceOnUse" x="0" y="0" width="30" height="31">
<rect y="0.5" width="30" height="30" fill="#D9D9D9"/>
</mask>
<g mask="url(#mask0_644_12738)">
<path d="M5 18C5 15.8125 5.52083 13.8646 6.5625 12.1563C7.60417 10.4479 8.75 9.01042 10 7.84375C11.25 6.67708 12.3958 5.78646 13.4375 5.17188L15 4.25V8.375C15 9.14583 15.2604 9.75521 15.7812 10.2031C16.3021 10.651 16.8854 10.875 17.5313 10.875C17.8854 10.875 18.224 10.8021 18.5469 10.6562C18.8698 10.5104 19.1667 10.2708 19.4375 9.9375L20 9.25C21.5 10.125 22.7083 11.3385 23.625 12.8906C24.5417 14.4427 25 16.1458 25 18C25 19.8333 24.5521 21.5052 23.6562 23.0156C22.7604 24.526 21.5833 25.7188 20.125 26.5938C20.4792 26.0938 20.7552 25.5469 20.9531 24.9531C21.151 24.3594 21.25 23.7292 21.25 23.0625C21.25 22.2292 21.0938 21.4427 20.7812 20.7031C20.4688 19.9635 20.0208 19.3021 19.4375 18.7188L15 14.375L10.5938 18.7188C9.98958 19.3229 9.53125 19.9896 9.21875 20.7188C8.90625 21.4479 8.75 22.2292 8.75 23.0625C8.75 23.7292 8.84896 24.3594 9.04688 24.9531C9.24479 25.5469 9.52083 26.0938 9.875 26.5938C8.41667 25.7188 7.23958 24.526 6.34375 23.0156C5.44792 21.5052 5 19.8333 5 18ZM15 17.875L17.6562 20.4688C18.0104 20.8229 18.2813 21.2188 18.4688 21.6562C18.6563 22.0938 18.75 22.5625 18.75 23.0625C18.75 24.0833 18.3854 24.9531 17.6562 25.6719C16.9271 26.3906 16.0417 26.75 15 26.75C13.9583 26.75 13.0729 26.3906 12.3438 25.6719C11.6146 24.9531 11.25 24.0833 11.25 23.0625C11.25 22.5833 11.3438 22.1198 11.5312 21.6719C11.7188 21.224 11.9896 20.8229 12.3438 20.4688L15 17.875Z" fill="#F26C5D"/>
</g>
</svg>
