<svg version="1.1" xmlns="http://www.w3.org/2000/svg" xmlns:xlink="http://www.w3.org/1999/xlink">

    <symbol viewBox="0 0 47 16" id="logo">
        <path d="M9.56 10.1H2.84V10.88C2.84 12.44 3.57333 13.22 5.04 13.22C5.6 13.22 6.04667 13.1267 6.38 12.94C6.71333 12.74 6.92667 12.4533 7.02 12.08H9.5C9.31333 13.0267 8.81333 13.7867 8 14.36C7.18667 14.92 6.19333 15.2 5.02 15.2C4.08667 15.2 3.27333 15.02 2.58 14.66C1.9 14.3 1.37333 13.8 1 13.16C0.626667 12.5067 0.44 11.7467 0.44 10.88V8.12C0.44 7.25333 0.626667 6.5 1 5.86C1.37333 5.20667 1.90667 4.7 2.6 4.34C3.29333 3.98 4.1 3.8 5.02 3.8C5.94 3.8 6.74 3.98 7.42 4.34C8.1 4.7 8.62667 5.20667 9 5.86C9.37333 6.5 9.56 7.25333 9.56 8.12V10.1ZM2.84 8.54L7.16 8.5V8.1C7.16 7.32667 6.98 6.74 6.62 6.34C6.26 5.94 5.72667 5.74 5.02 5.74C4.3 5.74 3.75333 5.94667 3.38 6.36C3.02 6.76 2.84 7.34667 2.84 8.12V8.54ZM21.3522 9.56H12.6322V7.24H21.3522V9.56ZM24.5244 15V0.4H29.3844C30.3444 0.4 31.191 0.586666 31.9244 0.96C32.6577 1.33333 33.2244 1.86 33.6244 2.54C34.0244 3.22 34.2244 4.00667 34.2244 4.9C34.2244 5.79333 34.0244 6.58 33.6244 7.26C33.2244 7.94 32.6577 8.46667 31.9244 8.84C31.191 9.21333 30.3444 9.4 29.3844 9.4H27.0244V15H24.5244ZM29.3844 7.16C30.0777 7.16 30.631 6.95333 31.0444 6.54C31.471 6.12667 31.6844 5.58 31.6844 4.9C31.6844 4.20667 31.4777 3.66 31.0644 3.26C30.651 2.84667 30.091 2.64 29.3844 2.64H27.0244V7.16H29.3844ZM36.4966 15V0.4H41.1166C42.0766 0.4 42.9166 0.58 43.6366 0.94C44.3699 1.3 44.9299 1.80667 45.3166 2.46C45.7166 3.11333 45.9166 3.87333 45.9166 4.74C45.9166 5.7 45.6766 6.54667 45.1966 7.28C44.7166 8.01333 44.0566 8.53333 43.2166 8.84L46.1166 15H43.3166L40.7766 9.2H38.9966V15H36.4966ZM41.1166 7.02C41.8099 7.02 42.3566 6.82667 42.7566 6.44C43.1699 6.04 43.3766 5.5 43.3766 4.82C43.3766 4.12667 43.1699 3.58 42.7566 3.18C42.3566 2.78 41.8099 2.58 41.1166 2.58H38.9966V7.02H41.1166Z" fill="#0E2A3C" />
    </symbol>

    <symbol viewBox="0 0 7 6" id="nav-arrow">
        <path d="M3.5 6L0.468911 0.750001L6.53109 0.75L3.5 6Z" />
    </symbol>

    <symbol viewBox="0 0 17 10" id="nav-arrow-mobile">
        <path d="M1 0.999999L8.5 8.5L16 1" stroke-width="2" stroke-linecap="round" stroke-linejoin="round" />
    </symbol>

    <symbol viewBox="0 0 20 20" id="icon-search">
        <path fill-rule="evenodd" clip-rule="evenodd" d="M9.1665 1.6665C13.3086 1.6665 16.6665 5.02437 16.6665 9.1665C16.6665 10.9372 16.0529 12.5645 15.0268 13.8475L18.0891 16.9106C18.4145 17.236 18.4145 17.7637 18.0891 18.0891C17.7887 18.3895 17.316 18.4126 16.9891 18.1584L16.9106 18.0891L13.8475 15.0268C12.5645 16.0529 10.9372 16.6665 9.1665 16.6665C5.02437 16.6665 1.6665 13.3086 1.6665 9.1665C1.6665 5.02437 5.02437 1.6665 9.1665 1.6665ZM9.1665 3.33317C5.94484 3.33317 3.33317 5.94484 3.33317 9.1665C3.33317 12.3882 5.94484 14.9998 9.1665 14.9998C12.3882 14.9998 14.9998 12.3882 14.9998 9.1665C14.9998 5.94484 12.3882 3.33317 9.1665 3.33317Z" />
    </symbol>

    <symbol viewBox="0 0 15 14" id="header-search-close">
        <path d="M14.6562 1.41L13.2463 0L7.65625 5.59L2.06625 0L0.65625 1.41L6.24625 7L0.65625 12.59L2.06625 14L7.65625 8.41L13.2463 14L14.6562 12.59L9.06625 7L14.6562 1.41Z" />
    </symbol>

    <symbol viewBox="0 0 20 20" id="icon-cart">
        <path fill-rule="evenodd" clip-rule="evenodd" d="M7.08317 15.8332C7.77353 15.8332 8.33317 16.3928 8.33317 17.0832C8.33317 17.7735 7.77353 18.3332 7.08317 18.3332C6.39281 18.3332 5.83317 17.7735 5.83317 17.0832C5.83317 16.3928 6.39281 15.8332 7.08317 15.8332ZM14.5832 15.8332C15.2735 15.8332 15.8332 16.3928 15.8332 17.0832C15.8332 17.7735 15.2735 18.3332 14.5832 18.3332C13.8928 18.3332 13.3332 17.7735 13.3332 17.0832C13.3332 16.3928 13.8928 15.8332 14.5832 15.8332ZM2.49984 1.6665H4.1665C4.54617 1.6665 4.87343 1.9222 4.97072 2.28129L4.99015 2.37312L5.39426 4.99984H17.4998C17.9996 4.99984 18.3789 5.43374 18.3291 5.91679L18.3133 6.01395L16.9367 12.2088C16.6936 13.3029 15.7547 14.0951 14.6481 14.1619L14.4962 14.1665H7.26304C6.07846 14.1665 5.06398 13.3368 4.81871 12.1914L4.79211 12.0466L3.45157 3.33317H2.49984C2.0396 3.33317 1.6665 2.96007 1.6665 2.49984C1.6665 2.07247 1.9882 1.72025 2.40265 1.67211L2.49984 1.6665H4.1665H2.49984ZM16.461 6.6665H5.65067L6.43939 11.7932C6.49712 12.1685 6.79961 12.453 7.16931 12.4946L7.26303 12.4998H14.4962C14.8542 12.4998 15.1682 12.2719 15.2834 11.9402L15.3097 11.8473L16.461 6.6665Z" />
    </symbol>

    <symbol viewBox="0 0 20 20" id="icon-user">
        <path fill-rule="evenodd" clip-rule="evenodd" d="M5.83317 13.3332H14.1665C16.4677 13.3332 18.3332 15.1987 18.3332 17.4998C18.3332 17.9601 17.9601 18.3332 17.4998 18.3332C17.0725 18.3332 16.7202 18.0115 16.6721 17.597L16.6623 17.3529C16.589 16.0892 15.5771 15.0773 14.3134 15.0041L14.1665 14.9998H5.83317C4.45246 14.9998 3.33317 16.1191 3.33317 17.4998C3.33317 17.9601 2.96007 18.3332 2.49984 18.3332C2.0396 18.3332 1.6665 17.9601 1.6665 17.4998C1.6665 15.2592 3.43509 13.4317 5.65243 13.337L5.83317 13.3332H14.1665H5.83317ZM9.99984 1.6665C12.7613 1.6665 14.9998 3.90508 14.9998 6.6665C14.9998 9.42793 12.7613 11.6665 9.99984 11.6665C7.23841 11.6665 4.99984 9.42793 4.99984 6.6665C4.99984 3.90508 7.23841 1.6665 9.99984 1.6665ZM9.99984 3.33317C8.15889 3.33317 6.6665 4.82555 6.6665 6.6665C6.6665 8.50745 8.15889 9.99984 9.99984 9.99984C11.8408 9.99984 13.3332 8.50745 13.3332 6.6665C13.3332 4.82555 11.8408 3.33317 9.99984 3.33317Z" />
    </symbol>

    <symbol viewBox="0 0 40 11" id="arrow-btn">
        <path d="M39.495 5.99497C39.7683 5.72161 39.7683 5.27839 39.495 5.00503L35.0402 0.550252C34.7668 0.276886 34.3236 0.276886 34.0503 0.550252C33.7769 0.82362 33.7769 1.26684 34.0503 1.5402L38.0101 5.5L34.0503 9.4598C33.7769 9.73316 33.7769 10.1764 34.0503 10.4497C34.3236 10.7231 34.7668 10.7231 35.0402 10.4497L39.495 5.99497ZM0 6.2H39V4.8H0V6.2Z" />
    </symbol>

    <symbol viewBox="0 0 16 9" id="arrow-faq">
        <path fill-rule="evenodd" clip-rule="evenodd" d="M16 1.30016C16 1.50495 15.9129 1.70974 15.7396 1.86573L8.62855 8.26541C8.281 8.5782 7.71923 8.5782 7.37168 8.26541L0.260663 1.86573C-0.0868877 1.55295 -0.0868877 1.04737 0.260663 0.734588C0.608214 0.421804 1.16998 0.421804 1.51753 0.734588L8.00011 6.5687L14.4827 0.734588C14.8302 0.421804 15.392 0.421804 15.7396 0.734588C15.9129 0.89058 16 1.09537 16 1.30016Z" />
    </symbol>

    <symbol viewBox="0 0 8 12" id="gallery-prev">
        <path d="M7 1L2 6L7 11" stroke-width="2" />
    </symbol>

    <symbol viewBox="0 0 8 12" id="gallery-next">
        <path d="M1 11L6 6L0.999999 1" stroke-width="2" />
    </symbol>

    <symbol viewBox="0 0 29 29" id="social-fb">
        <path d="M28.5386 14.7693C28.5386 6.88775 22.1509 0.5 14.2693 0.5C6.38775 0.5 0 6.88775 0 14.7693C0 21.8928 5.21722 27.7957 12.0397 28.8659V18.894H8.41667V14.7693H12.0397V11.6256C12.0397 8.04992 14.169 6.07395 17.4298 6.07395C18.9905 6.07395 20.6236 6.35265 20.6236 6.35265V9.86424H18.8232C17.0507 9.86424 16.4989 10.9651 16.4989 12.0938V14.7693H20.4564L19.8238 18.894H16.4989V28.8659C23.3214 27.7957 28.5386 21.8928 28.5386 14.7693Z" />
    </symbol>

    <symbol viewBox="0 0 30 30" id="social-instagram">
        <path fill-rule="evenodd" clip-rule="evenodd" d="M15.0896 0.5C7.20891 0.5 0.820312 6.88859 0.820312 14.7693C0.820312 22.6501 7.20891 29.0386 15.0896 29.0386C22.9704 29.0386 29.359 22.6501 29.359 14.7693C29.359 6.88859 22.9704 0.5 15.0896 0.5ZM11.9531 7.20507C12.7649 7.16813 13.0242 7.15909 15.0911 7.15909H15.0887C17.1562 7.15909 17.4146 7.16813 18.2264 7.20507C19.0366 7.24217 19.5899 7.37044 20.0751 7.55864C20.5761 7.75286 20.9994 8.01288 21.4228 8.43621C21.8461 8.85922 22.1061 9.28382 22.3011 9.78436C22.4882 10.2683 22.6167 10.8213 22.6547 11.6315C22.6912 12.4432 22.7007 12.7026 22.7007 14.7695C22.7007 16.8363 22.6912 17.0951 22.6547 17.9069C22.6167 18.7167 22.4882 19.2699 22.3011 19.754C22.1061 20.2543 21.8461 20.6789 21.4228 21.102C20.9999 21.5253 20.576 21.7859 20.0756 21.9803C19.5914 22.1685 19.0377 22.2968 18.2275 22.3339C17.4157 22.3708 17.1572 22.3799 15.0901 22.3799C13.0234 22.3799 12.7642 22.3708 11.9524 22.3339C11.1424 22.2968 10.5892 22.1685 10.105 21.9803C9.6048 21.7859 9.1802 21.5253 8.75735 21.102C8.33418 20.6789 8.07416 20.2543 7.87962 19.7538C7.69158 19.2699 7.56331 18.7169 7.52605 17.9067C7.48927 17.0949 7.48007 16.8363 7.48007 14.7695C7.48007 12.7026 7.48959 12.4431 7.52589 11.6313C7.56236 10.8214 7.69078 10.2683 7.87946 9.7842C8.07448 9.28382 8.3345 8.85922 8.75782 8.43621C9.18083 8.01304 9.60543 7.75302 10.106 7.55864C10.5899 7.37044 11.1429 7.24217 11.9531 7.20507Z" />
        <path fill-rule="evenodd" clip-rule="evenodd" d="M14.4068 8.53096C14.5394 8.53075 14.682 8.53081 14.8359 8.53088L15.0895 8.53096C17.1215 8.53096 17.3623 8.53825 18.1647 8.57472C18.9068 8.60864 19.3095 8.73263 19.5777 8.8368C19.9329 8.97474 20.1861 9.13963 20.4523 9.40599C20.7187 9.67235 20.8836 9.92603 21.0218 10.2812C21.126 10.5491 21.2501 10.9519 21.2839 11.6939C21.3204 12.4961 21.3283 12.7371 21.3283 14.7681C21.3283 16.7992 21.3204 17.0402 21.2839 17.8424C21.25 18.5844 21.126 18.9871 21.0218 19.2551C20.8839 19.6102 20.7187 19.8631 20.4523 20.1293C20.1859 20.3957 19.9331 20.5606 19.5777 20.6985C19.3098 20.8032 18.9068 20.9268 18.1647 20.9608C17.3625 20.9972 17.1215 21.0052 15.0895 21.0052C13.0574 21.0052 12.8165 20.9972 12.0143 20.9608C11.2723 20.9265 10.8696 20.8025 10.6011 20.6984C10.246 20.5604 9.9923 20.3955 9.72594 20.1292C9.45958 19.8628 9.29468 19.6098 9.15643 19.2545C9.05226 18.9865 8.92812 18.5838 8.89435 17.8418C8.85788 17.0395 8.85059 16.7985 8.85059 14.7662C8.85059 12.7339 8.85788 12.4942 8.89435 11.692C8.92828 10.9499 9.05226 10.5472 9.15643 10.279C9.29437 9.92381 9.45958 9.67013 9.72594 9.40377C9.9923 9.13741 10.246 8.97252 10.6011 8.83426C10.8694 8.72962 11.2723 8.60595 12.0143 8.57186C12.7163 8.54015 12.9884 8.53064 14.4068 8.52905V8.53096ZM19.1524 9.79407C18.6482 9.79407 18.2391 10.2027 18.2391 10.707C18.2391 11.2112 18.6482 11.6202 19.1524 11.6202C19.6566 11.6202 20.0656 11.2112 20.0656 10.707C20.0656 10.2028 19.6566 9.79376 19.1524 9.79376V9.79407ZM11.1824 14.769C11.1824 12.6107 12.9322 10.8608 15.0905 10.8608C17.2488 10.8608 18.9982 12.6107 18.9982 14.769C18.9982 16.9273 17.249 18.6765 15.0906 18.6765C12.9323 18.6765 11.1824 16.9273 11.1824 14.769Z" />
        <path d="M15.089 12.2324C16.49 12.2324 17.6258 13.3681 17.6258 14.7692C17.6258 16.1702 16.49 17.306 15.089 17.306C13.6879 17.306 12.5522 16.1702 12.5522 14.7692C12.5522 13.3681 13.6879 12.2324 15.089 12.2324Z" />
    </symbol>

    <symbol viewBox="0 0 30 30" id="social-twitter">
        <path fill-rule="evenodd" clip-rule="evenodd" d="M14.9104 0.5C7.02971 0.5 0.641113 6.88859 0.641113 14.7693C0.641113 22.6501 7.02971 29.0386 14.9104 29.0386C22.7912 29.0386 29.1798 22.6501 29.1798 14.7693C29.1798 6.88859 22.7912 0.5 14.9104 0.5ZM14.5124 12.593L14.4825 12.0992C14.3927 10.8195 15.1812 9.65061 16.4288 9.19717C16.8879 9.03594 17.6665 9.01579 18.1755 9.15686C18.3751 9.21732 18.7544 9.41885 19.0239 9.60023L19.513 9.93276L20.0519 9.76145C20.3514 9.67077 20.7506 9.51962 20.9303 9.41885C21.1 9.32816 21.2497 9.27778 21.2497 9.30801C21.2497 9.47931 20.8804 10.0638 20.571 10.3862C20.1517 10.8396 20.2715 10.88 21.1199 10.5777C21.629 10.4064 21.6389 10.4064 21.5391 10.5978C21.4792 10.6986 21.1698 11.0513 20.8404 11.3737C20.2815 11.9279 20.2516 11.9884 20.2516 12.4519C20.2516 13.1673 19.9122 14.6587 19.5728 15.4749C18.944 17.0065 17.5966 18.5885 16.2491 19.3846C14.3527 20.5031 11.8275 20.7852 9.70154 20.1302C8.99288 19.9085 7.77519 19.3442 7.77519 19.2435C7.77519 19.2133 8.14449 19.1729 8.59364 19.1629C9.53186 19.1427 10.4701 18.8807 11.2686 18.4172L11.8076 18.0948L11.1887 17.8832C10.3104 17.5809 9.52188 16.8856 9.32226 16.2306C9.26237 16.019 9.28234 16.0089 9.84128 16.0089L10.4202 15.9988L9.93111 15.7671C9.3522 15.4749 8.8232 14.9811 8.5637 14.4773C8.37406 14.1145 8.13451 13.1976 8.20438 13.127C8.22434 13.0968 8.43394 13.1573 8.67349 13.2379C9.36218 13.4898 9.45201 13.4293 9.05277 13.0061C8.30419 12.2403 8.07462 11.1016 8.43394 10.0234L8.60362 9.53977L9.26237 10.1947C10.6098 11.5148 12.1968 12.3007 14.0134 12.5325L14.5124 12.593Z" />
    </symbol>

    <symbol viewBox="0 0 29 30" id="social-linkedin">
        <path fill-rule="evenodd" clip-rule="evenodd" d="M14.7307 0.5C6.85002 0.5 0.461426 6.88859 0.461426 14.7693C0.461426 22.6501 6.85002 29.0386 14.7307 29.0386C22.6115 29.0386 29.0001 22.6501 29.0001 14.7693C29.0001 6.88859 22.6115 0.5 14.7307 0.5ZM7.3118 12.3192H10.5455V22.0352H7.3118V12.3192ZM10.7589 9.3128C10.7379 8.36015 10.0567 7.63455 8.95044 7.63455C7.8442 7.63455 7.12098 8.36015 7.12098 9.3128C7.12098 10.2457 7.82282 10.9922 8.90847 10.9922H8.92913C10.0567 10.9922 10.7589 10.2457 10.7589 9.3128ZM18.4852 12.091C20.6132 12.091 22.2085 13.48 22.2085 16.4643L22.2084 22.0352H18.9748V16.8371C18.9748 15.5315 18.5068 14.6405 17.3362 14.6405C16.4428 14.6405 15.9107 15.2411 15.6769 15.8213C15.5914 16.0292 15.5705 16.3188 15.5705 16.6092V22.0355H12.3363C12.3363 22.0355 12.379 13.2311 12.3363 12.3194H15.5705V13.6956C15.9996 13.034 16.7683 12.091 18.4852 12.091Z" />
    </symbol>

    <symbol viewBox="0 0 28 28" id="social-g10">
        <path fill-rule="evenodd" clip-rule="evenodd" d="M13.9388 24.9044C14.1359 20.9083 14.5646 18.7436 16.3167 16.9493C18.5253 14.7929 21.2945 14.6413 27.3495 14.4584C27.3489 19.9117 27.3299 24.0008 25.3727 26.005C23.3677 27.9636 19.4627 27.9814 13.8259 27.9814C13.8392 27.5408 13.8523 27.1175 13.8661 26.7106C13.8878 26.0692 13.911 25.4685 13.9388 24.9044ZM13.5236 27.9814C7.88703 27.9814 3.98135 27.9636 1.97643 26.005C0.0189185 24.0008 0 19.9117 0 14.4584C6.05524 14.6413 8.82427 14.7929 11.0329 16.9493C12.5574 18.5105 13.0799 20.3522 13.3198 23.4366C13.3768 24.1698 13.4179 24.9732 13.4526 25.8598C13.4785 26.5192 13.5008 27.2247 13.5236 27.9814ZM16.3167 11.6649C18.5253 13.822 21.2945 13.9731 27.3495 14.1561C27.3489 8.70303 27.3299 4.61405 25.3727 2.60959C23.3677 0.651892 19.4627 0.633204 13.8259 0.632748C13.8373 1.01115 13.8486 1.37671 13.8603 1.7301C13.9312 3.87747 14.016 5.57553 14.2261 6.9735C14.5347 9.02721 15.1138 10.4333 16.3167 11.6649ZM0.000445146 14.1561C6.05538 13.9731 8.8241 13.8219 11.0326 11.6649C13.1893 9.45699 13.3409 6.68825 13.5237 0.632748C7.88731 0.633204 3.98175 0.651939 1.97665 2.60959C0.0191698 4.61405 0.000445694 8.70302 0.000445146 14.1561Z" />
    </symbol>

    <symbol viewBox="0 0 30 29" id="social-monogram">
        <path fill-rule="evenodd" clip-rule="evenodd" d="M29.1729 14.3084C29.1729 22.1891 22.7843 28.5777 14.9036 28.5777C7.02287 28.5777 0.634277 22.1891 0.634277 14.3084C0.634277 6.42766 7.02287 0.0390625 14.9036 0.0390625C22.7843 0.0390625 29.1729 6.42766 29.1729 14.3084ZM7.40824 9.0968C7.58263 9.25767 7.6717 9.49392 7.64806 9.73295V18.3391C7.69981 18.6496 7.60418 18.9667 7.39047 19.1934L5.39197 21.6744V22.0015H11.0588V21.6744L9.06033 19.1934C8.84506 18.9671 8.74351 18.6521 8.78498 18.3391V10.8962L13.759 22.0015H14.3364L18.6087 10.8962V19.7478C18.6087 19.984 18.6087 20.0295 18.4577 20.184L16.9211 21.7107V22.0379H24.3822V21.7107L22.8989 20.2203C22.7679 20.1182 22.703 19.9503 22.7301 19.7841V8.83325C22.703 8.66708 22.7679 8.49919 22.8989 8.39703L24.4177 6.90663V6.57946H19.1594L15.4111 16.149L11.1477 6.57946H5.63179V6.90663L7.40824 9.0968Z" />
    </symbol>

    <symbol viewBox="0 0 29 29" id="social-telegram">
        <path fill-rule="evenodd" clip-rule="evenodd" d="M28.9932 14.3084C28.9932 22.1891 22.6046 28.5777 14.7239 28.5777C6.84318 28.5777 0.45459 22.1891 0.45459 14.3084C0.45459 6.42766 6.84318 0.0390625 14.7239 0.0390625C22.6046 0.0390625 28.9932 6.42766 28.9932 14.3084ZM10.0083 13.0017C8.57889 13.6258 7.11018 14.2671 5.76718 15.0068L5.76708 15.007C5.06582 15.5204 5.99794 15.8835 6.87234 16.2242C7.01135 16.2784 7.14891 16.332 7.27821 16.3855C7.3858 16.4186 7.49522 16.4534 7.60609 16.4887C8.57859 16.7986 9.66299 17.1441 10.6071 16.6243C12.1581 15.7334 13.6217 14.7034 15.0842 13.6742C15.5634 13.3369 16.0424 12.9998 16.5244 12.6677C16.5469 12.6533 16.5724 12.6367 16.6003 12.6187C17.0109 12.3525 17.9342 11.754 17.5927 12.5787C16.785 13.462 15.9199 14.2439 15.0501 15.03C14.4639 15.5599 13.8755 16.0916 13.3012 16.6576C12.8009 17.0641 12.2815 17.8814 12.8417 18.4506C14.1318 19.3537 15.4421 20.235 16.7516 21.1157C17.1777 21.4024 17.6038 21.6889 18.029 21.9762C18.7498 22.5516 19.8761 22.0861 20.0346 21.187C20.1051 20.7733 20.1758 20.3597 20.2465 19.9461C20.6375 17.6602 21.0286 15.3735 21.3741 13.0802C21.4211 12.7205 21.4743 12.3608 21.5276 12.0009C21.6566 11.1286 21.7859 10.2552 21.8262 9.37826C21.7222 8.50311 20.6611 8.69553 20.0705 8.89232C17.0352 10.0473 14.0302 11.2879 11.0371 12.5504C10.698 12.7006 10.3543 12.8507 10.0083 13.0017Z" />
    </symbol>

    <symbol viewBox="0 0 25 32" id="file-icon">
        <path d="M13.5503 1.0625C13.6829 1.0625 13.8101 1.11518 13.9039 1.20895L24.1244 11.4294C24.2181 11.5232 24.2708 11.6504 24.2708 11.783V28.35C24.2708 29.0363 23.9982 29.6944 23.5129 30.1796C23.0277 30.6649 22.3695 30.9375 21.6833 30.9375H3.1583C2.47205 30.9375 1.81391 30.6649 1.32866 30.1796C0.843411 29.6944 0.570801 29.0363 0.570801 28.35V3.65C0.570801 2.96375 0.843412 2.30561 1.32866 1.82036C1.81391 1.33511 2.47205 1.0625 3.1583 1.0625H13.5503Z" stroke-linecap="round" stroke-linejoin="round" />
        <path d="M13.9644 2.1062V10.3687C13.9644 10.921 14.4121 11.3687 14.9644 11.3687H23.2269" stroke-linecap="round" stroke-linejoin="round" />
    </symbol>

    <symbol viewBox="0 0 33 34" id="file-image">
        <path d="M26.125 4.625H6.875C5.35622 4.625 4.125 5.85622 4.125 7.375V26.625C4.125 28.1438 5.35622 29.375 6.875 29.375H26.125C27.6438 29.375 28.875 28.1438 28.875 26.625V7.375C28.875 5.85622 27.6438 4.625 26.125 4.625Z" stroke-linecap="round" stroke-linejoin="round" />
        <path d="M11.6875 14.25C12.8266 14.25 13.75 13.3266 13.75 12.1875C13.75 11.0484 12.8266 10.125 11.6875 10.125C10.5484 10.125 9.625 11.0484 9.625 12.1875C9.625 13.3266 10.5484 14.25 11.6875 14.25Z" stroke-linecap="round" stroke-linejoin="round" />
        <path d="M28.875 21.125L22 14.25L6.875 29.375" stroke-linecap="round" stroke-linejoin="round" />
    </symbol>

    <symbol viewBox="0 0 8 14" id="pager-prev">
        <path d="M7 1L1 7L7 13" stroke-width="2" stroke-linecap="round" stroke-linejoin="round" />
    </symbol>

    <symbol viewBox="0 0 8 14" id="pager-next">
        <path d="M1 13.0002L7 7.00024L0.999999 1.00024" stroke-width="2" stroke-linecap="round" stroke-linejoin="round" />
    </symbol>

    <symbol viewBox="0 0 24 24" id="icon-info">
        <path fill-rule="evenodd" clip-rule="evenodd" d="M12 2C17.5228 2 22 6.47715 22 12C22 17.5228 17.5228 22 12 22C6.47715 22 2 17.5228 2 12C2 6.47715 6.47715 2 12 2ZM12 4C7.58172 4 4 7.58172 4 12C4 16.4183 7.58172 20 12 20C16.4183 20 20 16.4183 20 12C20 7.58172 16.4183 4 12 4ZM12 16C12.5523 16 13 16.4477 13 17C13 17.5523 12.5523 18 12 18C11.4477 18 11 17.5523 11 17C11 16.4477 11.4477 16 12 16ZM12 6C12.5523 6 13 6.44772 13 7V13C13 13.5523 12.5523 14 12 14C11.4477 14 11 13.5523 11 13V7C11 6.44772 11.4477 6 12 6Z" />
    </symbol>

    <symbol viewBox="0 0 126 8" id="main-how-arrow">
        <path d="M125.354 4.35355C125.549 4.15829 125.549 3.84171 125.354 3.64645L122.172 0.464466C121.976 0.269204 121.66 0.269204 121.464 0.464466C121.269 0.659728 121.269 0.976311 121.464 1.17157L124.293 4L121.464 6.82843C121.269 7.02369 121.269 7.34027 121.464 7.53553C121.66 7.7308 121.976 7.7308 122.172 7.53553L125.354 4.35355ZM0 4.5H125V3.5H0V4.5Z" />
    </symbol>

    <symbol viewBox="0 0 40 11" id="main-catalogue-more">
        <path d="M39.495 5.99497C39.7683 5.72161 39.7683 5.27839 39.495 5.00503L35.0402 0.550252C34.7668 0.276886 34.3236 0.276886 34.0503 0.550252C33.7769 0.82362 33.7769 1.26684 34.0503 1.5402L38.0101 5.5L34.0503 9.4598C33.7769 9.73316 33.7769 10.1764 34.0503 10.4497C34.3236 10.7231 34.7668 10.7231 35.0402 10.4497L39.495 5.99497ZM0 6.2H39V4.8H0V6.2Z" />
    </symbol>

    <symbol viewBox="0 0 16 16" id="catalogue-type-cards">
        <rect x="0.75" y="0.75" width="5.5" height="5.5" stroke-width="1.5" />
        <rect x="9.75" y="0.75" width="5.5" height="5.5" stroke-width="1.5" />
        <rect x="0.75" y="9.75" width="5.5" height="5.5" stroke-width="1.5" />
        <rect x="9.75" y="9.75" width="5.5" height="5.5" stroke-width="1.5" />
    </symbol>

    <symbol viewBox="0 0 19 16" id="catalogue-type-rows">
        <rect width="19" height="2" />
        <rect y="4.5" width="19" height="2" />
        <rect y="9" width="19" height="2" />
        <rect y="13.5" width="19" height="2" />
    </symbol>

    <symbol viewBox="0 0 14 8" id="catalogue-pager-size">
        <path d="M1 1L7 7L13 1" stroke-width="2" stroke-linecap="round" stroke-linejoin="round" />
    </symbol>

    <symbol viewBox="0 0 14 15" id="selected">
        <rect y="0.5" width="14" height="14" rx="7" fill="#F26C5D" />
        <path d="M5.83333 9.5L5.41032 9.99352L5.83333 10.3561L6.25635 9.99352L5.83333 9.5ZM6.25635 9.00648L3.92301 7.00648L3.07699 7.99352L5.41032 9.99352L6.25635 9.00648ZM6.25635 9.99352L10.923 5.99352L10.077 5.00648L5.41032 9.00648L6.25635 9.99352Z" fill="white" />
    </symbol>

    <symbol viewBox="0 0 12 7" id="catalogue-filter-arrow">
        <path d="M1 1L6 6L11 1" stroke-width="1.6" stroke-linecap="round" stroke-linejoin="round" />
    </symbol>

    <symbol viewBox="0 0 14 14" id="window-close">
        <path d="M1 1L12.9999 13" stroke-width="2" stroke-linecap="round" stroke-linejoin="round" />
        <path d="M13 1L1.0001 13" stroke-width="2" stroke-linecap="round" stroke-linejoin="round" />
    </symbol>

    <symbol viewBox="0 0 40 40" id="mobile-menu-link">
        <path d="M5 20H35" stroke-width="4" stroke-linecap="round" stroke-linejoin="round" />
        <path d="M5 10H35" stroke-width="4" stroke-linecap="round" stroke-linejoin="round" />
        <path d="M20 30L35 30" stroke-width="4" stroke-linecap="round" stroke-linejoin="round" />
    </symbol>

    <symbol viewBox="0 0 24 24" id="nav-contacts-email">
        <path d="M12 16C14.2091 16 16 14.2091 16 12C16 9.79086 14.2091 8 12 8C9.79086 8 8 9.79086 8 12C8 14.2091 9.79086 16 12 16Z" stroke-width="2" stroke-linecap="round" stroke-linejoin="round" />
        <path d="M16 7.99987V12.9999C16 13.7955 16.3161 14.5586 16.8787 15.1212C17.4413 15.6838 18.2044 15.9999 19 15.9999C19.7957 15.9999 20.5587 15.6838 21.1213 15.1212C21.6839 14.5586 22 13.7955 22 12.9999V11.9999C21.9999 9.7429 21.2362 7.55235 19.8333 5.7844C18.4303 4.01645 16.4706 2.77509 14.2726 2.26217C12.0747 1.74924 9.76794 1.99491 7.72736 2.95923C5.68677 3.92356 4.03241 5.54982 3.03327 7.57359C2.03413 9.59736 1.74898 11.8996 2.22418 14.106C2.69938 16.3124 3.90699 18.2931 5.65064 19.7261C7.39429 21.1592 9.57144 21.9602 11.8281 21.999C14.0847 22.0378 16.2881 21.3121 18.08 19.9399" stroke-width="2" stroke-linecap="round" stroke-linejoin="round" />
    </symbol>

    <symbol viewBox="0 0 24 24" id="nav-contacts-address">
        <path d="M21 10C21 17 12 23 12 23C12 23 3 17 3 10C3 7.61305 3.94821 5.32387 5.63604 3.63604C7.32387 1.94821 9.61305 1 12 1C14.3869 1 16.6761 1.94821 18.364 3.63604C20.0518 5.32387 21 7.61305 21 10Z" stroke-width="2" stroke-linecap="round" stroke-linejoin="round" />
        <path d="M12 13C13.6569 13 15 11.6569 15 10C15 8.34315 13.6569 7 12 7C10.3431 7 9 8.34315 9 10C9 11.6569 10.3431 13 12 13Z" stroke-width="2" stroke-linecap="round" stroke-linejoin="round" />
    </symbol>

    <symbol viewBox="0 0 8 14" id="back-mobile">
        <path d="M7 1L1 7L7 13" stroke-width="1.4" stroke-linecap="round" stroke-linejoin="round" />
    </symbol>

    <symbol viewBox="0 0 24 24" id="main-title-btn">
        <path d="M9 18L15 12L9 6" stroke-width="2" stroke-linecap="round" stroke-linejoin="round" />
    </symbol>

    <symbol viewBox="0 0 23 34" id="catalogue-sort-mobile">
        <path d="M2.00146 22.625L11.3765 32L20.7515 22.625" stroke-width="3" stroke-linecap="round" stroke-linejoin="round" />
        <path d="M20.75 11.375L11.375 2L2 11.375" stroke-width="3" stroke-linecap="round" stroke-linejoin="round" />
    </symbol>

    <symbol viewBox="0 0 37 36" id="catalogue-filter-mobile">
        <path fill-rule="evenodd" clip-rule="evenodd" d="M18.7515 24.0001C20.7108 24.0001 22.3777 25.2523 22.9955 27.0002L32.2515 27.0001C33.0799 27.0001 33.7515 27.6716 33.7515 28.5001C33.7515 29.3285 33.0799 30.0001 32.2515 30.0001L22.9949 30.0014C22.3768 31.7485 20.7103 33.0001 18.7515 33.0001C16.7926 33.0001 15.1261 31.7485 14.508 30.0014L5.25147 30.0001C4.42304 30.0001 3.75146 29.3285 3.75146 28.5001C3.75146 27.6716 4.42304 27.0001 5.25147 27.0001L14.5075 27.0002C15.1252 25.2523 16.7921 24.0001 18.7515 24.0001ZM18.7515 26.9999C17.923 26.9999 17.2515 27.6715 17.2515 28.4999C17.2515 29.3284 17.923 29.9999 18.7515 29.9999C19.5799 29.9999 20.2515 29.3284 20.2515 28.4999C20.2515 27.6715 19.5799 26.9999 18.7515 26.9999ZM29.2515 13.4999C31.7368 13.4999 33.7515 15.5147 33.7515 17.9999C33.7515 20.4852 31.7368 22.4999 29.2515 22.4999C27.2926 22.4999 25.6261 21.2484 25.008 19.5013L5.25147 19.4999C4.42304 19.4999 3.75146 18.8284 3.75146 17.9999C3.75146 17.1715 4.42304 16.4999 5.25147 16.4999L25.0075 16.5001C25.6252 14.7522 27.2921 13.4999 29.2515 13.4999ZM29.2514 16.5C28.423 16.5 27.7514 17.1716 27.7514 18C27.7514 18.8284 28.423 19.5 29.2514 19.5C30.0798 19.5 30.7514 18.8284 30.7514 18C30.7514 17.1716 30.0798 16.5 29.2514 16.5ZM8.25147 3C10.2192 3 11.8919 4.26293 12.5033 6.02243C12.5834 6.00704 12.6666 6 12.7515 6H32.2515C33.0799 6 33.7515 6.67157 33.7515 7.5C33.7515 8.32843 33.0799 9 32.2515 9H12.7515C12.6666 9 12.5834 8.99296 12.5025 8.97943C11.8919 10.7371 10.2192 12 8.25147 12C5.76618 12 3.75146 9.98528 3.75146 7.5C3.75146 5.01472 5.76618 3 8.25147 3ZM8.25153 6.00007C7.4231 6.00007 6.75153 6.67164 6.75153 7.50006C6.75153 8.32849 7.4231 9.00006 8.25153 9.00006C9.07996 9.00006 9.75153 8.32849 9.75153 7.50006C9.75153 6.67164 9.07996 6.00007 8.25153 6.00007Z" />
    </symbol>

    <symbol viewBox="0 0 20 20" id="catalogue-filter-close">
        <rect width="3.47071" height="24.295" rx="1" transform="matrix(0.707113 0.707101 -0.707113 0.707101 17.5459 0)" />
        <rect width="24.295" height="3.47071" rx="1" transform="matrix(0.707113 0.707101 -0.707113 0.707101 2.4541 0.367676)" />
    </symbol>

    <symbol viewBox="0 0 20 20" id="catalogue-filter-group-close">
        <rect width="3.47071" height="24.295" rx="1" transform="matrix(0.707113 0.707101 -0.707113 0.707101 17.5459 0)" />
        <rect width="24.295" height="3.47071" rx="1" transform="matrix(0.707113 0.707101 -0.707113 0.707101 2.4541 0.367676)" />
    </symbol>

    <symbol viewBox="0 0 29 9" id="news-back">
        <path d="M0.646446 4.14645C0.451185 4.34171 0.451185 4.65829 0.646446 4.85355L3.82843 8.03553C4.02369 8.2308 4.34027 8.2308 4.53553 8.03553C4.7308 7.84027 4.7308 7.52369 4.53553 7.32843L1.70711 4.5L4.53553 1.67157C4.7308 1.47631 4.7308 1.15973 4.53553 0.964466C4.34027 0.769204 4.02369 0.769204 3.82843 0.964466L0.646446 4.14645ZM29 4L1 4V5L29 5V4Z" />
    </symbol>

    <symbol viewBox="0 0 20 20" id="btn-doc">
        <path d="M11.6667 1.66602H5.00004C4.55801 1.66602 4.13409 1.84161 3.82153 2.15417C3.50897 2.46673 3.33337 2.89065 3.33337 3.33268V16.666C3.33337 17.108 3.50897 17.532 3.82153 17.8445C4.13409 18.1571 4.55801 18.3327 5.00004 18.3327H15C15.4421 18.3327 15.866 18.1571 16.1786 17.8445C16.4911 17.532 16.6667 17.108 16.6667 16.666V6.66602L11.6667 1.66602Z" stroke-linecap="round" stroke-linejoin="round" />
        <path d="M11.6666 1.66602V6.66602H16.6666" stroke-linecap="round" stroke-linejoin="round" />
        <path d="M13.3333 10.834H6.66663" stroke-linecap="round" stroke-linejoin="round" />
        <path d="M13.3333 14.166H6.66663" stroke-linecap="round" stroke-linejoin="round" />
        <path d="M8.33329 7.5H7.49996H6.66663" stroke-linecap="round" stroke-linejoin="round" />
    </symbol>

    <symbol viewBox="0 0 20 20" id="catalogue-filter-group-params-item-remove">
        <rect width="20" height="20" rx="10" fill="white" stroke="none" />
        <path d="M14 6L6 14" stroke="#F26C5D" fill="none" stroke-width="1.4" stroke-linecap="round" stroke-linejoin="round" />
        <path d="M6 6L14 14" stroke="#F26C5D" fill="none" stroke-width="1.4" stroke-linecap="round" stroke-linejoin="round" />
    </symbol>

    <symbol viewBox="0 0 26 26" id="catalogue-filter-group-params-remove">
        <path d="M13.0001 23.8334C18.9832 23.8334 23.8334 18.9831 23.8334 13C23.8334 7.01694 18.9832 2.16669 13.0001 2.16669C7.017 2.16669 2.16675 7.01694 2.16675 13C2.16675 18.9831 7.017 23.8334 13.0001 23.8334Z" fill="none" stroke="#BBBBBB" stroke-width="2" stroke-linecap="round" stroke-linejoin="round" />
        <path d="M16.25 9.75L9.75 16.25" fill="none" stroke="#BBBBBB" stroke-width="2" stroke-linecap="round" stroke-linejoin="round" />
        <path d="M9.75 9.75L16.25 16.25" fill="none" stroke="#BBBBBB" stroke-width="2" stroke-linecap="round" stroke-linejoin="round" />
    </symbol>

    <symbol viewBox="0 0 32 32" id="up-link">
        <path d="M23.5421 21.6569L25.4277 19.7713L15.9997 10.3433L6.57158 19.7714L8.45719 21.657L15.9997 14.1145L23.5421 21.6569Z" />
    </symbol>

    <symbol viewBox="0 0 28 28" id="catalogue-card-tab-title">
        <path d="M18.9494 12.9333L13.9996 17.883L9.0499 12.9333L10.6998 11.2833L13.9996 14.5832L17.2995 11.2833L18.9494 12.9333Z" />
        <path fill-rule="evenodd" clip-rule="evenodd" d="M26.833 13.9998C26.833 6.91218 21.0873 1.1665 13.9997 1.1665C6.91202 1.1665 1.16634 6.91218 1.16634 13.9998C1.16634 21.0875 6.91202 26.8332 13.9997 26.8332C21.0873 26.8332 26.833 21.0875 26.833 13.9998ZM13.9997 24.4998C19.7987 24.4998 24.4997 19.7988 24.4997 13.9998C24.4997 8.20085 19.7987 3.49984 13.9997 3.49984C8.20069 3.49984 3.49968 8.20085 3.49968 13.9998C3.49968 19.7988 8.20069 24.4998 13.9997 24.4998Z" />
    </symbol>

    <symbol viewBox="0 0 16 16" id="catalogue-card-text-more">
        <path d="M4 6L8 10L12 6" stroke-width="2" stroke-linecap="round" stroke-linejoin="round" />
    </symbol>

    <symbol viewBox="0 0 18 18" id="icon-whatsapp">
        <path d="M4.97118 15.1435L5.24331 15.3041C6.38679 15.9796 7.69777 16.3369 9.03467 16.3376H9.03759C13.1433 16.3376 16.4849 13.012 16.4865 8.92462C16.4871 6.94372 15.7131 5.08133 14.3067 3.68005C12.9002 2.27903 11.0302 1.50693 9.04025 1.5061C4.93139 1.5061 1.5898 4.83121 1.58825 8.91855C1.58771 10.3192 1.98131 11.6833 2.72708 12.8634L2.90434 13.1439L2.15165 15.8794L4.97118 15.1435ZM0 17.9983L1.27143 13.3768C0.487198 12.0242 0.0746338 10.4899 0.0752797 8.91813C0.0771914 4.00067 4.09733 0 9.03777 0C11.4351 0.00102865 13.6853 0.929796 15.3774 2.6156C17.0693 4.30137 18.0008 6.54221 18 8.92533C17.9979 13.8425 13.9769 17.844 9.03777 17.844C9.03741 17.844 9.03795 17.844 9.03777 17.844H9.03394C7.53404 17.8435 6.06022 17.4689 4.75123 16.7582L0 17.9983Z" fill="white" />
        <path d="M0.38382 8.9225C0.383278 10.4397 0.781531 11.921 1.53879 13.2269L0.311279 17.6884L4.8978 16.4912C6.16148 17.1767 7.58424 17.5386 9.03222 17.5391H9.03596C13.8043 17.5391 17.6856 13.6765 17.6877 8.92926C17.6886 6.62866 16.7894 4.4657 15.1558 2.83812C13.5225 1.21077 11.3503 0.314068 9.03557 0.312988C4.26693 0.312988 0.385671 4.17505 0.383605 8.92252L0.38382 8.9225ZM9.03583 17.539H9.03592H9.03583C9.03574 17.539 9.03565 17.539 9.03583 17.539Z" fill="#47D336" />
        <path d="M0.0752797 8.92013C0.0747371 10.4919 0.487301 12.0264 1.27154 13.3788L0 18L4.75108 16.7599C6.06015 17.4706 7.53388 17.8451 9.03379 17.8457H9.03762C13.9768 17.8457 17.9978 13.8442 17.9998 8.92704C18.0007 6.54379 17.0692 4.30301 15.3772 2.61731C13.685 0.931609 11.435 0.00273763 9.03762 0.00170898C4.09744 0.00170898 0.0771956 4.00238 0.0751289 8.91984L0.0752797 8.92013ZM2.90444 13.1458L2.72709 12.8654C1.98132 11.6851 1.58772 10.321 1.58826 8.92051C1.58989 4.83343 4.9314 1.50806 9.04025 1.50806C11.03 1.50884 12.9001 2.28102 14.3067 3.68201C15.7132 5.08311 16.4871 6.94566 16.4866 8.92632C16.4848 13.0137 13.1432 16.3393 9.03743 16.3393H9.03452C7.69765 16.3385 6.38656 15.9813 5.24316 15.3059L4.97103 15.1453L2.15154 15.8811L2.90444 13.1458ZM9.03762 17.8457H9.03771H9.03762C9.03753 17.8457 9.03743 17.8457 9.03762 17.8457Z" fill="#47D336" />
        <path fill-rule="evenodd" clip-rule="evenodd" d="M6.79789 5.19128C6.63011 4.82004 6.45358 4.81261 6.294 4.80608C6.16341 4.80055 6.01404 4.80091 5.86485 4.80091C5.71548 4.80091 5.47288 4.8567 5.26773 5.07977C5.0624 5.30286 4.48389 5.84211 4.48389 6.93883C4.48389 8.03565 5.28644 9.09544 5.39825 9.24431C5.51025 9.39291 6.94747 11.7156 9.22344 12.609C11.1151 13.3516 11.5001 13.2039 11.9107 13.1667C12.3212 13.1296 13.2356 12.6276 13.4221 12.1071C13.6088 11.5866 13.6088 11.1404 13.5528 11.0473C13.4969 10.9544 13.3475 10.8986 13.1236 10.7872C12.8996 10.6757 11.7986 10.1364 11.5934 10.062C11.3881 9.98766 11.2388 9.95055 11.0894 10.1737C10.9402 10.3966 10.5113 10.8986 10.3806 11.0473C10.25 11.1962 10.1193 11.2148 9.89537 11.1033C9.67136 10.9915 8.95012 10.7563 8.09453 9.99701C7.4288 9.40615 6.97939 8.67648 6.8487 8.45329C6.7181 8.23039 6.83476 8.10964 6.94704 7.9985C7.04765 7.89861 7.17105 7.73822 7.28305 7.60812C7.39479 7.47794 7.43206 7.38504 7.5067 7.23635C7.58143 7.08756 7.54407 6.95738 7.48811 6.84587C7.43206 6.73437 6.99688 5.63201 6.79776 5.19121" fill="white" />
    </symbol>

    <symbol viewBox="0 0 14 14" id="sort-dir">
        <path d="M1.75 3.5V4.66667H5.25V3.5H1.75ZM1.75 6.41667V7.58333H8.75V6.41667H1.75ZM1.75 9.33333V10.5H12.25V9.33333H1.75Z" />
    </symbol>

</svg>