<svg version="1.1" xmlns="http://www.w3.org/2000/svg" xmlns:xlink="http://www.w3.org/1999/xlink">

    <symbol viewBox="0 0 47 16" id="logo">
        <path d="M9.56 10.1H2.84V10.88C2.84 12.44 3.57333 13.22 5.04 13.22C5.6 13.22 6.04667 13.1267 6.38 12.94C6.71333 12.74 6.92667 12.4533 7.02 12.08H9.5C9.31333 13.0267 8.81333 13.7867 8 14.36C7.18667 14.92 6.19333 15.2 5.02 15.2C4.08667 15.2 3.27333 15.02 2.58 14.66C1.9 14.3 1.37333 13.8 1 13.16C0.626667 12.5067 0.44 11.7467 0.44 10.88V8.12C0.44 7.25333 0.626667 6.5 1 5.86C1.37333 5.20667 1.90667 4.7 2.6 4.34C3.29333 3.98 4.1 3.8 5.02 3.8C5.94 3.8 6.74 3.98 7.42 4.34C8.1 4.7 8.62667 5.20667 9 5.86C9.37333 6.5 9.56 7.25333 9.56 8.12V10.1ZM2.84 8.54L7.16 8.5V8.1C7.16 7.32667 6.98 6.74 6.62 6.34C6.26 5.94 5.72667 5.74 5.02 5.74C4.3 5.74 3.75333 5.94667 3.38 6.36C3.02 6.76 2.84 7.34667 2.84 8.12V8.54ZM21.3522 9.56H12.6322V7.24H21.3522V9.56ZM24.5244 15V0.4H29.3844C30.3444 0.4 31.191 0.586666 31.9244 0.96C32.6577 1.33333 33.2244 1.86 33.6244 2.54C34.0244 3.22 34.2244 4.00667 34.2244 4.9C34.2244 5.79333 34.0244 6.58 33.6244 7.26C33.2244 7.94 32.6577 8.46667 31.9244 8.84C31.191 9.21333 30.3444 9.4 29.3844 9.4H27.0244V15H24.5244ZM29.3844 7.16C30.0777 7.16 30.631 6.95333 31.0444 6.54C31.471 6.12667 31.6844 5.58 31.6844 4.9C31.6844 4.20667 31.4777 3.66 31.0644 3.26C30.651 2.84667 30.091 2.64 29.3844 2.64H27.0244V7.16H29.3844ZM36.4966 15V0.4H41.1166C42.0766 0.4 42.9166 0.58 43.6366 0.94C44.3699 1.3 44.9299 1.80667 45.3166 2.46C45.7166 3.11333 45.9166 3.87333 45.9166 4.74C45.9166 5.7 45.6766 6.54667 45.1966 7.28C44.7166 8.01333 44.0566 8.53333 43.2166 8.84L46.1166 15H43.3166L40.7766 9.2H38.9966V15H36.4966ZM41.1166 7.02C41.8099 7.02 42.3566 6.82667 42.7566 6.44C43.1699 6.04 43.3766 5.5 43.3766 4.82C43.3766 4.12667 43.1699 3.58 42.7566 3.18C42.3566 2.78 41.8099 2.58 41.1166 2.58H38.9966V7.02H41.1166Z" fill="#0E2A3C" />
    </symbol>

    <symbol viewBox="0 0 7 6" id="nav-arrow">
        <path d="M3.5 6L0.468911 0.750001L6.53109 0.75L3.5 6Z" />
    </symbol>

    <symbol viewBox="0 0 17 10" id="nav-arrow-mobile">
        <path d="M1 0.999999L8.5 8.5L16 1" stroke-width="2" stroke-linecap="round" stroke-linejoin="round" />
    </symbol>

    <symbol viewBox="0 0 20 20" id="icon-search">
        <path fill-rule="evenodd" clip-rule="evenodd" d="M9.1665 1.6665C13.3086 1.6665 16.6665 5.02437 16.6665 9.1665C16.6665 10.9372 16.0529 12.5645 15.0268 13.8475L18.0891 16.9106C18.4145 17.236 18.4145 17.7637 18.0891 18.0891C17.7887 18.3895 17.316 18.4126 16.9891 18.1584L16.9106 18.0891L13.8475 15.0268C12.5645 16.0529 10.9372 16.6665 9.1665 16.6665C5.02437 16.6665 1.6665 13.3086 1.6665 9.1665C1.6665 5.02437 5.02437 1.6665 9.1665 1.6665ZM9.1665 3.33317C5.94484 3.33317 3.33317 5.94484 3.33317 9.1665C3.33317 12.3882 5.94484 14.9998 9.1665 14.9998C12.3882 14.9998 14.9998 12.3882 14.9998 9.1665C14.9998 5.94484 12.3882 3.33317 9.1665 3.33317Z" />
    </symbol>

    <symbol viewBox="0 0 15 14" id="header-search-close">
        <path d="M14.6562 1.41L13.2463 0L7.65625 5.59L2.06625 0L0.65625 1.41L6.24625 7L0.65625 12.59L2.06625 14L7.65625 8.41L13.2463 14L14.6562 12.59L9.06625 7L14.6562 1.41Z" />
    </symbol>

    <symbol viewBox="0 0 20 20" id="icon-cart">
        <path fill-rule="evenodd" clip-rule="evenodd" d="M7.08317 15.8332C7.77353 15.8332 8.33317 16.3928 8.33317 17.0832C8.33317 17.7735 7.77353 18.3332 7.08317 18.3332C6.39281 18.3332 5.83317 17.7735 5.83317 17.0832C5.83317 16.3928 6.39281 15.8332 7.08317 15.8332ZM14.5832 15.8332C15.2735 15.8332 15.8332 16.3928 15.8332 17.0832C15.8332 17.7735 15.2735 18.3332 14.5832 18.3332C13.8928 18.3332 13.3332 17.7735 13.3332 17.0832C13.3332 16.3928 13.8928 15.8332 14.5832 15.8332ZM2.49984 1.6665H4.1665C4.54617 1.6665 4.87343 1.9222 4.97072 2.28129L4.99015 2.37312L5.39426 4.99984H17.4998C17.9996 4.99984 18.3789 5.43374 18.3291 5.91679L18.3133 6.01395L16.9367 12.2088C16.6936 13.3029 15.7547 14.0951 14.6481 14.1619L14.4962 14.1665H7.26304C6.07846 14.1665 5.06398 13.3368 4.81871 12.1914L4.79211 12.0466L3.45157 3.33317H2.49984C2.0396 3.33317 1.6665 2.96007 1.6665 2.49984C1.6665 2.07247 1.9882 1.72025 2.40265 1.67211L2.49984 1.6665H4.1665H2.49984ZM16.461 6.6665H5.65067L6.43939 11.7932C6.49712 12.1685 6.79961 12.453 7.16931 12.4946L7.26303 12.4998H14.4962C14.8542 12.4998 15.1682 12.2719 15.2834 11.9402L15.3097 11.8473L16.461 6.6665Z" />
    </symbol>

    <symbol viewBox="0 0 20 20" id="icon-user">
        <path fill-rule="evenodd" clip-rule="evenodd" d="M5.83317 13.3332H14.1665C16.4677 13.3332 18.3332 15.1987 18.3332 17.4998C18.3332 17.9601 17.9601 18.3332 17.4998 18.3332C17.0725 18.3332 16.7202 18.0115 16.6721 17.597L16.6623 17.3529C16.589 16.0892 15.5771 15.0773 14.3134 15.0041L14.1665 14.9998H5.83317C4.45246 14.9998 3.33317 16.1191 3.33317 17.4998C3.33317 17.9601 2.96007 18.3332 2.49984 18.3332C2.0396 18.3332 1.6665 17.9601 1.6665 17.4998C1.6665 15.2592 3.43509 13.4317 5.65243 13.337L5.83317 13.3332H14.1665H5.83317ZM9.99984 1.6665C12.7613 1.6665 14.9998 3.90508 14.9998 6.6665C14.9998 9.42793 12.7613 11.6665 9.99984 11.6665C7.23841 11.6665 4.99984 9.42793 4.99984 6.6665C4.99984 3.90508 7.23841 1.6665 9.99984 1.6665ZM9.99984 3.33317C8.15889 3.33317 6.6665 4.82555 6.6665 6.6665C6.6665 8.50745 8.15889 9.99984 9.99984 9.99984C11.8408 9.99984 13.3332 8.50745 13.3332 6.6665C13.3332 4.82555 11.8408 3.33317 9.99984 3.33317Z" />
    </symbol>

    <symbol viewBox="0 0 20 20" id="icon-favourite">
        <path d="M10.0013 17.5L8.79297 16.4167C7.39019 15.1528 6.23047 14.0625 5.3138 13.1459C4.39714 12.2292 3.66797 11.4063 3.1263 10.6771C2.58464 9.94796 2.20616 9.27782 1.99089 8.66671C1.77561 8.0556 1.66797 7.4306 1.66797 6.79171C1.66797 5.48615 2.10547 4.39587 2.98047 3.52087C3.85547 2.64587 4.94575 2.20837 6.2513 2.20837C6.97352 2.20837 7.66102 2.36115 8.3138 2.66671C8.96658 2.97226 9.52908 3.40282 10.0013 3.95837C10.4735 3.40282 11.036 2.97226 11.6888 2.66671C12.3416 2.36115 13.0291 2.20837 13.7513 2.20837C15.0569 2.20837 16.1471 2.64587 17.0221 3.52087C17.8971 4.39587 18.3346 5.48615 18.3346 6.79171C18.3346 7.4306 18.227 8.0556 18.0117 8.66671C17.7964 9.27782 17.418 9.94796 16.8763 10.6771C16.3346 11.4063 15.6055 12.2292 14.6888 13.1459C13.7721 14.0625 12.6124 15.1528 11.2096 16.4167L10.0013 17.5ZM10.0013 15.25C11.3346 14.0556 12.4319 13.0313 13.293 12.1771C14.1541 11.323 14.8346 10.5799 15.3346 9.94796C15.8346 9.31601 16.1819 8.75351 16.3763 8.26046C16.5707 7.7674 16.668 7.27782 16.668 6.79171C16.668 5.95837 16.3902 5.26393 15.8346 4.70837C15.2791 4.15282 14.5846 3.87504 13.7513 3.87504C13.0985 3.87504 12.4944 4.05907 11.9388 4.42712C11.3832 4.79518 11.0013 5.26393 10.793 5.83337H9.20964C9.0013 5.26393 8.61936 4.79518 8.0638 4.42712C7.50825 4.05907 6.90408 3.87504 6.2513 3.87504C5.41797 3.87504 4.72352 4.15282 4.16797 4.70837C3.61241 5.26393 3.33464 5.95837 3.33464 6.79171C3.33464 7.27782 3.43186 7.7674 3.6263 8.26046C3.82075 8.75351 4.16797 9.31601 4.66797 9.94796C5.16797 10.5799 5.84852 11.323 6.70964 12.1771C7.57075 13.0313 8.66797 14.0556 10.0013 15.25Z" />
    </symbol>

    <symbol viewBox="0 0 40 11" id="arrow-btn">
        <path d="M39.495 5.99497C39.7683 5.72161 39.7683 5.27839 39.495 5.00503L35.0402 0.550252C34.7668 0.276886 34.3236 0.276886 34.0503 0.550252C33.7769 0.82362 33.7769 1.26684 34.0503 1.5402L38.0101 5.5L34.0503 9.4598C33.7769 9.73316 33.7769 10.1764 34.0503 10.4497C34.3236 10.7231 34.7668 10.7231 35.0402 10.4497L39.495 5.99497ZM0 6.2H39V4.8H0V6.2Z" />
    </symbol>

    <symbol viewBox="0 0 16 9" id="arrow-faq">
        <path fill-rule="evenodd" clip-rule="evenodd" d="M16 1.30016C16 1.50495 15.9129 1.70974 15.7396 1.86573L8.62855 8.26541C8.281 8.5782 7.71923 8.5782 7.37168 8.26541L0.260663 1.86573C-0.0868877 1.55295 -0.0868877 1.04737 0.260663 0.734588C0.608214 0.421804 1.16998 0.421804 1.51753 0.734588L8.00011 6.5687L14.4827 0.734588C14.8302 0.421804 15.392 0.421804 15.7396 0.734588C15.9129 0.89058 16 1.09537 16 1.30016Z" />
    </symbol>

    <symbol viewBox="0 0 8 12" id="gallery-prev">
        <path d="M7 1L2 6L7 11" stroke-width="2" />
    </symbol>

    <symbol viewBox="0 0 8 12" id="gallery-next">
        <path d="M1 11L6 6L0.999999 1" stroke-width="2" />
    </symbol>

    <symbol viewBox="0 0 29 29" id="social-fb">
        <path d="M28.5386 14.7693C28.5386 6.88775 22.1509 0.5 14.2693 0.5C6.38775 0.5 0 6.88775 0 14.7693C0 21.8928 5.21722 27.7957 12.0397 28.8659V18.894H8.41667V14.7693H12.0397V11.6256C12.0397 8.04992 14.169 6.07395 17.4298 6.07395C18.9905 6.07395 20.6236 6.35265 20.6236 6.35265V9.86424H18.8232C17.0507 9.86424 16.4989 10.9651 16.4989 12.0938V14.7693H20.4564L19.8238 18.894H16.4989V28.8659C23.3214 27.7957 28.5386 21.8928 28.5386 14.7693Z" />
    </symbol>

    <symbol viewBox="0 0 30 30" id="social-instagram">
        <path fill-rule="evenodd" clip-rule="evenodd" d="M15.0896 0.5C7.20891 0.5 0.820312 6.88859 0.820312 14.7693C0.820312 22.6501 7.20891 29.0386 15.0896 29.0386C22.9704 29.0386 29.359 22.6501 29.359 14.7693C29.359 6.88859 22.9704 0.5 15.0896 0.5ZM11.9531 7.20507C12.7649 7.16813 13.0242 7.15909 15.0911 7.15909H15.0887C17.1562 7.15909 17.4146 7.16813 18.2264 7.20507C19.0366 7.24217 19.5899 7.37044 20.0751 7.55864C20.5761 7.75286 20.9994 8.01288 21.4228 8.43621C21.8461 8.85922 22.1061 9.28382 22.3011 9.78436C22.4882 10.2683 22.6167 10.8213 22.6547 11.6315C22.6912 12.4432 22.7007 12.7026 22.7007 14.7695C22.7007 16.8363 22.6912 17.0951 22.6547 17.9069C22.6167 18.7167 22.4882 19.2699 22.3011 19.754C22.1061 20.2543 21.8461 20.6789 21.4228 21.102C20.9999 21.5253 20.576 21.7859 20.0756 21.9803C19.5914 22.1685 19.0377 22.2968 18.2275 22.3339C17.4157 22.3708 17.1572 22.3799 15.0901 22.3799C13.0234 22.3799 12.7642 22.3708 11.9524 22.3339C11.1424 22.2968 10.5892 22.1685 10.105 21.9803C9.6048 21.7859 9.1802 21.5253 8.75735 21.102C8.33418 20.6789 8.07416 20.2543 7.87962 19.7538C7.69158 19.2699 7.56331 18.7169 7.52605 17.9067C7.48927 17.0949 7.48007 16.8363 7.48007 14.7695C7.48007 12.7026 7.48959 12.4431 7.52589 11.6313C7.56236 10.8214 7.69078 10.2683 7.87946 9.7842C8.07448 9.28382 8.3345 8.85922 8.75782 8.43621C9.18083 8.01304 9.60543 7.75302 10.106 7.55864C10.5899 7.37044 11.1429 7.24217 11.9531 7.20507Z" />
        <path fill-rule="evenodd" clip-rule="evenodd" d="M14.4068 8.53096C14.5394 8.53075 14.682 8.53081 14.8359 8.53088L15.0895 8.53096C17.1215 8.53096 17.3623 8.53825 18.1647 8.57472C18.9068 8.60864 19.3095 8.73263 19.5777 8.8368C19.9329 8.97474 20.1861 9.13963 20.4523 9.40599C20.7187 9.67235 20.8836 9.92603 21.0218 10.2812C21.126 10.5491 21.2501 10.9519 21.2839 11.6939C21.3204 12.4961 21.3283 12.7371 21.3283 14.7681C21.3283 16.7992 21.3204 17.0402 21.2839 17.8424C21.25 18.5844 21.126 18.9871 21.0218 19.2551C20.8839 19.6102 20.7187 19.8631 20.4523 20.1293C20.1859 20.3957 19.9331 20.5606 19.5777 20.6985C19.3098 20.8032 18.9068 20.9268 18.1647 20.9608C17.3625 20.9972 17.1215 21.0052 15.0895 21.0052C13.0574 21.0052 12.8165 20.9972 12.0143 20.9608C11.2723 20.9265 10.8696 20.8025 10.6011 20.6984C10.246 20.5604 9.9923 20.3955 9.72594 20.1292C9.45958 19.8628 9.29468 19.6098 9.15643 19.2545C9.05226 18.9865 8.92812 18.5838 8.89435 17.8418C8.85788 17.0395 8.85059 16.7985 8.85059 14.7662C8.85059 12.7339 8.85788 12.4942 8.89435 11.692C8.92828 10.9499 9.05226 10.5472 9.15643 10.279C9.29437 9.92381 9.45958 9.67013 9.72594 9.40377C9.9923 9.13741 10.246 8.97252 10.6011 8.83426C10.8694 8.72962 11.2723 8.60595 12.0143 8.57186C12.7163 8.54015 12.9884 8.53064 14.4068 8.52905V8.53096ZM19.1524 9.79407C18.6482 9.79407 18.2391 10.2027 18.2391 10.707C18.2391 11.2112 18.6482 11.6202 19.1524 11.6202C19.6566 11.6202 20.0656 11.2112 20.0656 10.707C20.0656 10.2028 19.6566 9.79376 19.1524 9.79376V9.79407ZM11.1824 14.769C11.1824 12.6107 12.9322 10.8608 15.0905 10.8608C17.2488 10.8608 18.9982 12.6107 18.9982 14.769C18.9982 16.9273 17.249 18.6765 15.0906 18.6765C12.9323 18.6765 11.1824 16.9273 11.1824 14.769Z" />
        <path d="M15.089 12.2324C16.49 12.2324 17.6258 13.3681 17.6258 14.7692C17.6258 16.1702 16.49 17.306 15.089 17.306C13.6879 17.306 12.5522 16.1702 12.5522 14.7692C12.5522 13.3681 13.6879 12.2324 15.089 12.2324Z" />
    </symbol>

    <symbol viewBox="0 0 30 30" id="social-twitter">
        <path fill-rule="evenodd" clip-rule="evenodd" d="M14.9104 0.5C7.02971 0.5 0.641113 6.88859 0.641113 14.7693C0.641113 22.6501 7.02971 29.0386 14.9104 29.0386C22.7912 29.0386 29.1798 22.6501 29.1798 14.7693C29.1798 6.88859 22.7912 0.5 14.9104 0.5ZM14.5124 12.593L14.4825 12.0992C14.3927 10.8195 15.1812 9.65061 16.4288 9.19717C16.8879 9.03594 17.6665 9.01579 18.1755 9.15686C18.3751 9.21732 18.7544 9.41885 19.0239 9.60023L19.513 9.93276L20.0519 9.76145C20.3514 9.67077 20.7506 9.51962 20.9303 9.41885C21.1 9.32816 21.2497 9.27778 21.2497 9.30801C21.2497 9.47931 20.8804 10.0638 20.571 10.3862C20.1517 10.8396 20.2715 10.88 21.1199 10.5777C21.629 10.4064 21.6389 10.4064 21.5391 10.5978C21.4792 10.6986 21.1698 11.0513 20.8404 11.3737C20.2815 11.9279 20.2516 11.9884 20.2516 12.4519C20.2516 13.1673 19.9122 14.6587 19.5728 15.4749C18.944 17.0065 17.5966 18.5885 16.2491 19.3846C14.3527 20.5031 11.8275 20.7852 9.70154 20.1302C8.99288 19.9085 7.77519 19.3442 7.77519 19.2435C7.77519 19.2133 8.14449 19.1729 8.59364 19.1629C9.53186 19.1427 10.4701 18.8807 11.2686 18.4172L11.8076 18.0948L11.1887 17.8832C10.3104 17.5809 9.52188 16.8856 9.32226 16.2306C9.26237 16.019 9.28234 16.0089 9.84128 16.0089L10.4202 15.9988L9.93111 15.7671C9.3522 15.4749 8.8232 14.9811 8.5637 14.4773C8.37406 14.1145 8.13451 13.1976 8.20438 13.127C8.22434 13.0968 8.43394 13.1573 8.67349 13.2379C9.36218 13.4898 9.45201 13.4293 9.05277 13.0061C8.30419 12.2403 8.07462 11.1016 8.43394 10.0234L8.60362 9.53977L9.26237 10.1947C10.6098 11.5148 12.1968 12.3007 14.0134 12.5325L14.5124 12.593Z" />
    </symbol>

    <symbol viewBox="0 0 29 30" id="social-linkedin">
        <path fill-rule="evenodd" clip-rule="evenodd" d="M14.7307 0.5C6.85002 0.5 0.461426 6.88859 0.461426 14.7693C0.461426 22.6501 6.85002 29.0386 14.7307 29.0386C22.6115 29.0386 29.0001 22.6501 29.0001 14.7693C29.0001 6.88859 22.6115 0.5 14.7307 0.5ZM7.3118 12.3192H10.5455V22.0352H7.3118V12.3192ZM10.7589 9.3128C10.7379 8.36015 10.0567 7.63455 8.95044 7.63455C7.8442 7.63455 7.12098 8.36015 7.12098 9.3128C7.12098 10.2457 7.82282 10.9922 8.90847 10.9922H8.92913C10.0567 10.9922 10.7589 10.2457 10.7589 9.3128ZM18.4852 12.091C20.6132 12.091 22.2085 13.48 22.2085 16.4643L22.2084 22.0352H18.9748V16.8371C18.9748 15.5315 18.5068 14.6405 17.3362 14.6405C16.4428 14.6405 15.9107 15.2411 15.6769 15.8213C15.5914 16.0292 15.5705 16.3188 15.5705 16.6092V22.0355H12.3363C12.3363 22.0355 12.379 13.2311 12.3363 12.3194H15.5705V13.6956C15.9996 13.034 16.7683 12.091 18.4852 12.091Z" />
    </symbol>

    <symbol viewBox="0 0 28 28" id="social-g10">
        <path fill-rule="evenodd" clip-rule="evenodd" d="M13.9388 24.9044C14.1359 20.9083 14.5646 18.7436 16.3167 16.9493C18.5253 14.7929 21.2945 14.6413 27.3495 14.4584C27.3489 19.9117 27.3299 24.0008 25.3727 26.005C23.3677 27.9636 19.4627 27.9814 13.8259 27.9814C13.8392 27.5408 13.8523 27.1175 13.8661 26.7106C13.8878 26.0692 13.911 25.4685 13.9388 24.9044ZM13.5236 27.9814C7.88703 27.9814 3.98135 27.9636 1.97643 26.005C0.0189185 24.0008 0 19.9117 0 14.4584C6.05524 14.6413 8.82427 14.7929 11.0329 16.9493C12.5574 18.5105 13.0799 20.3522 13.3198 23.4366C13.3768 24.1698 13.4179 24.9732 13.4526 25.8598C13.4785 26.5192 13.5008 27.2247 13.5236 27.9814ZM16.3167 11.6649C18.5253 13.822 21.2945 13.9731 27.3495 14.1561C27.3489 8.70303 27.3299 4.61405 25.3727 2.60959C23.3677 0.651892 19.4627 0.633204 13.8259 0.632748C13.8373 1.01115 13.8486 1.37671 13.8603 1.7301C13.9312 3.87747 14.016 5.57553 14.2261 6.9735C14.5347 9.02721 15.1138 10.4333 16.3167 11.6649ZM0.000445146 14.1561C6.05538 13.9731 8.8241 13.8219 11.0326 11.6649C13.1893 9.45699 13.3409 6.68825 13.5237 0.632748C7.88731 0.633204 3.98175 0.651939 1.97665 2.60959C0.0191698 4.61405 0.000445694 8.70302 0.000445146 14.1561Z" />
    </symbol>

    <symbol viewBox="0 0 30 29" id="social-monogram">
        <path fill-rule="evenodd" clip-rule="evenodd" d="M29.1729 14.3084C29.1729 22.1891 22.7843 28.5777 14.9036 28.5777C7.02287 28.5777 0.634277 22.1891 0.634277 14.3084C0.634277 6.42766 7.02287 0.0390625 14.9036 0.0390625C22.7843 0.0390625 29.1729 6.42766 29.1729 14.3084ZM7.40824 9.0968C7.58263 9.25767 7.6717 9.49392 7.64806 9.73295V18.3391C7.69981 18.6496 7.60418 18.9667 7.39047 19.1934L5.39197 21.6744V22.0015H11.0588V21.6744L9.06033 19.1934C8.84506 18.9671 8.74351 18.6521 8.78498 18.3391V10.8962L13.759 22.0015H14.3364L18.6087 10.8962V19.7478C18.6087 19.984 18.6087 20.0295 18.4577 20.184L16.9211 21.7107V22.0379H24.3822V21.7107L22.8989 20.2203C22.7679 20.1182 22.703 19.9503 22.7301 19.7841V8.83325C22.703 8.66708 22.7679 8.49919 22.8989 8.39703L24.4177 6.90663V6.57946H19.1594L15.4111 16.149L11.1477 6.57946H5.63179V6.90663L7.40824 9.0968Z" />
    </symbol>

    <symbol viewBox="0 0 29 29" id="social-telegram">
        <path fill-rule="evenodd" clip-rule="evenodd" d="M28.9932 14.3084C28.9932 22.1891 22.6046 28.5777 14.7239 28.5777C6.84318 28.5777 0.45459 22.1891 0.45459 14.3084C0.45459 6.42766 6.84318 0.0390625 14.7239 0.0390625C22.6046 0.0390625 28.9932 6.42766 28.9932 14.3084ZM10.0083 13.0017C8.57889 13.6258 7.11018 14.2671 5.76718 15.0068L5.76708 15.007C5.06582 15.5204 5.99794 15.8835 6.87234 16.2242C7.01135 16.2784 7.14891 16.332 7.27821 16.3855C7.3858 16.4186 7.49522 16.4534 7.60609 16.4887C8.57859 16.7986 9.66299 17.1441 10.6071 16.6243C12.1581 15.7334 13.6217 14.7034 15.0842 13.6742C15.5634 13.3369 16.0424 12.9998 16.5244 12.6677C16.5469 12.6533 16.5724 12.6367 16.6003 12.6187C17.0109 12.3525 17.9342 11.754 17.5927 12.5787C16.785 13.462 15.9199 14.2439 15.0501 15.03C14.4639 15.5599 13.8755 16.0916 13.3012 16.6576C12.8009 17.0641 12.2815 17.8814 12.8417 18.4506C14.1318 19.3537 15.4421 20.235 16.7516 21.1157C17.1777 21.4024 17.6038 21.6889 18.029 21.9762C18.7498 22.5516 19.8761 22.0861 20.0346 21.187C20.1051 20.7733 20.1758 20.3597 20.2465 19.9461C20.6375 17.6602 21.0286 15.3735 21.3741 13.0802C21.4211 12.7205 21.4743 12.3608 21.5276 12.0009C21.6566 11.1286 21.7859 10.2552 21.8262 9.37826C21.7222 8.50311 20.6611 8.69553 20.0705 8.89232C17.0352 10.0473 14.0302 11.2879 11.0371 12.5504C10.698 12.7006 10.3543 12.8507 10.0083 13.0017Z" />
    </symbol>

    <symbol viewBox="0 0 28 28" id="social-youtube">
        <path fill-rule="evenodd" clip-rule="evenodd" d="M28 14C28 21.732 21.732 28 14 28C6.26801 28 0 21.732 0 14C0 6.26801 6.26801 0 14 0C21.732 0 28 6.26801 28 14ZM22.4049 8.41494C22.9664 8.98005 23.1487 10.267 23.1487 10.267C23.1487 10.267 23.3346 11.78 23.3346 13.2894V14.704C23.3346 16.217 23.1487 17.7264 23.1487 17.7264C23.1487 17.7264 22.9664 19.0134 22.4049 19.5785C21.7643 20.2487 21.0556 20.3179 20.6549 20.3571C20.611 20.3614 20.5707 20.3653 20.5346 20.3696C17.9242 20.5556 14.0013 20.5629 14.0013 20.5629C14.0013 20.5629 9.1487 20.5191 7.65391 20.3769C7.5812 20.3629 7.49266 20.3521 7.39223 20.3399C6.91855 20.2821 6.18058 20.1921 5.59401 19.5785C5.0362 19.0134 4.85391 17.7264 4.85391 17.7264C4.85391 17.7264 4.66797 16.2134 4.66797 14.704V13.2894C4.66797 11.78 4.85755 10.267 4.85755 10.267C4.85755 10.267 5.0362 8.98005 5.59766 8.41494C6.23827 7.74476 6.94697 7.67551 7.34765 7.63636C7.39163 7.63206 7.43191 7.62813 7.46797 7.6238C10.0784 7.43421 13.9977 7.43421 13.9977 7.43421H14.0049C14.0049 7.43421 17.9242 7.43421 20.5346 7.6238C20.5707 7.62813 20.611 7.63206 20.655 7.63636C21.0556 7.67551 21.7643 7.74476 22.4049 8.41494ZM12.0727 11.1748V16.4212L17.1148 13.8071L12.0727 11.1748Z" />
    </symbol>

    <symbol viewBox="0 0 25 32" id="file-icon">
        <path d="M13.5503 1.0625C13.6829 1.0625 13.8101 1.11518 13.9039 1.20895L24.1244 11.4294C24.2181 11.5232 24.2708 11.6504 24.2708 11.783V28.35C24.2708 29.0363 23.9982 29.6944 23.5129 30.1796C23.0277 30.6649 22.3695 30.9375 21.6833 30.9375H3.1583C2.47205 30.9375 1.81391 30.6649 1.32866 30.1796C0.843411 29.6944 0.570801 29.0363 0.570801 28.35V3.65C0.570801 2.96375 0.843412 2.30561 1.32866 1.82036C1.81391 1.33511 2.47205 1.0625 3.1583 1.0625H13.5503Z" stroke-linecap="round" stroke-linejoin="round" />
        <path d="M13.9644 2.1062V10.3687C13.9644 10.921 14.4121 11.3687 14.9644 11.3687H23.2269" stroke-linecap="round" stroke-linejoin="round" />
    </symbol>

    <symbol viewBox="0 0 33 34" id="file-image">
        <path d="M26.125 4.625H6.875C5.35622 4.625 4.125 5.85622 4.125 7.375V26.625C4.125 28.1438 5.35622 29.375 6.875 29.375H26.125C27.6438 29.375 28.875 28.1438 28.875 26.625V7.375C28.875 5.85622 27.6438 4.625 26.125 4.625Z" stroke-linecap="round" stroke-linejoin="round" />
        <path d="M11.6875 14.25C12.8266 14.25 13.75 13.3266 13.75 12.1875C13.75 11.0484 12.8266 10.125 11.6875 10.125C10.5484 10.125 9.625 11.0484 9.625 12.1875C9.625 13.3266 10.5484 14.25 11.6875 14.25Z" stroke-linecap="round" stroke-linejoin="round" />
        <path d="M28.875 21.125L22 14.25L6.875 29.375" stroke-linecap="round" stroke-linejoin="round" />
    </symbol>

    <symbol viewBox="0 0 8 14" id="pager-prev">
        <path d="M7 1L1 7L7 13" stroke-width="2" stroke-linecap="round" stroke-linejoin="round" />
    </symbol>

    <symbol viewBox="0 0 8 14" id="pager-next">
        <path d="M1 13.0002L7 7.00024L0.999999 1.00024" stroke-width="2" stroke-linecap="round" stroke-linejoin="round" />
    </symbol>

    <symbol viewBox="0 0 126 8" id="main-how-arrow">
        <path d="M125.354 4.35355C125.549 4.15829 125.549 3.84171 125.354 3.64645L122.172 0.464466C121.976 0.269204 121.66 0.269204 121.464 0.464466C121.269 0.659728 121.269 0.976311 121.464 1.17157L124.293 4L121.464 6.82843C121.269 7.02369 121.269 7.34027 121.464 7.53553C121.66 7.7308 121.976 7.7308 122.172 7.53553L125.354 4.35355ZM0 4.5H125V3.5H0V4.5Z" />
    </symbol>

    <symbol viewBox="0 0 40 11" id="main-catalogue-more">
        <path d="M39.495 5.99497C39.7683 5.72161 39.7683 5.27839 39.495 5.00503L35.0402 0.550252C34.7668 0.276886 34.3236 0.276886 34.0503 0.550252C33.7769 0.82362 33.7769 1.26684 34.0503 1.5402L38.0101 5.5L34.0503 9.4598C33.7769 9.73316 33.7769 10.1764 34.0503 10.4497C34.3236 10.7231 34.7668 10.7231 35.0402 10.4497L39.495 5.99497ZM0 6.2H39V4.8H0V6.2Z" />
    </symbol>

    <symbol viewBox="0 0 16 16" id="catalogue-type-cards">
        <rect x="0.75" y="0.75" width="5.5" height="5.5" stroke-width="1.5" />
        <rect x="9.75" y="0.75" width="5.5" height="5.5" stroke-width="1.5" />
        <rect x="0.75" y="9.75" width="5.5" height="5.5" stroke-width="1.5" />
        <rect x="9.75" y="9.75" width="5.5" height="5.5" stroke-width="1.5" />
    </symbol>

    <symbol viewBox="0 0 19 16" id="catalogue-type-rows">
        <rect width="19" height="2" />
        <rect y="4.5" width="19" height="2" />
        <rect y="9" width="19" height="2" />
        <rect y="13.5" width="19" height="2" />
    </symbol>

    <symbol viewBox="0 0 14 8" id="catalogue-pager-size">
        <path d="M1 1L7 7L13 1" stroke-width="2" stroke-linecap="round" stroke-linejoin="round" />
    </symbol>

    <symbol viewBox="0 0 14 15" id="selected">
        <rect y="0.5" width="14" height="14" rx="7" fill="#F26C5D" />
        <path d="M5.83333 9.5L5.41032 9.99352L5.83333 10.3561L6.25635 9.99352L5.83333 9.5ZM6.25635 9.00648L3.92301 7.00648L3.07699 7.99352L5.41032 9.99352L6.25635 9.00648ZM6.25635 9.99352L10.923 5.99352L10.077 5.00648L5.41032 9.00648L6.25635 9.99352Z" fill="white" />
    </symbol>

    <symbol viewBox="0 0 12 7" id="catalogue-filter-arrow">
        <path d="M1 1L6 6L11 1" stroke-width="1.6" stroke-linecap="round" stroke-linejoin="round" />
    </symbol>

    <symbol viewBox="0 0 14 14" id="window-close">
        <path d="M1 1L12.9999 13" stroke-width="2" stroke-linecap="round" stroke-linejoin="round" />
        <path d="M13 1L1.0001 13" stroke-width="2" stroke-linecap="round" stroke-linejoin="round" />
    </symbol>

    <symbol viewBox="0 0 40 40" id="mobile-menu-link">
        <path d="M5 20H35" stroke-width="4" stroke-linecap="round" stroke-linejoin="round" />
        <path d="M5 10H35" stroke-width="4" stroke-linecap="round" stroke-linejoin="round" />
        <path d="M20 30L35 30" stroke-width="4" stroke-linecap="round" stroke-linejoin="round" />
    </symbol>

    <symbol viewBox="0 0 24 24" id="nav-contacts-email">
        <path d="M12 16C14.2091 16 16 14.2091 16 12C16 9.79086 14.2091 8 12 8C9.79086 8 8 9.79086 8 12C8 14.2091 9.79086 16 12 16Z" stroke-width="2" stroke-linecap="round" stroke-linejoin="round" />
        <path d="M16 7.99987V12.9999C16 13.7955 16.3161 14.5586 16.8787 15.1212C17.4413 15.6838 18.2044 15.9999 19 15.9999C19.7957 15.9999 20.5587 15.6838 21.1213 15.1212C21.6839 14.5586 22 13.7955 22 12.9999V11.9999C21.9999 9.7429 21.2362 7.55235 19.8333 5.7844C18.4303 4.01645 16.4706 2.77509 14.2726 2.26217C12.0747 1.74924 9.76794 1.99491 7.72736 2.95923C5.68677 3.92356 4.03241 5.54982 3.03327 7.57359C2.03413 9.59736 1.74898 11.8996 2.22418 14.106C2.69938 16.3124 3.90699 18.2931 5.65064 19.7261C7.39429 21.1592 9.57144 21.9602 11.8281 21.999C14.0847 22.0378 16.2881 21.3121 18.08 19.9399" stroke-width="2" stroke-linecap="round" stroke-linejoin="round" />
    </symbol>

    <symbol viewBox="0 0 24 24" id="nav-contacts-address">
        <path d="M21 10C21 17 12 23 12 23C12 23 3 17 3 10C3 7.61305 3.94821 5.32387 5.63604 3.63604C7.32387 1.94821 9.61305 1 12 1C14.3869 1 16.6761 1.94821 18.364 3.63604C20.0518 5.32387 21 7.61305 21 10Z" stroke-width="2" stroke-linecap="round" stroke-linejoin="round" />
        <path d="M12 13C13.6569 13 15 11.6569 15 10C15 8.34315 13.6569 7 12 7C10.3431 7 9 8.34315 9 10C9 11.6569 10.3431 13 12 13Z" stroke-width="2" stroke-linecap="round" stroke-linejoin="round" />
    </symbol>

    <symbol viewBox="0 0 8 14" id="back-mobile">
        <path d="M7 1L1 7L7 13" stroke-width="1.4" stroke-linecap="round" stroke-linejoin="round" />
    </symbol>

    <symbol viewBox="0 0 24 24" id="main-title-btn">
        <path d="M9 18L15 12L9 6" stroke-width="2" stroke-linecap="round" stroke-linejoin="round" />
    </symbol>

    <symbol viewBox="0 0 23 34" id="catalogue-sort-mobile">
        <path d="M2.00146 22.625L11.3765 32L20.7515 22.625" stroke-width="3" stroke-linecap="round" stroke-linejoin="round" />
        <path d="M20.75 11.375L11.375 2L2 11.375" stroke-width="3" stroke-linecap="round" stroke-linejoin="round" />
    </symbol>

    <symbol viewBox="0 0 37 36" id="catalogue-filter-mobile">
        <path fill-rule="evenodd" clip-rule="evenodd" d="M18.7515 24.0001C20.7108 24.0001 22.3777 25.2523 22.9955 27.0002L32.2515 27.0001C33.0799 27.0001 33.7515 27.6716 33.7515 28.5001C33.7515 29.3285 33.0799 30.0001 32.2515 30.0001L22.9949 30.0014C22.3768 31.7485 20.7103 33.0001 18.7515 33.0001C16.7926 33.0001 15.1261 31.7485 14.508 30.0014L5.25147 30.0001C4.42304 30.0001 3.75146 29.3285 3.75146 28.5001C3.75146 27.6716 4.42304 27.0001 5.25147 27.0001L14.5075 27.0002C15.1252 25.2523 16.7921 24.0001 18.7515 24.0001ZM18.7515 26.9999C17.923 26.9999 17.2515 27.6715 17.2515 28.4999C17.2515 29.3284 17.923 29.9999 18.7515 29.9999C19.5799 29.9999 20.2515 29.3284 20.2515 28.4999C20.2515 27.6715 19.5799 26.9999 18.7515 26.9999ZM29.2515 13.4999C31.7368 13.4999 33.7515 15.5147 33.7515 17.9999C33.7515 20.4852 31.7368 22.4999 29.2515 22.4999C27.2926 22.4999 25.6261 21.2484 25.008 19.5013L5.25147 19.4999C4.42304 19.4999 3.75146 18.8284 3.75146 17.9999C3.75146 17.1715 4.42304 16.4999 5.25147 16.4999L25.0075 16.5001C25.6252 14.7522 27.2921 13.4999 29.2515 13.4999ZM29.2514 16.5C28.423 16.5 27.7514 17.1716 27.7514 18C27.7514 18.8284 28.423 19.5 29.2514 19.5C30.0798 19.5 30.7514 18.8284 30.7514 18C30.7514 17.1716 30.0798 16.5 29.2514 16.5ZM8.25147 3C10.2192 3 11.8919 4.26293 12.5033 6.02243C12.5834 6.00704 12.6666 6 12.7515 6H32.2515C33.0799 6 33.7515 6.67157 33.7515 7.5C33.7515 8.32843 33.0799 9 32.2515 9H12.7515C12.6666 9 12.5834 8.99296 12.5025 8.97943C11.8919 10.7371 10.2192 12 8.25147 12C5.76618 12 3.75146 9.98528 3.75146 7.5C3.75146 5.01472 5.76618 3 8.25147 3ZM8.25153 6.00007C7.4231 6.00007 6.75153 6.67164 6.75153 7.50006C6.75153 8.32849 7.4231 9.00006 8.25153 9.00006C9.07996 9.00006 9.75153 8.32849 9.75153 7.50006C9.75153 6.67164 9.07996 6.00007 8.25153 6.00007Z" />
    </symbol>

    <symbol viewBox="0 0 20 20" id="catalogue-filter-close">
        <rect width="3.47071" height="24.295" rx="1" transform="matrix(0.707113 0.707101 -0.707113 0.707101 17.5459 0)" />
        <rect width="24.295" height="3.47071" rx="1" transform="matrix(0.707113 0.707101 -0.707113 0.707101 2.4541 0.367676)" />
    </symbol>

    <symbol viewBox="0 0 20 20" id="catalogue-filter-group-close">
        <rect width="3.47071" height="24.295" rx="1" transform="matrix(0.707113 0.707101 -0.707113 0.707101 17.5459 0)" />
        <rect width="24.295" height="3.47071" rx="1" transform="matrix(0.707113 0.707101 -0.707113 0.707101 2.4541 0.367676)" />
    </symbol>

    <symbol viewBox="0 0 29 9" id="news-back">
        <path d="M0.646446 4.14645C0.451185 4.34171 0.451185 4.65829 0.646446 4.85355L3.82843 8.03553C4.02369 8.2308 4.34027 8.2308 4.53553 8.03553C4.7308 7.84027 4.7308 7.52369 4.53553 7.32843L1.70711 4.5L4.53553 1.67157C4.7308 1.47631 4.7308 1.15973 4.53553 0.964466C4.34027 0.769204 4.02369 0.769204 3.82843 0.964466L0.646446 4.14645ZM29 4L1 4V5L29 5V4Z" />
    </symbol>

    <symbol viewBox="0 0 20 20" id="btn-doc">
        <path d="M11.6667 1.66602H5.00004C4.55801 1.66602 4.13409 1.84161 3.82153 2.15417C3.50897 2.46673 3.33337 2.89065 3.33337 3.33268V16.666C3.33337 17.108 3.50897 17.532 3.82153 17.8445C4.13409 18.1571 4.55801 18.3327 5.00004 18.3327H15C15.4421 18.3327 15.866 18.1571 16.1786 17.8445C16.4911 17.532 16.6667 17.108 16.6667 16.666V6.66602L11.6667 1.66602Z" stroke-linecap="round" stroke-linejoin="round" />
        <path d="M11.6666 1.66602V6.66602H16.6666" stroke-linecap="round" stroke-linejoin="round" />
        <path d="M13.3333 10.834H6.66663" stroke-linecap="round" stroke-linejoin="round" />
        <path d="M13.3333 14.166H6.66663" stroke-linecap="round" stroke-linejoin="round" />
        <path d="M8.33329 7.5H7.49996H6.66663" stroke-linecap="round" stroke-linejoin="round" />
    </symbol>

    <symbol viewBox="0 0 20 20" id="catalogue-filter-group-params-item-remove">
        <rect width="20" height="20" rx="10" fill="white" stroke="none" />
        <path d="M14 6L6 14" stroke="#F26C5D" fill="none" stroke-width="1.4" stroke-linecap="round" stroke-linejoin="round" />
        <path d="M6 6L14 14" stroke="#F26C5D" fill="none" stroke-width="1.4" stroke-linecap="round" stroke-linejoin="round" />
    </symbol>

    <symbol viewBox="0 0 26 26" id="catalogue-filter-group-params-remove">
        <path d="M13.0001 23.8334C18.9832 23.8334 23.8334 18.9831 23.8334 13C23.8334 7.01694 18.9832 2.16669 13.0001 2.16669C7.017 2.16669 2.16675 7.01694 2.16675 13C2.16675 18.9831 7.017 23.8334 13.0001 23.8334Z" fill="none" stroke="#BBBBBB" stroke-width="2" stroke-linecap="round" stroke-linejoin="round" />
        <path d="M16.25 9.75L9.75 16.25" fill="none" stroke="#BBBBBB" stroke-width="2" stroke-linecap="round" stroke-linejoin="round" />
        <path d="M9.75 9.75L16.25 16.25" fill="none" stroke="#BBBBBB" stroke-width="2" stroke-linecap="round" stroke-linejoin="round" />
    </symbol>

    <symbol viewBox="0 0 32 32" id="up-link">
        <path d="M23.5421 21.6569L25.4277 19.7713L15.9997 10.3433L6.57158 19.7714L8.45719 21.657L15.9997 14.1145L23.5421 21.6569Z" />
    </symbol>

    <symbol viewBox="0 0 28 28" id="catalogue-card-tab-title">
        <path d="M18.9494 12.9333L13.9996 17.883L9.0499 12.9333L10.6998 11.2833L13.9996 14.5832L17.2995 11.2833L18.9494 12.9333Z" />
        <path fill-rule="evenodd" clip-rule="evenodd" d="M26.833 13.9998C26.833 6.91218 21.0873 1.1665 13.9997 1.1665C6.91202 1.1665 1.16634 6.91218 1.16634 13.9998C1.16634 21.0875 6.91202 26.8332 13.9997 26.8332C21.0873 26.8332 26.833 21.0875 26.833 13.9998ZM13.9997 24.4998C19.7987 24.4998 24.4997 19.7988 24.4997 13.9998C24.4997 8.20085 19.7987 3.49984 13.9997 3.49984C8.20069 3.49984 3.49968 8.20085 3.49968 13.9998C3.49968 19.7988 8.20069 24.4998 13.9997 24.4998Z" />
    </symbol>

    <symbol viewBox="0 0 16 16" id="catalogue-card-text-more">
        <path d="M4 6L8 10L12 6" stroke-width="2" stroke-linecap="round" stroke-linejoin="round" />
    </symbol>

    <symbol viewBox="0 0 18 18" id="icon-whatsapp">
        <path d="M4.97118 15.1435L5.24331 15.3041C6.38679 15.9796 7.69777 16.3369 9.03467 16.3376H9.03759C13.1433 16.3376 16.4849 13.012 16.4865 8.92462C16.4871 6.94372 15.7131 5.08133 14.3067 3.68005C12.9002 2.27903 11.0302 1.50693 9.04025 1.5061C4.93139 1.5061 1.5898 4.83121 1.58825 8.91855C1.58771 10.3192 1.98131 11.6833 2.72708 12.8634L2.90434 13.1439L2.15165 15.8794L4.97118 15.1435ZM0 17.9983L1.27143 13.3768C0.487198 12.0242 0.0746338 10.4899 0.0752797 8.91813C0.0771914 4.00067 4.09733 0 9.03777 0C11.4351 0.00102865 13.6853 0.929796 15.3774 2.6156C17.0693 4.30137 18.0008 6.54221 18 8.92533C17.9979 13.8425 13.9769 17.844 9.03777 17.844C9.03741 17.844 9.03795 17.844 9.03777 17.844H9.03394C7.53404 17.8435 6.06022 17.4689 4.75123 16.7582L0 17.9983Z" fill="white" />
        <path d="M0.38382 8.9225C0.383278 10.4397 0.781531 11.921 1.53879 13.2269L0.311279 17.6884L4.8978 16.4912C6.16148 17.1767 7.58424 17.5386 9.03222 17.5391H9.03596C13.8043 17.5391 17.6856 13.6765 17.6877 8.92926C17.6886 6.62866 16.7894 4.4657 15.1558 2.83812C13.5225 1.21077 11.3503 0.314068 9.03557 0.312988C4.26693 0.312988 0.385671 4.17505 0.383605 8.92252L0.38382 8.9225ZM9.03583 17.539H9.03592H9.03583C9.03574 17.539 9.03565 17.539 9.03583 17.539Z" fill="#47D336" />
        <path d="M0.0752797 8.92013C0.0747371 10.4919 0.487301 12.0264 1.27154 13.3788L0 18L4.75108 16.7599C6.06015 17.4706 7.53388 17.8451 9.03379 17.8457H9.03762C13.9768 17.8457 17.9978 13.8442 17.9998 8.92704C18.0007 6.54379 17.0692 4.30301 15.3772 2.61731C13.685 0.931609 11.435 0.00273763 9.03762 0.00170898C4.09744 0.00170898 0.0771956 4.00238 0.0751289 8.91984L0.0752797 8.92013ZM2.90444 13.1458L2.72709 12.8654C1.98132 11.6851 1.58772 10.321 1.58826 8.92051C1.58989 4.83343 4.9314 1.50806 9.04025 1.50806C11.03 1.50884 12.9001 2.28102 14.3067 3.68201C15.7132 5.08311 16.4871 6.94566 16.4866 8.92632C16.4848 13.0137 13.1432 16.3393 9.03743 16.3393H9.03452C7.69765 16.3385 6.38656 15.9813 5.24316 15.3059L4.97103 15.1453L2.15154 15.8811L2.90444 13.1458ZM9.03762 17.8457H9.03771H9.03762C9.03753 17.8457 9.03743 17.8457 9.03762 17.8457Z" fill="#47D336" />
        <path fill-rule="evenodd" clip-rule="evenodd" d="M6.79789 5.19128C6.63011 4.82004 6.45358 4.81261 6.294 4.80608C6.16341 4.80055 6.01404 4.80091 5.86485 4.80091C5.71548 4.80091 5.47288 4.8567 5.26773 5.07977C5.0624 5.30286 4.48389 5.84211 4.48389 6.93883C4.48389 8.03565 5.28644 9.09544 5.39825 9.24431C5.51025 9.39291 6.94747 11.7156 9.22344 12.609C11.1151 13.3516 11.5001 13.2039 11.9107 13.1667C12.3212 13.1296 13.2356 12.6276 13.4221 12.1071C13.6088 11.5866 13.6088 11.1404 13.5528 11.0473C13.4969 10.9544 13.3475 10.8986 13.1236 10.7872C12.8996 10.6757 11.7986 10.1364 11.5934 10.062C11.3881 9.98766 11.2388 9.95055 11.0894 10.1737C10.9402 10.3966 10.5113 10.8986 10.3806 11.0473C10.25 11.1962 10.1193 11.2148 9.89537 11.1033C9.67136 10.9915 8.95012 10.7563 8.09453 9.99701C7.4288 9.40615 6.97939 8.67648 6.8487 8.45329C6.7181 8.23039 6.83476 8.10964 6.94704 7.9985C7.04765 7.89861 7.17105 7.73822 7.28305 7.60812C7.39479 7.47794 7.43206 7.38504 7.5067 7.23635C7.58143 7.08756 7.54407 6.95738 7.48811 6.84587C7.43206 6.73437 6.99688 5.63201 6.79776 5.19121" fill="white" />
    </symbol>

    <symbol viewBox="0 0 14 14" id="sort-dir">
        <path d="M1.75 3.5V4.66667H5.25V3.5H1.75ZM1.75 6.41667V7.58333H8.75V6.41667H1.75ZM1.75 9.33333V10.5H12.25V9.33333H1.75Z" />
    </symbol>

    <symbol viewBox="0 0 24 24" id="password-view">
        <path d="M15.7731 12.9739L14.6501 11.8509C14.8001 11.0227 14.5639 10.2781 13.9414 9.61725C13.319 8.95635 12.5552 8.7009 11.6501 8.8509L10.527 7.72785C10.7527 7.62656 10.9841 7.55061 11.2212 7.49997C11.4584 7.44932 11.718 7.424 12.0001 7.424C13.1347 7.424 14.0978 7.81983 14.8895 8.6115C15.6811 9.40316 16.077 10.3663 16.077 11.5009C16.077 11.7829 16.0517 12.0458 16.001 12.2893C15.9504 12.5329 15.8744 12.7611 15.7731 12.9739ZM18.9539 16.0855L17.8501 15.0509C18.4834 14.5676 19.0459 14.0384 19.5376 13.4634C20.0292 12.8884 20.4501 12.2342 20.8001 11.5009C19.9667 9.81756 18.7709 8.48006 17.2126 7.4884C15.6542 6.49673 13.9167 6.0009 12.0001 6.0009C11.5167 6.0009 11.0417 6.03423 10.5751 6.1009C10.1084 6.16756 9.65007 6.26756 9.20007 6.4009L8.03472 5.23555C8.66677 4.98426 9.31228 4.79901 9.97125 4.67977C10.6302 4.56054 11.3065 4.50092 12.0001 4.50092C14.3437 4.50092 16.4571 5.14707 18.3404 6.43937C20.2238 7.73169 21.5975 9.41886 22.4616 11.5009C22.0911 12.3945 21.6125 13.2284 21.026 14.0028C20.4395 14.7771 19.7488 15.4714 18.9539 16.0855ZM19.7616 21.8701L15.7155 17.8547C15.2027 18.0444 14.6344 18.1996 14.0107 18.3201C13.3869 18.4406 12.7167 18.5009 12.0001 18.5009C9.65009 18.5009 7.53664 17.8547 5.65972 16.5624C3.78281 15.2701 2.40909 13.5829 1.53857 11.5009C1.90781 10.6176 2.38473 9.79352 2.96935 9.02877C3.55397 8.26404 4.19756 7.60091 4.90012 7.03937L2.13087 4.23937L3.18472 3.18555L20.8154 20.8162L19.7616 21.8701ZM5.95395 8.09317C5.42575 8.51369 4.91197 9.01915 4.4126 9.60955C3.91323 10.1999 3.50906 10.8304 3.20007 11.5009C4.03341 13.1842 5.22924 14.5217 6.78757 15.5134C8.34591 16.5051 10.0834 17.0009 12.0001 17.0009C12.4552 17.0009 12.9084 16.9624 13.3597 16.8855C13.811 16.8086 14.1937 16.7291 14.5078 16.647L13.2424 15.3509C13.0719 15.4201 12.8744 15.4752 12.6501 15.5162C12.4257 15.5573 12.2091 15.5778 12.0001 15.5778C10.8655 15.5778 9.90234 15.182 9.11067 14.3903C8.31901 13.5986 7.92317 12.6355 7.92317 11.5009C7.92317 11.2983 7.94369 11.0865 7.98472 10.8653C8.02576 10.6442 8.08088 10.4419 8.1501 10.2586L5.95395 8.09317Z" />
    </symbol>

    <symbol viewBox="0 0 24 24" id="password-notview">
        <path d="M12.0023 15.5769C13.1354 15.5769 14.0978 15.1803 14.8895 14.3871C15.6811 13.5939 16.077 12.6308 16.077 11.4977C16.077 10.3646 15.6804 9.40224 14.8872 8.61058C14.094 7.81891 13.1309 7.42308 11.9978 7.42308C10.8647 7.42308 9.90234 7.81966 9.11067 8.61282C8.31901 9.40601 7.92317 10.3692 7.92317 11.5023C7.92317 12.6353 8.31976 13.5977 9.11293 14.3894C9.90611 15.181 10.8692 15.5769 12.0023 15.5769ZM12.0001 14.2C11.2501 14.2 10.6126 13.9375 10.0876 13.4125C9.56258 12.8875 9.30007 12.25 9.30007 11.5C9.30007 10.75 9.56258 10.1125 10.0876 9.58748C10.6126 9.06248 11.2501 8.79998 12.0001 8.79998C12.7501 8.79998 13.3876 9.06248 13.9126 9.58748C14.4376 10.1125 14.7001 10.75 14.7001 11.5C14.7001 12.25 14.4376 12.8875 13.9126 13.4125C13.3876 13.9375 12.7501 14.2 12.0001 14.2ZM12.0014 18.5C9.70183 18.5 7.60651 17.8657 5.71547 16.5971C3.82446 15.3285 2.43216 13.6295 1.53857 11.5C2.43216 9.37049 3.82401 7.67146 5.71412 6.40288C7.60422 5.13429 9.69908 4.5 11.9987 4.5C14.2983 4.5 16.3936 5.13429 18.2847 6.40288C20.1757 7.67146 21.568 9.37049 22.4616 11.5C21.568 13.6295 20.1761 15.3285 18.286 16.5971C16.3959 17.8657 14.3011 18.5 12.0014 18.5ZM12.0001 17C13.8834 17 15.6126 16.5041 17.1876 15.5125C18.7626 14.5208 19.9667 13.1833 20.8001 11.5C19.9667 9.81664 18.7626 8.47914 17.1876 7.48748C15.6126 6.49581 13.8834 5.99998 12.0001 5.99998C10.1167 5.99998 8.38757 6.49581 6.81257 7.48748C5.23757 8.47914 4.03341 9.81664 3.20007 11.5C4.03341 13.1833 5.23757 14.5208 6.81257 15.5125C8.38757 16.5041 10.1167 17 12.0001 17Z" />
    </symbol>

    <symbol viewBox="0 0 24 25" id="icon-favourite-catalogue">
        <path d="M12 20.8269L10.8962 19.8346C9.23847 18.3308 7.86763 17.0384 6.78365 15.9577C5.69968 14.8769 4.84072 13.9151 4.20675 13.0721C3.57277 12.2292 3.12982 11.4602 2.8779 10.7654C2.62597 10.0705 2.5 9.36538 2.5 8.65C2.5 7.23078 2.97852 6.04265 3.93558 5.0856C4.89263 4.12855 6.08076 3.65002 7.49998 3.65002C8.37306 3.65002 9.19806 3.8542 9.97498 4.26255C10.7519 4.67088 11.4269 5.25646 12 6.01927C12.5731 5.25646 13.2481 4.67088 14.025 4.26255C14.8019 3.8542 15.6269 3.65002 16.5 3.65002C17.9192 3.65002 19.1073 4.12855 20.0644 5.0856C21.0214 6.04265 21.5 7.23078 21.5 8.65C21.5 9.36538 21.374 10.0705 21.1221 10.7654C20.8701 11.4602 20.4272 12.2292 19.7932 13.0721C19.1592 13.9151 18.3019 14.8769 17.2211 15.9577C16.1403 17.0384 14.7679 18.3308 13.1038 19.8346L12 20.8269ZM12 18.8C13.6 17.3603 14.9166 16.1263 15.95 15.0981C16.9833 14.0699 17.8 13.1766 18.4 12.4183C19 11.6599 19.4166 10.9865 19.65 10.3981C19.8833 9.80961 20 9.22692 20 8.65C20 7.65 19.6666 6.81667 19 6.15C18.3333 5.48333 17.5 5.15 16.5 5.15C15.7102 5.15 14.9804 5.37404 14.3106 5.82213C13.6407 6.27019 13.1102 6.89359 12.7192 7.69233H11.2808C10.8833 6.88719 10.3513 6.26218 9.6846 5.8173C9.01793 5.37243 8.28973 5.15 7.49998 5.15C6.50639 5.15 5.67466 5.48333 5.00478 6.15C4.33491 6.81667 3.99998 7.65 3.99998 8.65C3.99998 9.22692 4.11664 9.80961 4.34998 10.3981C4.58331 10.9865 4.99998 11.6599 5.59998 12.4183C6.19998 13.1766 7.01664 14.0683 8.04998 15.0933C9.08331 16.1183 10.4 17.3539 12 18.8Z" />
    </symbol>

    <symbol viewBox="0 0 24 25" id="icon-favourite-catalogue-active">
        <path d="M12 20.8269L10.8962 19.8346C9.23847 18.3308 7.86763 17.0384 6.78365 15.9577C5.69968 14.8769 4.84072 13.9151 4.20675 13.0721C3.57277 12.2292 3.12982 11.4602 2.8779 10.7654C2.62597 10.0705 2.5 9.36538 2.5 8.65C2.5 7.23078 2.97852 6.04265 3.93558 5.0856C4.89263 4.12855 6.08076 3.65002 7.49998 3.65002C8.37306 3.65002 9.19806 3.8542 9.97498 4.26255C10.7519 4.67088 11.4269 5.25646 12 6.01927C12.5731 5.25646 13.2481 4.67088 14.025 4.26255C14.8019 3.8542 15.6269 3.65002 16.5 3.65002C17.9192 3.65002 19.1073 4.12855 20.0644 5.0856C21.0214 6.04265 21.5 7.23078 21.5 8.65C21.5 9.36538 21.374 10.0705 21.1221 10.7654C20.8701 11.4602 20.4272 12.2292 19.7932 13.0721C19.1592 13.9151 18.3019 14.8769 17.2211 15.9577C16.1403 17.0384 14.7679 18.3308 13.1038 19.8346L12 20.8269Z" />
    </symbol>

    <symbol viewBox="0 0 16 17" id="icon-cart-in">
        <path d="M6.3667 12.2691L2.8103 8.71274L3.52312 7.99994L6.3667 10.8435L12.477 4.73328L13.1898 5.44608L6.3667 12.2691Z" />
    </symbol>

    <symbol viewBox="0 0 60 60" id="cart-empty">
        <path d="M7.88574 45.6729V43.1729H31.3472V45.6729H7.88574ZM7.88574 33.7499V31.2499H18.8472V33.7499H7.88574ZM7.88574 21.8268V19.3268H18.8472V21.8268H7.88574ZM50.3473 45.7691L40.8184 36.2402C39.9466 36.9165 38.9891 37.4398 37.9458 37.81C36.9026 38.1802 35.8248 38.3652 34.7127 38.3652C31.9274 38.3652 29.5644 37.3949 27.6237 35.4542C25.683 33.5135 24.7126 31.1505 24.7126 28.3652C24.7126 25.58 25.683 23.217 27.6237 21.2763C29.5644 19.3356 31.9274 18.3652 34.7127 18.3652C37.4979 18.3652 39.8609 19.3356 41.8016 21.2763C43.7423 23.217 44.7127 25.58 44.7127 28.3652C44.7127 29.4774 44.5276 30.5551 44.1574 31.5984C43.7872 32.6417 43.264 33.5992 42.5877 34.471L52.1165 43.9999L50.3473 45.7691ZM34.7127 35.8652C36.796 35.8652 38.5668 35.1361 40.0252 33.6777C41.4835 32.2194 42.2127 30.4486 42.2127 28.3652C42.2127 26.2819 41.4835 24.5111 40.0252 23.0527C38.5668 21.5944 36.796 20.8652 34.7127 20.8652C32.6293 20.8652 30.8585 21.5944 29.4002 23.0527C27.9418 24.5111 27.2127 26.2819 27.2127 28.3652C27.2127 30.4486 27.9418 32.2194 29.4002 33.6777C30.8585 35.1361 32.6293 35.8652 34.7127 35.8652Z" />
    </symbol>

    <symbol viewBox="0 0 16 17" id="order-cart-link">
        <path d="M3.53325 15.1663C3.19992 15.1663 2.91659 15.0497 2.68325 14.8163C2.44992 14.583 2.33325 14.2997 2.33325 13.9663V5.03301C2.33325 4.69967 2.44992 4.41634 2.68325 4.18301C2.91659 3.94967 3.19992 3.83301 3.53325 3.83301H7.74992V4.83301H3.53325C3.48881 4.83301 3.44436 4.85523 3.39992 4.89967C3.35547 4.94412 3.33325 4.98856 3.33325 5.03301V13.9663C3.33325 14.0108 3.35547 14.0552 3.39992 14.0997C3.44436 14.1441 3.48881 14.1663 3.53325 14.1663H12.4666C12.511 14.1663 12.5555 14.1441 12.5999 14.0997C12.6444 14.0552 12.6666 14.0108 12.6666 13.9663V9.74967H13.6666V13.9663C13.6666 14.2997 13.5499 14.583 13.3166 14.8163C13.0833 15.0497 12.7999 15.1663 12.4666 15.1663H3.53325ZM6.48325 11.7163L5.78325 11.0163L11.9666 4.83301H9.33325V3.83301H13.6666V8.16634H12.6666V5.53301L6.48325 11.7163Z" />
    </symbol>

    <symbol viewBox="0 0 16 16" id="order-cart-item-remove">
        <path d="M4.26676 12.4362L3.56421 11.7337L7.29754 8.00034L3.56421 4.267L4.26676 3.56445L8.00009 7.29779L11.7334 3.56445L12.436 4.267L8.70264 8.00034L12.436 11.7337L11.7334 12.4362L8.00009 8.70289L4.26676 12.4362Z" />
    </symbol>

    <symbol viewBox="0 0 16 17" id="icon-logout">
        <path d="M3.6016 14.5C3.26486 14.5 2.97982 14.3834 2.74648 14.15C2.51315 13.9167 2.39648 13.6317 2.39648 13.2949V4.03851C2.39648 3.70175 2.51315 3.41671 2.74648 3.18337C2.97982 2.95004 3.26486 2.83337 3.6016 2.83337H8.07595V3.83336H3.6016C3.55031 3.83336 3.5033 3.85472 3.46057 3.89746C3.41782 3.9402 3.39645 3.98722 3.39645 4.03851V13.2949C3.39645 13.3462 3.41782 13.3932 3.46057 13.4359C3.5033 13.4787 3.55031 13.5 3.6016 13.5H8.07595V14.5H3.6016ZM10.7554 11.5128L10.0632 10.7898L11.6862 9.16669H6.07595V8.16671H11.6862L10.0632 6.54364L10.7554 5.82059L13.6016 8.66671L10.7554 11.5128Z" />
    </symbol>

    <symbol viewBox="0 0 16 17" id="header-user-menu-profile">
        <path d="M4.01473 12.0283C4.5814 11.6078 5.1987 11.2757 5.86665 11.0321C6.53459 10.7885 7.24549 10.6667 7.99933 10.6667C8.75318 10.6667 9.46407 10.7885 10.132 11.0321C10.8 11.2757 11.4173 11.6078 11.9839 12.0283C12.3985 11.5727 12.7269 11.0454 12.9692 10.4462C13.2115 9.84708 13.3327 9.19835 13.3327 8.50007C13.3327 7.02229 12.8132 5.76395 11.7743 4.72507C10.7354 3.68618 9.47711 3.16673 7.99933 3.16673C6.52155 3.16673 5.26322 3.68618 4.22433 4.72507C3.18544 5.76395 2.666 7.02229 2.666 8.50007C2.666 9.19835 2.78715 9.84708 3.02947 10.4462C3.27178 11.0454 3.6002 11.5727 4.01473 12.0283ZM7.99953 9.00005C7.39085 9.00005 6.87754 8.79114 6.4596 8.37333C6.04165 7.95551 5.83268 7.44227 5.83268 6.8336C5.83268 6.22492 6.04159 5.71161 6.4594 5.29367C6.87722 4.87572 7.39047 4.66675 7.99913 4.66675C8.60781 4.66675 9.12112 4.87565 9.53907 5.29347C9.95701 5.71129 10.166 6.22453 10.166 6.8332C10.166 7.44188 9.95708 7.95519 9.53927 8.37313C9.12144 8.79108 8.6082 9.00005 7.99953 9.00005ZM7.99933 14.8334C7.11984 14.8334 6.29485 14.668 5.52435 14.3372C4.75384 14.0064 4.08354 13.556 3.51345 12.9859C2.94337 12.4159 2.49295 11.7456 2.16218 10.975C1.8314 10.2045 1.66602 9.37955 1.66602 8.50007C1.66602 7.62058 1.8314 6.79558 2.16218 6.02508C2.49295 5.25457 2.94337 4.58427 3.51345 4.01418C4.08354 3.4441 4.75384 2.99368 5.52435 2.66292C6.29485 2.33214 7.11984 2.16675 7.99933 2.16675C8.87882 2.16675 9.70382 2.33214 10.4743 2.66292C11.2448 2.99368 11.9151 3.4441 12.4852 4.01418C13.0553 4.58427 13.5057 5.25457 13.8365 6.02508C14.1673 6.79558 14.3327 7.62058 14.3327 8.50007C14.3327 9.37955 14.1673 10.2045 13.8365 10.975C13.5057 11.7456 13.0553 12.4159 12.4852 12.9859C11.9151 13.556 11.2448 14.0064 10.4743 14.3372C9.70382 14.668 8.87882 14.8334 7.99933 14.8334ZM7.99933 13.8334C8.60104 13.8334 9.18117 13.7366 9.73971 13.543C10.2983 13.3494 10.7942 13.0787 11.2275 12.7308C10.7942 12.3958 10.3047 12.1347 9.75895 11.9475C9.21323 11.7603 8.62669 11.6667 7.99933 11.6667C7.37198 11.6667 6.78437 11.7592 6.2365 11.9443C5.68863 12.1293 5.20017 12.3915 4.77112 12.7308C5.20445 13.0787 5.70039 13.3494 6.25895 13.543C6.81749 13.7366 7.39762 13.8334 7.99933 13.8334ZM7.99933 8.00008C8.33095 8.00008 8.60831 7.88854 8.8314 7.66547C9.05448 7.44238 9.16602 7.16502 9.16602 6.8334C9.16602 6.50178 9.05448 6.22442 8.8314 6.00133C8.60831 5.77825 8.33095 5.66672 7.99933 5.66672C7.66771 5.66672 7.39035 5.77825 7.16727 6.00133C6.94419 6.22442 6.83265 6.50178 6.83265 6.8334C6.83265 7.16502 6.94419 7.44238 7.16727 7.66547C7.39035 7.88854 7.66771 8.00008 7.99933 8.00008Z" />
    </symbol>

    <symbol viewBox="0 0 20 21" id="icon-order-list">
        <path d="M7.75577 16.1249V14.875H17.0826V16.1249H7.75577ZM7.75577 11.1249V9.87498H17.0826V11.1249H7.75577ZM7.75577 6.12494V4.87498H17.0826V6.12494H7.75577ZM4.30222 16.8861C3.92102 16.8861 3.59468 16.7504 3.32322 16.479C3.05175 16.2075 2.91602 15.8812 2.91602 15.5C2.91602 15.1187 3.05175 14.7924 3.32322 14.521C3.59468 14.2495 3.92102 14.1138 4.30222 14.1138C4.68343 14.1138 5.00977 14.2495 5.28122 14.521C5.55268 14.7924 5.68841 15.1187 5.68841 15.5C5.68841 15.8812 5.55268 16.2075 5.28122 16.479C5.00977 16.7504 4.68343 16.8861 4.30222 16.8861ZM4.30222 11.8861C3.92102 11.8861 3.59468 11.7504 3.32322 11.479C3.05175 11.2075 2.91602 10.8812 2.91602 10.5C2.91602 10.1187 3.05175 9.79242 3.32322 9.52096C3.59468 9.2495 3.92102 9.11377 4.30222 9.11377C4.68343 9.11377 5.00977 9.2495 5.28122 9.52096C5.55268 9.79242 5.68841 10.1187 5.68841 10.5C5.68841 10.8812 5.55268 11.2075 5.28122 11.479C5.00977 11.7504 4.68343 11.8861 4.30222 11.8861ZM4.30222 6.88614C3.92102 6.88614 3.59468 6.75042 3.32322 6.47896C3.05175 6.2075 2.91602 5.88117 2.91602 5.49996C2.91602 5.11875 3.05175 4.79242 3.32322 4.52096C3.59468 4.2495 3.92102 4.11377 4.30222 4.11377C4.68343 4.11377 5.00977 4.2495 5.28122 4.52096C5.55268 4.79242 5.68841 5.11875 5.68841 5.49996C5.68841 5.88117 5.55268 6.2075 5.28122 6.47896C5.00977 6.75042 4.68343 6.88614 4.30222 6.88614Z" />
    </symbol>

    <symbol viewBox="0 0 20 21" id="icon-support">
        <path d="M6.6673 9.5704C6.87135 9.5704 7.04523 9.49855 7.18892 9.35486C7.33262 9.21116 7.40446 9.03729 7.40446 8.83323C7.40446 8.62918 7.33262 8.4553 7.18892 8.31161C7.04523 8.16791 6.87135 8.09607 6.6673 8.09607C6.46324 8.09607 6.28937 8.16791 6.14567 8.31161C6.00198 8.4553 5.93013 8.62918 5.93013 8.83323C5.93013 9.03729 6.00198 9.21116 6.14567 9.35486C6.28937 9.49855 6.46324 9.5704 6.6673 9.5704ZM10.0006 9.5704C10.2047 9.5704 10.3786 9.49855 10.5223 9.35486C10.666 9.21116 10.7378 9.03729 10.7378 8.83323C10.7378 8.62918 10.666 8.4553 10.5223 8.31161C10.3786 8.16791 10.2047 8.09607 10.0006 8.09607C9.79657 8.09607 9.6227 8.16791 9.47901 8.31161C9.33531 8.4553 9.26346 8.62918 9.26346 8.83323C9.26346 9.03729 9.33531 9.21116 9.47901 9.35486C9.6227 9.49855 9.79657 9.5704 10.0006 9.5704ZM13.334 9.5704C13.538 9.5704 13.7119 9.49855 13.8556 9.35486C13.9993 9.21116 14.0711 9.03729 14.0711 8.83323C14.0711 8.62918 13.9993 8.4553 13.8556 8.31161C13.7119 8.16791 13.538 8.09607 13.334 8.09607C13.1299 8.09607 12.956 8.16791 12.8123 8.31161C12.6686 8.4553 12.5968 8.62918 12.5968 8.83323C12.5968 9.03729 12.6686 9.21116 12.8123 9.35486C12.956 9.49855 13.1299 9.5704 13.334 9.5704ZM2.08398 18.0319V4.08967C2.08398 3.66873 2.22982 3.31242 2.52148 3.02075C2.81315 2.72909 3.16946 2.58325 3.5904 2.58325H16.4109C16.8318 2.58325 17.1881 2.72909 17.4798 3.02075C17.7714 3.31242 17.9173 3.66873 17.9173 4.08967V13.5768C17.9173 13.9977 17.7714 14.354 17.4798 14.6457C17.1881 14.9374 16.8318 15.0832 16.4109 15.0832H5.03269L2.08398 18.0319ZM4.50065 13.8332H16.4109C16.475 13.8332 16.5337 13.8065 16.5872 13.7531C16.6406 13.6997 16.6673 13.6409 16.6673 13.5768V4.08967C16.6673 4.02556 16.6406 3.96679 16.5872 3.91336C16.5337 3.85994 16.475 3.83323 16.4109 3.83323H3.5904C3.52629 3.83323 3.46752 3.85994 3.41409 3.91336C3.36067 3.96679 3.33396 4.02556 3.33396 4.08967V14.9871L4.50065 13.8332Z" />
    </symbol>

    <symbol viewBox="0 0 20 20" id="icon-edit">
        <path d="M4.29488 15.8333H5.32532L13.0417 8.11692L12.0113 7.08647L4.29488 14.8029V15.8333ZM15.7147 7.21309L12.9023 4.42628L13.9888 3.33976C14.2335 3.0951 14.531 2.97278 14.8814 2.97278C15.2318 2.97278 15.5294 3.0951 15.774 3.33976L16.7884 4.35415C17.0331 4.59881 17.1597 4.89207 17.1682 5.23395C17.1768 5.57582 17.0587 5.86908 16.8141 6.11374L15.7147 7.21309ZM14.8109 8.12974L5.85736 17.0833H3.04492V14.2708L11.9984 5.31728L14.8109 8.12974Z" />
    </symbol>

    <symbol viewBox="0 0 20 20" id="icon-cancel">
        <path d="M5.33327 15.5448L4.45508 14.6666L9.12174 9.99993L4.45508 5.33327L5.33327 4.45508L9.99993 9.12174L14.6666 4.45508L15.5448 5.33327L10.8781 9.99993L15.5448 14.6666L14.6666 15.5448L9.99993 10.8781L5.33327 15.5448Z" />
    </symbol>

    <symbol viewBox="0 0 24 25" id="personal-orders-item-header">
        <path d="M11.9995 15.5382L6.3457 9.88439L7.39953 8.83057L11.9995 13.4306L16.5995 8.83057L17.6534 9.88439L11.9995 15.5382Z" />
    </symbol>

    <symbol viewBox="0 0 20 20" id="status-new">
        <path d="M9.58333 13.75H10.4167V9.16667H9.58333V13.75ZM10 7.98077C10.1453 7.98077 10.2671 7.93162 10.3654 7.83333C10.4637 7.73504 10.5128 7.61324 10.5128 7.46794C10.5128 7.32265 10.4637 7.20085 10.3654 7.10256C10.2671 7.00427 10.1453 6.95513 10 6.95513C9.85469 6.95513 9.7329 7.00427 9.6346 7.10256C9.53633 7.20085 9.48719 7.32265 9.48719 7.46794C9.48719 7.61324 9.53633 7.73504 9.6346 7.83333C9.7329 7.93162 9.85469 7.98077 10 7.98077ZM10.0028 17.5C8.96567 17.5 7.9906 17.3032 7.07758 16.9096C6.16457 16.516 5.37037 15.9818 4.69498 15.3071C4.0196 14.6323 3.48493 13.8389 3.09096 12.9267C2.69699 12.0145 2.5 11.0399 2.5 10.0028C2.5 8.96567 2.6968 7.9906 3.0904 7.07758C3.48401 6.16457 4.01819 5.37037 4.69294 4.69498C5.36769 4.0196 6.16114 3.48493 7.07329 3.09096C7.98546 2.69699 8.9601 2.5 9.99721 2.5C11.0343 2.5 12.0094 2.6968 12.9224 3.0904C13.8354 3.48401 14.6296 4.01819 15.305 4.69294C15.9804 5.36769 16.5151 6.16114 16.909 7.07329C17.303 7.98546 17.5 8.9601 17.5 9.99721C17.5 11.0343 17.3032 12.0094 16.9096 12.9224C16.516 13.8354 15.9818 14.6296 15.3071 15.305C14.6323 15.9804 13.8389 16.5151 12.9267 16.909C12.0145 17.303 11.0399 17.5 10.0028 17.5ZM10 16.6667C11.8611 16.6667 13.4375 16.0208 14.7292 14.7292C16.0208 13.4375 16.6667 11.8611 16.6667 10C16.6667 8.13889 16.0208 6.5625 14.7292 5.27083C13.4375 3.97917 11.8611 3.33333 10 3.33333C8.13889 3.33333 6.5625 3.97917 5.27083 5.27083C3.97917 6.5625 3.33333 8.13889 3.33333 10C3.33333 11.8611 3.97917 13.4375 5.27083 14.7292C6.5625 16.0208 8.13889 16.6667 10 16.6667Z" />
    </symbol>

    <symbol viewBox="0 0 20 21" id="status-payment">
        <path d="M6.92234 17.1667H13.0762V14.6667C13.0762 13.7286 12.7872 12.9065 12.2092 12.2003C11.6312 11.4941 10.8946 11.141 9.99925 11.141C9.10395 11.141 8.3673 11.4941 7.78932 12.2003C7.21133 12.9065 6.92234 13.7286 6.92234 14.6667V17.1667ZM9.99925 9.85898C10.8946 9.85898 11.6312 9.50588 12.2092 8.79969C12.7872 8.09348 13.0762 7.27136 13.0762 6.33333V3.83333H6.92234V6.33333C6.92234 7.27136 7.21133 8.09348 7.78932 8.79969C8.3673 9.50588 9.10395 9.85898 9.99925 9.85898ZM4.32617 18V17.1667H6.08898V14.6667C6.08898 13.7019 6.35635 12.832 6.89107 12.0569C7.42579 11.2818 8.14347 10.7628 9.04411 10.5C8.14347 10.2372 7.42579 9.71821 6.89107 8.9431C6.35635 8.16799 6.08898 7.29807 6.08898 6.33333V3.83333H4.32617V3H15.6723V3.83333H13.9095V6.33333C13.9095 7.29807 13.6422 8.16799 13.1074 8.9431C12.5727 9.71821 11.855 10.2372 10.9544 10.5C11.855 10.7628 12.5727 11.2818 13.1074 12.0569C13.6422 12.832 13.9095 13.7019 13.9095 14.6667V17.1667H15.6723V18H4.32617Z" />
    </symbol>

    <symbol viewBox="0 0 20 21" id="status-processing">
        <path d="M10.0416 16.75C8.29798 16.75 6.81347 16.1416 5.58805 14.9247C4.36262 13.7078 3.74991 12.2329 3.74991 10.5V9.34456L1.99991 11.0946L1.41016 10.5048L4.16657 7.7484L6.92299 10.5048L6.33324 11.0946L4.58324 9.34456V10.5C4.58324 12.0064 5.11289 13.2858 6.17218 14.3381C7.23148 15.3905 8.52128 15.9167 10.0416 15.9167C10.3706 15.9167 10.7061 15.883 11.048 15.8157C11.3899 15.7484 11.7221 15.6474 12.0448 15.5128L12.6698 16.1378C12.2595 16.3365 11.8327 16.4883 11.3893 16.593C10.9459 16.6977 10.4967 16.75 10.0416 16.75ZM15.8332 13.2516L13.0768 10.4952L13.6666 9.90544L15.4166 11.6554V10.5C15.4166 8.9936 14.8869 7.71421 13.8276 6.66185C12.7683 5.60951 11.4785 5.08333 9.95824 5.08333C9.62918 5.08333 9.29371 5.11699 8.95182 5.18429C8.60995 5.2516 8.27768 5.35256 7.95503 5.48719L7.33003 4.86219C7.74028 4.66347 8.1671 4.51175 8.61049 4.40704C9.05387 4.30235 9.50312 4.25 9.95824 4.25C11.7018 4.25 13.1863 4.85844 14.4118 6.07531C15.6372 7.2922 16.2499 8.7671 16.2499 10.5V11.6554L17.9999 9.90544L18.5897 10.4952L15.8332 13.2516Z" />
    </symbol>

    <symbol viewBox="0 0 20 21" id="status-execution">
        <path d="M8.33268 13.4806V7.51909L12.9801 10.4999L8.33268 13.4806ZM9.99935 18.8332C8.38184 18.8332 6.9195 18.4173 5.61233 17.5856C4.30518 16.7539 3.26752 15.5811 2.49935 14.0672V17.1665H1.66602V12.6793H6.13716V13.5127H3.16602C3.81025 14.8962 4.73894 15.99 5.95208 16.7939C7.16522 17.5979 8.51431 17.9999 9.99935 17.9999C11.65 17.9999 13.1326 17.5068 14.4473 16.5207C15.7619 15.5346 16.6617 14.2525 17.1468 12.6745L17.9705 12.8412C17.4524 14.6339 16.4588 16.0808 14.9897 17.1818C13.5207 18.2827 11.8573 18.8332 9.99935 18.8332ZM1.70768 9.66653C1.81559 8.80007 2.0111 8.02255 2.29422 7.33398C2.57734 6.64541 2.9924 5.94537 3.53941 5.23384L4.15 5.81236C3.70555 6.39248 3.36046 6.97608 3.11472 7.56315C2.869 8.15023 2.67937 8.85136 2.54583 9.66653H1.70768ZM5.31664 4.66171L4.7381 4.05113C5.41011 3.52549 6.11898 3.10963 6.8647 2.80355C7.61045 2.49745 8.37756 2.30968 9.16602 2.24023V3.07357C8.48974 3.14301 7.82414 3.31396 7.16922 3.5864C6.51431 3.85883 5.89677 4.21727 5.31664 4.66171ZM14.6548 4.66171C14.1494 4.23864 13.5471 3.88287 12.8479 3.5944C12.1486 3.30594 11.4769 3.13233 10.8327 3.07357V2.24023C11.6243 2.31289 12.3938 2.50413 13.1412 2.81396C13.8885 3.12378 14.5912 3.54152 15.2493 4.06717L14.6548 4.66171ZM17.4256 9.66653C17.3348 8.89409 17.1532 8.1903 16.8807 7.55515C16.6083 6.92 16.2499 6.34441 15.8054 5.82838L16.4 5.23384C16.9363 5.87059 17.3594 6.56263 17.6692 7.30996C17.9791 8.05728 18.1756 8.8428 18.259 9.66653H17.4256Z" />
    </symbol>

    <symbol viewBox="0 0 20 21" id="status-rejected">
        <path d="M7 14.0898L10 11.0898L13 14.0898L13.5898 13.5L10.5898 10.5L13.5898 7.5L13 6.91025L10 9.91025L7 6.91025L6.41025 7.5L9.41025 10.5L6.41025 13.5L7 14.0898ZM10.0028 18C8.96567 18 7.9906 17.8032 7.07758 17.4096C6.16457 17.016 5.37037 16.4818 4.69498 15.8071C4.0196 15.1323 3.48493 14.3389 3.09096 13.4267C2.69699 12.5145 2.5 11.5399 2.5 10.5028C2.5 9.46567 2.6968 8.4906 3.0904 7.57758C3.48401 6.66457 4.01819 5.87037 4.69294 5.19498C5.36769 4.5196 6.16114 3.98493 7.07329 3.59096C7.98546 3.19699 8.9601 3 9.99721 3C11.0343 3 12.0094 3.1968 12.9224 3.5904C13.8354 3.98401 14.6296 4.51819 15.305 5.19294C15.9804 5.86769 16.5151 6.66114 16.909 7.57329C17.303 8.48546 17.5 9.4601 17.5 10.4972C17.5 11.5343 17.3032 12.5094 16.9096 13.4224C16.516 14.3354 15.9818 15.1296 15.3071 15.805C14.6323 16.4804 13.8389 17.0151 12.9267 17.409C12.0145 17.803 11.0399 18 10.0028 18ZM10 17.1667C11.8611 17.1667 13.4375 16.5208 14.7292 15.2292C16.0208 13.9375 16.6667 12.3611 16.6667 10.5C16.6667 8.63889 16.0208 7.0625 14.7292 5.77083C13.4375 4.47917 11.8611 3.83333 10 3.83333C8.13889 3.83333 6.5625 4.47917 5.27083 5.77083C3.97917 7.0625 3.33333 8.63889 3.33333 10.5C3.33333 12.3611 3.97917 13.9375 5.27083 15.2292C6.5625 16.5208 8.13889 17.1667 10 17.1667Z" />
    </symbol>

    <symbol viewBox="0 0 20 21" id="status-completed">
        <path d="M8.80129 13.7564L14.1314 8.42629L13.5417 7.83654L8.80129 12.5769L6.42629 10.2019L5.83654 10.7917L8.80129 13.7564ZM10.0028 18C8.96567 18 7.9906 17.8032 7.07758 17.4096C6.16457 17.016 5.37037 16.4818 4.69498 15.8071C4.0196 15.1323 3.48493 14.3389 3.09096 13.4267C2.69699 12.5145 2.5 11.5399 2.5 10.5028C2.5 9.46567 2.6968 8.4906 3.0904 7.57758C3.48401 6.66457 4.01819 5.87037 4.69294 5.19498C5.36769 4.5196 6.16114 3.98493 7.07329 3.59096C7.98546 3.19699 8.9601 3 9.99721 3C11.0343 3 12.0094 3.1968 12.9224 3.5904C13.8354 3.98401 14.6296 4.51819 15.305 5.19294C15.9804 5.86769 16.5151 6.66114 16.909 7.57329C17.303 8.48546 17.5 9.4601 17.5 10.4972C17.5 11.5343 17.3032 12.5094 16.9096 13.4224C16.516 14.3354 15.9818 15.1296 15.3071 15.805C14.6323 16.4804 13.8389 17.0151 12.9267 17.409C12.0145 17.803 11.0399 18 10.0028 18ZM10 17.1667C11.8611 17.1667 13.4375 16.5208 14.7292 15.2292C16.0208 13.9375 16.6667 12.3611 16.6667 10.5C16.6667 8.63889 16.0208 7.0625 14.7292 5.77083C13.4375 4.47917 11.8611 3.83333 10 3.83333C8.13889 3.83333 6.5625 4.47917 5.27083 5.77083C3.97917 7.0625 3.33333 8.63889 3.33333 10.5C3.33333 12.3611 3.97917 13.9375 5.27083 15.2292C6.5625 16.5208 8.13889 17.1667 10 17.1667Z" />
    </symbol>

    <symbol viewBox="0 0 20 20" id="status-paid">
        <path d="M9.5731 17.0832V15.3877C8.85837 15.2958 8.24432 15.0484 7.73096 14.6457C7.21761 14.2429 6.83594 13.6857 6.58594 12.9742L7.35837 12.6376C7.59876 13.2616 7.92916 13.7418 8.34956 14.0784C8.76997 14.4149 9.34021 14.5832 10.0603 14.5832C10.6938 14.5832 11.2726 14.4253 11.7967 14.1096C12.3207 13.7939 12.5827 13.2851 12.5827 12.5832C12.5827 11.9902 12.3899 11.514 12.0042 11.1545C11.6185 10.795 10.8968 10.4454 9.83915 10.1056C8.76222 9.76266 8.0042 9.37084 7.5651 8.93013C7.12599 8.48942 6.90644 7.91543 6.90644 7.20817C6.90644 6.4336 7.20345 5.81501 7.79748 5.3524C8.39149 4.88979 8.98337 4.63979 9.5731 4.6024V2.9165H10.4065V4.6024C10.9834 4.66009 11.4788 4.82009 11.8928 5.08238C12.3068 5.34466 12.65 5.71778 12.9225 6.20175L12.1821 6.57996C11.9834 6.22099 11.7099 5.93039 11.3616 5.70817C11.0133 5.48595 10.5699 5.37484 10.0315 5.37484C9.38829 5.37484 8.84556 5.54498 8.40325 5.88525C7.96094 6.22553 7.73979 6.6665 7.73979 7.20817C7.73979 7.71992 7.92142 8.13445 8.28467 8.45175C8.6479 8.76906 9.37547 9.10026 10.4674 9.44536C11.4791 9.76586 12.2235 10.1774 12.7005 10.6801C13.1775 11.1828 13.4161 11.8139 13.4161 12.5735C13.4161 13.4101 13.1217 14.0746 12.5331 14.5671C11.9444 15.0597 11.2355 15.3364 10.4065 15.3973V17.0832H9.5731Z" />
    </symbol>

    <symbol viewBox="0 0 17 17" id="icon-hint">
        <path d="M8.65801 12.2434C8.84837 12.2434 9.00915 12.1777 9.14035 12.0462C9.27154 11.9148 9.33713 11.7539 9.33713 11.5636C9.33713 11.3732 9.27141 11.2124 9.13998 11.0812C9.00855 10.95 8.84765 10.8844 8.6573 10.8844C8.46694 10.8844 8.30617 10.9502 8.17498 11.0816C8.04378 11.213 7.97818 11.3739 7.97818 11.5643C7.97818 11.7546 8.0439 11.9154 8.17533 12.0466C8.30676 12.1778 8.46766 12.2434 8.65801 12.2434ZM8.18586 9.85622H9.12431C9.13286 9.52802 9.18094 9.26584 9.26855 9.06969C9.35615 8.87354 9.56875 8.6135 9.90636 8.28957C10.1995 7.9964 10.4241 7.72568 10.5801 7.47739C10.7361 7.2291 10.814 6.93588 10.814 6.59774C10.814 6.02393 10.6079 5.57569 10.1955 5.25304C9.78309 4.93039 9.29527 4.76907 8.73201 4.76907C8.17561 4.76907 7.71515 4.91758 7.35061 5.21459C6.98609 5.51159 6.72605 5.86137 6.5705 6.26392L7.42688 6.6075C7.50808 6.38614 7.64697 6.17054 7.84355 5.96072C8.04014 5.75089 8.33202 5.64597 8.7192 5.64597C9.11322 5.64597 9.40446 5.75388 9.59291 5.9697C9.78138 6.18552 9.87562 6.42291 9.87562 6.68189C9.87562 6.90838 9.81108 7.11564 9.68201 7.30367C9.55296 7.4917 9.38843 7.67333 9.18843 7.84856C8.75083 8.24342 8.47434 8.55838 8.35895 8.79342C8.24356 9.02847 8.18586 9.38273 8.18586 9.85622ZM8.66646 14.8331C7.79051 14.8331 6.96715 14.6669 6.1964 14.3345C5.42563 14.002 4.75518 13.5509 4.18503 12.981C3.61488 12.4111 3.1635 11.7409 2.83091 10.9705C2.49833 10.2001 2.33203 9.37689 2.33203 8.50094C2.33203 7.62498 2.49825 6.80163 2.8307 6.03087C3.16314 5.2601 3.61431 4.58965 4.1842 4.0195C4.7541 3.44935 5.42426 2.99798 6.19468 2.66539C6.96509 2.3328 7.78828 2.1665 8.66423 2.1665C9.54019 2.1665 10.3635 2.33273 11.1343 2.66517C11.9051 2.99762 12.5755 3.44878 13.1457 4.01867C13.7158 4.58857 14.1672 5.25873 14.4998 6.02915C14.8324 6.79957 14.9987 7.62275 14.9987 8.4987C14.9987 9.37466 14.8324 10.198 14.5 10.9688C14.1676 11.7395 13.7164 12.41 13.1465 12.9801C12.5766 13.5503 11.9064 14.0017 11.136 14.3343C10.3656 14.6668 9.54242 14.8331 8.66646 14.8331ZM8.66535 13.8332C10.1542 13.8332 11.4153 13.3165 12.4487 12.2832C13.482 11.2498 13.9987 9.98871 13.9987 8.49982C13.9987 7.01093 13.482 5.74982 12.4487 4.71649C11.4153 3.68315 10.1542 3.16649 8.66535 3.16649C7.17646 3.16649 5.91535 3.68315 4.88201 4.71649C3.84868 5.74982 3.33201 7.01093 3.33201 8.49982C3.33201 9.98871 3.84868 11.2498 4.88201 12.2832C5.91535 13.3165 7.17646 13.8332 8.66535 13.8332Z" />
    </symbol>

    <symbol viewBox="0 0 24 24" id="icon-info">
        <path d="M11 17H13V11H11V17ZM12 9C12.2833 9 12.5208 8.90417 12.7125 8.7125C12.9042 8.52083 13 8.28333 13 8C13 7.71667 12.9042 7.47917 12.7125 7.2875C12.5208 7.09583 12.2833 7 12 7C11.7167 7 11.4792 7.09583 11.2875 7.2875C11.0958 7.47917 11 7.71667 11 8C11 8.28333 11.0958 8.52083 11.2875 8.7125C11.4792 8.90417 11.7167 9 12 9ZM12 22C10.6167 22 9.31667 21.7375 8.1 21.2125C6.88333 20.6875 5.825 19.975 4.925 19.075C4.025 18.175 3.3125 17.1167 2.7875 15.9C2.2625 14.6833 2 13.3833 2 12C2 10.6167 2.2625 9.31667 2.7875 8.1C3.3125 6.88333 4.025 5.825 4.925 4.925C5.825 4.025 6.88333 3.3125 8.1 2.7875C9.31667 2.2625 10.6167 2 12 2C13.3833 2 14.6833 2.2625 15.9 2.7875C17.1167 3.3125 18.175 4.025 19.075 4.925C19.975 5.825 20.6875 6.88333 21.2125 8.1C21.7375 9.31667 22 10.6167 22 12C22 13.3833 21.7375 14.6833 21.2125 15.9C20.6875 17.1167 19.975 18.175 19.075 19.075C18.175 19.975 17.1167 20.6875 15.9 21.2125C14.6833 21.7375 13.3833 22 12 22ZM12 20C14.2333 20 16.125 19.225 17.675 17.675C19.225 16.125 20 14.2333 20 12C20 9.76667 19.225 7.875 17.675 6.325C16.125 4.775 14.2333 4 12 4C9.76667 4 7.875 4.775 6.325 6.325C4.775 7.875 4 9.76667 4 12C4 14.2333 4.775 16.125 6.325 17.675C7.875 19.225 9.76667 20 12 20Z" />
    </symbol>

    <symbol viewBox="0 0 18 19" id="icon-href">
        <path d="M3.975 15.875C3.6 15.875 3.28125 15.7438 3.01875 15.4813C2.75625 15.2188 2.625 14.9 2.625 14.525V4.475C2.625 4.1 2.75625 3.78125 3.01875 3.51875C3.28125 3.25625 3.6 3.125 3.975 3.125H8.71875V4.25H3.975C3.925 4.25 3.875 4.275 3.825 4.325C3.775 4.375 3.75 4.425 3.75 4.475V14.525C3.75 14.575 3.775 14.625 3.825 14.675C3.875 14.725 3.925 14.75 3.975 14.75H14.025C14.075 14.75 14.125 14.725 14.175 14.675C14.225 14.625 14.25 14.575 14.25 14.525V9.78125H15.375V14.525C15.375 14.9 15.2438 15.2188 14.9813 15.4813C14.7188 15.7438 14.4 15.875 14.025 15.875H3.975ZM7.29375 11.9937L6.50625 11.2062L13.4625 4.25H10.5V3.125H15.375V8H14.25V5.0375L7.29375 11.9937Z" />
    </symbol>

    <symbol viewBox="0 0 20 21" id="order-detail-back">
        <path d="M11.6666 15.2111L6.95508 10.4996L11.6666 5.78809L12.5448 6.66627L8.71145 10.4996L12.5448 14.3329L11.6666 15.2111Z" />
    </symbol>

    <symbol viewBox="0 0 21 20" id="btn-payment">
        <path d="M9.9109 15.6727H11.0487V14.6631C11.6951 14.5755 12.2803 14.3327 12.8043 13.9347C13.3283 13.5368 13.5904 12.9334 13.5904 12.1247C13.5904 11.5413 13.4184 11.0253 13.0743 10.5766C12.7303 10.1279 12.0583 9.72295 11.0583 9.36184C10.1822 9.06269 9.6005 8.80361 9.31311 8.58459C9.02572 8.36558 8.88203 8.05949 8.88203 7.66632C8.88203 7.27315 9.0292 6.95371 9.32355 6.70799C9.61788 6.46225 10.0241 6.33938 10.5423 6.33938C10.9761 6.33938 11.326 6.44168 11.592 6.64628C11.858 6.85088 12.0626 7.10755 12.2058 7.4163L13.2346 7.00286C13.0604 6.55949 12.7765 6.17995 12.3828 5.86424C11.9891 5.54854 11.5583 5.37253 11.0904 5.3362V4.32659H9.95257V5.3362C9.2421 5.47295 8.69642 5.76114 8.31555 6.20078C7.93467 6.64042 7.74424 7.12893 7.74424 7.66632C7.74424 8.29239 7.93387 8.79613 8.31315 9.17753C8.69242 9.55895 9.31047 9.9035 10.1673 10.2112C11.053 10.536 11.658 10.8274 11.9822 11.0854C12.3065 11.3434 12.4686 11.6898 12.4686 12.1247C12.4686 12.6471 12.28 13.0266 11.9029 13.2633C11.5257 13.4999 11.1 13.6183 10.6256 13.6183C10.1566 13.6183 9.73701 13.4772 9.36682 13.1952C8.99662 12.9131 8.71217 12.5007 8.51344 11.958L7.45898 12.3875C7.67479 13.0061 7.98489 13.4975 8.38928 13.8618C8.79365 14.2261 9.30086 14.4794 9.9109 14.6214V15.6727ZM10.5006 17.9163C9.40662 17.9163 8.37804 17.7082 7.4149 17.2921C6.45176 16.876 5.61389 16.3116 4.9013 15.599C4.18869 14.8864 3.62432 14.0485 3.20819 13.0854C2.79205 12.1222 2.58398 11.0937 2.58398 9.99965C2.58398 8.90564 2.79205 7.87706 3.20819 6.91393C3.62432 5.95079 4.18869 5.11292 4.9013 4.40032C5.61389 3.68771 6.45176 3.12334 7.4149 2.70722C8.37804 2.29108 9.40662 2.08301 10.5006 2.08301C11.5946 2.08301 12.6232 2.29108 13.5864 2.70722C14.5495 3.12334 15.3874 3.68771 16.1 4.40032C16.8126 5.11292 17.3769 5.95079 17.7931 6.91393C18.2092 7.87706 18.4173 8.90564 18.4173 9.99965C18.4173 11.0937 18.2092 12.1222 17.7931 13.0854C17.3769 14.0485 16.8126 14.8864 16.1 15.599C15.3874 16.3116 14.5495 16.876 13.5864 17.2921C12.6232 17.7082 11.5946 17.9163 10.5006 17.9163ZM10.5006 16.6663C12.3617 16.6663 13.9381 16.0205 15.2298 14.7288C16.5215 13.4372 17.1673 11.8608 17.1673 9.99965C17.1673 8.13854 16.5215 6.56215 15.2298 5.27049C13.9381 3.97882 12.3617 3.33299 10.5006 3.33299C8.63952 3.33299 7.06313 3.97882 5.77146 5.27049C4.4798 6.56215 3.83396 8.13854 3.83396 9.99965C3.83396 11.8608 4.4798 13.4372 5.77146 14.7288C7.06313 16.0205 8.63952 16.6663 10.5006 16.6663Z" />
    </symbol>

    <symbol viewBox="0 0 20 21" id="message-read">
        <path d="M5.58392 15.2112L1.16406 10.7914L2.05506 9.9132L5.59673 13.4549L5.88523 13.1664L6.7634 14.0446L5.58392 15.2112ZM10.2923 15.2112L5.8724 10.7914L6.75058 9.90039L10.2923 13.4421L17.9589 5.77539L18.8371 6.66639L10.2923 15.2112ZM10.0038 10.7914L9.11277 9.9132L13.2378 5.7882L14.1288 6.66639L10.0038 10.7914Z" />
    </symbol>

    <symbol viewBox="0 0 22 22" id="icon-file">
        <path d="M5.78206 19.7086C5.31902 19.7086 4.92708 19.5482 4.60625 19.2274C4.28542 18.9065 4.125 18.5146 4.125 18.0516V3.94905C4.125 3.48601 4.28542 3.09408 4.60625 2.77324C4.92708 2.45241 5.31902 2.29199 5.78206 2.29199H13.0625L17.875 7.10445V18.0516C17.875 18.5146 17.7145 18.9065 17.3937 19.2274C17.0729 19.5482 16.6809 19.7086 16.2179 19.7086H5.78206ZM12.375 7.79195V3.66697H5.78206C5.71154 3.66697 5.64689 3.69635 5.58811 3.75511C5.52936 3.81388 5.49998 3.87853 5.49998 3.94905V18.0516C5.49998 18.1221 5.52936 18.1867 5.58811 18.2455C5.64689 18.3043 5.71154 18.3336 5.78206 18.3336H16.2179C16.2884 18.3336 16.3531 18.3043 16.4118 18.2455C16.4706 18.1867 16.5 18.1221 16.5 18.0516V7.79195H12.375Z" />
    </symbol>

    <symbol viewBox="0 0 24 24" id="btn-send">
        <path d="M5.5 19.2499V4.75L22.7114 11.9999L5.5 19.2499ZM6.99997 16.9999L18.85 11.9999L6.99997 6.99995V10.6923L12.423 11.9999L6.99997 13.3076V16.9999Z" />
    </symbol>

    <symbol viewBox="0 0 18 18" id="support-tickets-ctrl-filters">
        <path d="M8.4375 15.5625V11.4375H9.56246V12.9375H15.5625V14.0625H9.56246V15.5625H8.4375ZM2.4375 14.0625V12.9375H6.56246V14.0625H2.4375ZM5.4375 11.0625V9.56246H2.4375V8.4375H5.4375V6.9375H6.56246V11.0625H5.4375ZM8.4375 9.56246V8.4375H15.5625V9.56246H8.4375ZM11.4375 6.56246V2.4375H12.5625V3.9375H15.5625V5.06246H12.5625V6.56246H11.4375ZM2.4375 5.06246V3.9375H9.56246V5.06246H2.4375Z" />
    </symbol>

    <symbol viewBox="0 0 14 14" id="support-tickets-ctrl-filters-selected-item-remove">
        <path d="M3.73583 10.8819L3.12109 10.2672L6.38776 7.00054L3.12109 3.73387L3.73583 3.11914L7.00249 6.38581L10.2692 3.11914L10.8839 3.73387L7.61722 7.00054L10.8839 10.2672L10.2692 10.8819L7.00249 7.61527L3.73583 10.8819Z" />
    </symbol>

    <symbol viewBox="0 0 16 16" id="support-tickets-item-content-btn">
        <path d="M9.89035 12.4423L9.17755 11.7462L12.4301 8.49362H1.66602V7.49364H12.4365L9.19422 4.24106L9.89035 3.54492L14.339 7.99362L9.89035 12.4423Z" />
    </symbol>

    <symbol viewBox="0 0 24 24" id="icon-camera">
        <path d="M12 17.1153C13.1474 17.1153 14.1202 16.7163 14.9182 15.9182C15.7163 15.1202 16.1153 14.1474 16.1153 13C16.1153 11.8525 15.7163 10.8798 14.9182 10.0817C14.1202 9.28366 13.1474 8.88463 12 8.88463C10.8525 8.88463 9.87979 9.28366 9.08173 10.0817C8.28366 10.8798 7.88462 11.8525 7.88462 13C7.88462 14.1474 8.28366 15.1202 9.08173 15.9182C9.87979 16.7163 10.8525 17.1153 12 17.1153ZM4.3077 20.5C3.80257 20.5 3.375 20.325 3.025 19.975C2.675 19.625 2.5 19.1974 2.5 18.6923V7.3077C2.5 6.80257 2.675 6.375 3.025 6.025C3.375 5.675 3.80257 5.5 4.3077 5.5H7.36153L9.21153 3.5H14.7884L16.6384 5.5H19.6923C20.1974 5.5 20.625 5.675 20.975 6.025C21.325 6.375 21.5 6.80257 21.5 7.3077V18.6923C21.5 19.1974 21.325 19.625 20.975 19.975C20.625 20.325 20.1974 20.5 19.6923 20.5H4.3077Z" />
    </symbol>

    <symbol viewBox="0 0 24 24" id="manager-orders-item-header-manager-select">
        <path d="M12.0015 16.0384L6.34766 10.3846L7.40148 9.33081L12.0015 13.9308L16.6015 9.33081L17.6553 10.3846L12.0015 16.0384Z" />
    </symbol>

    <symbol viewBox="0 0 24 24" id="form-select-arrow">
        <path d="M12.0015 16.0384L6.34766 10.3846L7.40148 9.33081L12.0015 13.9308L16.6015 9.33081L17.6553 10.3846L12.0015 16.0384Z" />
    </symbol>

    <symbol viewBox="0 0 24 24" id="form-select-selected">
        <path d="M9.99967 16.0441L6.35547 12.3999L7.39967 11.3557L9.99967 13.9557L16.5997 7.35571L17.6439 8.39991L9.99967 16.0441Z" />
    </symbol>

    <symbol viewBox="0 0 24 24" id="order-media-window-close">
        <path d="M6.40148 18.6538L5.34766 17.6L10.9477 12L5.34766 6.40002L6.40148 5.34619L12.0015 10.9462L17.6015 5.34619L18.6553 6.40002L13.0553 12L18.6553 17.6L17.6015 18.6538L12.0015 13.0538L6.40148 18.6538Z" />
    </symbol>

    <symbol viewBox="0 0 20 20" id="order-media-window-item-remove">
        <path d="M5.33131 15.5448L4.45312 14.6666L9.11979 9.99993L4.45312 5.33327L5.33131 4.45508L9.99798 9.12174L14.6646 4.45508L15.5428 5.33327L10.8762 9.99993L15.5428 14.6666L14.6646 15.5448L9.99798 10.8781L5.33131 15.5448Z" />
    </symbol>

    <symbol viewBox="0 0 24 24" id="icon-add">
        <path d="M11.25 12.75H5.5V11.25H11.25V5.5H12.7499V11.25H18.5V12.75H12.7499V18.5H11.25V12.75Z" />
    </symbol>

    <symbol viewBox="0 0 20 20" id="icon-remove">
        <path d="M6.08975 17.0832C5.67415 17.0832 5.31919 16.936 5.02485 16.6416C4.73051 16.3473 4.58333 15.9923 4.58333 15.5767V4.99984H3.75V3.74986H7.49998V3.0127H12.5V3.74986H16.25V4.99984H15.4166V15.5767C15.4166 15.9977 15.2708 16.354 14.9791 16.6457C14.6875 16.9373 14.3312 17.0832 13.9102 17.0832H6.08975ZM14.1666 4.99984H5.83331V15.5767C5.83331 15.6515 5.85735 15.713 5.90544 15.7611C5.95352 15.8091 6.01496 15.8332 6.08975 15.8332H13.9102C13.9743 15.8332 14.0331 15.8065 14.0865 15.7531C14.1399 15.6996 14.1666 15.6408 14.1666 15.5767V4.99984ZM7.83654 14.1665H9.08652V6.66651H7.83654V14.1665ZM10.9134 14.1665H12.1634V6.66651H10.9134V14.1665Z" />
    </symbol>

</svg>